;TYPE=PLATED
;Layer: PTH_Through
;EasyEDA Pro v2.2.46.11, 2026-04-11 17:16:17
;Gerber Generator version 0.3
M48
METRIC,LZ,0000.00000
;Hole size 1 = 0.30500 METRIC
T01C0.30500
;Hole size 2 = 0.90002 METRIC
T02C0.90002
;Hole size 3 = 0.91440 METRIC
T03C0.91440
;Hole size 4 = 1.10000 METRIC
T04C1.10000
;Hole size 5 = 1.50002 METRIC
T05C1.50002
;Hole size 6 = 6.00000 METRIC
T06C6.00000
%
G05
G90
T01
X88.92692Y74.97
X99.72192Y63.15901
X189.38392Y51.522
X146.53108Y73.31901
X87.884Y83.24507
X84.86292Y62.952
X111.887Y54.46992
X161.036Y55.753
X160.274Y57.277
T02
X85.598Y56.261
X94.59801Y56.261
X58.801Y57.023
X67.80101Y57.023
X85.471Y52.324
X94.47101Y52.324
X86.106Y59.563
X95.10601Y59.563
X178.054Y54.483
X187.05401Y54.483
X178.181Y58.547
X187.18101Y58.547
X179.324Y50.165
X188.32401Y50.165
X205.994Y57.404
X214.99401Y57.404
T03
X145.288Y94.107
X130.048Y94.107
X130.048Y91.567
X130.048Y89.027
X130.048Y86.487
X130.048Y83.947
X130.048Y81.407
X130.048Y78.867
X130.048Y76.327
X130.048Y73.787
X130.048Y71.247
X130.048Y68.707
X130.048Y66.167
X145.288Y66.167
X145.288Y68.707
X145.288Y71.247
X145.288Y73.787
X145.288Y76.327
X145.288Y78.867
X145.288Y81.407
X145.288Y83.947
X145.288Y86.487
X145.288Y89.027
X145.288Y91.567
T04
X156.083Y53.34
X158.623Y53.34
X161.163Y53.34
X163.703Y53.34
X166.243Y53.34
X106.807Y52.451
X109.347Y52.451
X111.887Y52.451
X114.427Y52.451
X116.967Y52.451
T05
X72.16292Y70.14413
X59.66308Y70.14413
X72.16292Y75.14412
X59.66308Y75.14412
X82.57692Y85.38413
X70.07708Y85.38413
X82.57692Y90.38412
X70.07708Y90.38412
X94.89592Y69.00113
X82.39608Y69.00113
X94.89592Y74.00112
X82.39608Y74.00112
X83.08492Y54.01513
X70.58508Y54.01513
X83.08492Y59.01512
X70.58508Y59.01512
X191.16192Y70.14413
X178.66208Y70.14413
X191.16192Y75.14412
X178.66208Y75.14412
X202.97292Y85.76513
X190.47308Y85.76513
X202.97292Y90.76512
X190.47308Y90.76512
X203.09992Y55.66613
X190.60008Y55.66613
X203.09992Y60.66612
X190.60008Y60.66612
X214.27592Y70.39813
X201.77608Y70.39813
X214.27592Y75.39812
X201.77608Y75.39812
T06
X63.119Y91.821
X209.423Y92.202
X137.88292Y53.34
M30