G04 Layer: TopSolderMaskLayer*
G04 EasyEDA Pro v2.2.46.11, 2026-04-11 17:16:17*
G04 Gerber Generator version 0.3*
G04 Scale: 100 percent, Rotated: No, Reflected: No*
G04 Dimensions in millimeters*
G04 Leading zeros omitted, absolute positions, 4 integers and 5 decimals*
G04 Generated by one-click*
%FSLAX45Y45*%
%MOMM*%
%ADD10C,2.6016*%
%ADD11C,2.4*%
%ADD12C,1.7272*%
%ADD13C,2.1016*%
%ADD14C,7.1016*%
%ADD15C,0.9273*%
G75*


G04 Pad Start*
G54D10*
G01X7216292Y7014401D03*
G01X5966308Y7014401D03*
G01X7216292Y7514400D03*
G01X5966308Y7514400D03*
G01X8257692Y8538401D03*
G01X7007708Y8538401D03*
G01X8257692Y9038400D03*
G01X7007708Y9038400D03*
G01X9489592Y6900101D03*
G01X8239608Y6900101D03*
G01X9489592Y7400100D03*
G01X8239608Y7400100D03*
G01X8308492Y5401501D03*
G01X7058508Y5401501D03*
G01X8308492Y5901500D03*
G01X7058508Y5901500D03*
G01X19116192Y7014401D03*
G01X17866208Y7014401D03*
G01X19116192Y7514400D03*
G01X17866208Y7514400D03*
G01X20297292Y8576501D03*
G01X19047308Y8576501D03*
G01X20297292Y9076500D03*
G01X19047308Y9076500D03*
G01X20309992Y5566601D03*
G01X19060008Y5566601D03*
G01X20309992Y6066600D03*
G01X19060008Y6066600D03*
G01X21427592Y7039801D03*
G01X20177608Y7039801D03*
G01X21427592Y7539800D03*
G01X20177608Y7539800D03*
G54D11*
G01X8559800Y5626100D03*
G01X9459798Y5626100D03*
G01X5880100Y5702300D03*
G01X6780098Y5702300D03*
G01X8547100Y5232400D03*
G01X9447098Y5232400D03*
G01X8610600Y5956300D03*
G01X9510598Y5956300D03*
G01X17805400Y5448300D03*
G01X18705398Y5448300D03*
G01X17818100Y5854700D03*
G01X18718098Y5854700D03*
G01X17932400Y5016500D03*
G01X18832398Y5016500D03*
G01X20599400Y5740400D03*
G01X21499398Y5740400D03*
G54D12*
G01X14528800Y9410700D03*
G01X13004800Y9410700D03*
G01X13004800Y9156700D03*
G01X13004800Y8902700D03*
G01X13004800Y8648700D03*
G01X13004800Y8394700D03*
G01X13004800Y8140700D03*
G01X13004800Y7886700D03*
G01X13004800Y7632700D03*
G01X13004800Y7378700D03*
G01X13004800Y7124700D03*
G01X13004800Y6870700D03*
G01X13004800Y6616700D03*
G01X14528800Y6616700D03*
G01X14528800Y6870700D03*
G01X14528800Y7124700D03*
G01X14528800Y7378700D03*
G01X14528800Y7632700D03*
G01X14528800Y7886700D03*
G01X14528800Y8140700D03*
G01X14528800Y8394700D03*
G01X14528800Y8648700D03*
G01X14528800Y8902700D03*
G01X14528800Y9156700D03*
G54D13*
G01X15608300Y5334000D03*
G01X15862300Y5334000D03*
G01X16116300Y5334000D03*
G01X16370300Y5334000D03*
G01X16624300Y5334000D03*
G01X10680700Y5245100D03*
G01X10934700Y5245100D03*
G01X11188700Y5245100D03*
G01X11442700Y5245100D03*
G01X11696700Y5245100D03*
G54D14*
G01X6311900Y9182100D03*
G01X20942300Y9220200D03*
G01X13788292Y5334000D03*
G04 Pad End*

M02*

