G04 Layer: TopSilkscreenLayer*
G04 EasyEDA Pro v2.2.46.11, 2026-04-11 17:16:17*
G04 Gerber Generator version 0.3*
G04 Scale: 100 percent, Rotated: No, Reflected: No*
G04 Dimensions in millimeters*
G04 Leading zeros omitted, absolute positions, 4 integers and 5 decimals*
G04 Generated by one-click*
%FSLAX45Y45*%
%MOMM*%
%ADD10C,0.1524*%
%ADD11C,0.254*%
%ADD12C,0.1016*%
%ADD13C,0.9164*%
G75*


G04 Text Start*
G54D10*
G01X5848928Y8014045D02*
G01X5848928Y7949021D01*
G01X5848928Y8014045D02*
G01X5876868Y8014045D01*
G01X5886012Y8010997D01*
G01X5889060Y8007949D01*
G01X5892362Y8001599D01*
G01X5892362Y7995503D01*
G01X5889060Y7989407D01*
G01X5886012Y7986359D01*
G01X5876868Y7983057D01*
G01X5848928Y7983057D02*
G01X5876868Y7983057D01*
G01X5886012Y7980009D01*
G01X5889060Y7976961D01*
G01X5892362Y7970865D01*
G01X5892362Y7961467D01*
G01X5889060Y7955371D01*
G01X5886012Y7952069D01*
G01X5876868Y7949021D01*
G01X5848928Y7949021D01*
G01X5944178Y8014045D02*
G01X5944178Y7949021D01*
G01X5922588Y8014045D02*
G01X5965768Y8014045D01*
G01X5995994Y8014045D02*
G01X5995994Y7949021D01*
G01X5995994Y8014045D02*
G01X6039174Y7949021D01*
G01X6039174Y8014045D02*
G01X6039174Y7949021D01*
G01X6069400Y7927431D02*
G01X6125026Y7927431D01*
G01X6155252Y8014045D02*
G01X6155252Y7967563D01*
G01X6158300Y7958419D01*
G01X6164396Y7952069D01*
G01X6173794Y7949021D01*
G01X6179890Y7949021D01*
G01X6189288Y7952069D01*
G01X6195384Y7958419D01*
G01X6198432Y7967563D01*
G01X6198432Y8014045D01*
G01X6228658Y8014045D02*
G01X6228658Y7949021D01*
G01X6228658Y8014045D02*
G01X6256344Y8014045D01*
G01X6265742Y8010997D01*
G01X6268790Y8007949D01*
G01X6271838Y8001599D01*
G01X6271838Y7992455D01*
G01X6268790Y7986359D01*
G01X6265742Y7983057D01*
G01X6256344Y7980009D01*
G01X6228658Y7980009D01*
G01X6302064Y8001599D02*
G01X6308160Y8004901D01*
G01X6317304Y8014045D01*
G01X6317304Y7949021D01*
G01X6890328Y9538045D02*
G01X6890328Y9473021D01*
G01X6890328Y9538045D02*
G01X6918268Y9538045D01*
G01X6927412Y9534997D01*
G01X6930460Y9531949D01*
G01X6933762Y9525599D01*
G01X6933762Y9519503D01*
G01X6930460Y9513407D01*
G01X6927412Y9510359D01*
G01X6918268Y9507057D01*
G01X6890328Y9507057D02*
G01X6918268Y9507057D01*
G01X6927412Y9504009D01*
G01X6930460Y9500961D01*
G01X6933762Y9494865D01*
G01X6933762Y9485467D01*
G01X6930460Y9479371D01*
G01X6927412Y9476069D01*
G01X6918268Y9473021D01*
G01X6890328Y9473021D01*
G01X6985578Y9538045D02*
G01X6985578Y9473021D01*
G01X6963988Y9538045D02*
G01X7007168Y9538045D01*
G01X7037394Y9538045D02*
G01X7037394Y9473021D01*
G01X7037394Y9538045D02*
G01X7080574Y9473021D01*
G01X7080574Y9538045D02*
G01X7080574Y9473021D01*
G01X7110800Y9451431D02*
G01X7166426Y9451431D01*
G01X7196652Y9538045D02*
G01X7196652Y9491563D01*
G01X7199700Y9482419D01*
G01X7205796Y9476069D01*
G01X7215194Y9473021D01*
G01X7221290Y9473021D01*
G01X7230688Y9476069D01*
G01X7236784Y9482419D01*
G01X7239832Y9491563D01*
G01X7239832Y9538045D01*
G01X7270058Y9538045D02*
G01X7270058Y9473021D01*
G01X7270058Y9538045D02*
G01X7297744Y9538045D01*
G01X7307142Y9534997D01*
G01X7310190Y9531949D01*
G01X7313238Y9525599D01*
G01X7313238Y9516455D01*
G01X7310190Y9510359D01*
G01X7307142Y9507057D01*
G01X7297744Y9504009D01*
G01X7270058Y9504009D01*
G01X7346512Y9522551D02*
G01X7346512Y9525599D01*
G01X7349560Y9531949D01*
G01X7352608Y9534997D01*
G01X7358704Y9538045D01*
G01X7371150Y9538045D01*
G01X7377500Y9534997D01*
G01X7380548Y9531949D01*
G01X7383596Y9525599D01*
G01X7383596Y9519503D01*
G01X7380548Y9513407D01*
G01X7374198Y9504009D01*
G01X7343464Y9473021D01*
G01X7386644Y9473021D01*
G01X8122228Y7899745D02*
G01X8122228Y7834721D01*
G01X8122228Y7899745D02*
G01X8150168Y7899745D01*
G01X8159312Y7896697D01*
G01X8162360Y7893649D01*
G01X8165662Y7887299D01*
G01X8165662Y7881203D01*
G01X8162360Y7875107D01*
G01X8159312Y7872059D01*
G01X8150168Y7868757D01*
G01X8122228Y7868757D02*
G01X8150168Y7868757D01*
G01X8159312Y7865709D01*
G01X8162360Y7862661D01*
G01X8165662Y7856565D01*
G01X8165662Y7847167D01*
G01X8162360Y7841071D01*
G01X8159312Y7837769D01*
G01X8150168Y7834721D01*
G01X8122228Y7834721D01*
G01X8217478Y7899745D02*
G01X8217478Y7834721D01*
G01X8195888Y7899745D02*
G01X8239068Y7899745D01*
G01X8269294Y7899745D02*
G01X8269294Y7834721D01*
G01X8269294Y7899745D02*
G01X8312474Y7834721D01*
G01X8312474Y7899745D02*
G01X8312474Y7834721D01*
G01X8342700Y7813131D02*
G01X8398326Y7813131D01*
G01X8428552Y7899745D02*
G01X8428552Y7853263D01*
G01X8431600Y7844119D01*
G01X8437696Y7837769D01*
G01X8447094Y7834721D01*
G01X8453190Y7834721D01*
G01X8462588Y7837769D01*
G01X8468684Y7844119D01*
G01X8471732Y7853263D01*
G01X8471732Y7899745D01*
G01X8501958Y7899745D02*
G01X8501958Y7834721D01*
G01X8501958Y7899745D02*
G01X8529644Y7899745D01*
G01X8539042Y7896697D01*
G01X8542090Y7893649D01*
G01X8545138Y7887299D01*
G01X8545138Y7878155D01*
G01X8542090Y7872059D01*
G01X8539042Y7868757D01*
G01X8529644Y7865709D01*
G01X8501958Y7865709D01*
G01X8581460Y7899745D02*
G01X8615496Y7899745D01*
G01X8596954Y7875107D01*
G01X8606098Y7875107D01*
G01X8612448Y7872059D01*
G01X8615496Y7868757D01*
G01X8618544Y7859613D01*
G01X8618544Y7853263D01*
G01X8615496Y7844119D01*
G01X8609400Y7837769D01*
G01X8600002Y7834721D01*
G01X8590604Y7834721D01*
G01X8581460Y7837769D01*
G01X8578412Y7841071D01*
G01X8575364Y7847167D01*
G01X6941128Y6401145D02*
G01X6941128Y6336121D01*
G01X6941128Y6401145D02*
G01X6969068Y6401145D01*
G01X6978212Y6398097D01*
G01X6981260Y6395049D01*
G01X6984562Y6388699D01*
G01X6984562Y6382603D01*
G01X6981260Y6376507D01*
G01X6978212Y6373459D01*
G01X6969068Y6370157D01*
G01X6941128Y6370157D02*
G01X6969068Y6370157D01*
G01X6978212Y6367109D01*
G01X6981260Y6364061D01*
G01X6984562Y6357965D01*
G01X6984562Y6348567D01*
G01X6981260Y6342471D01*
G01X6978212Y6339169D01*
G01X6969068Y6336121D01*
G01X6941128Y6336121D01*
G01X7036378Y6401145D02*
G01X7036378Y6336121D01*
G01X7014788Y6401145D02*
G01X7057968Y6401145D01*
G01X7088194Y6401145D02*
G01X7088194Y6336121D01*
G01X7088194Y6401145D02*
G01X7131374Y6336121D01*
G01X7131374Y6401145D02*
G01X7131374Y6336121D01*
G01X7161600Y6314531D02*
G01X7217226Y6314531D01*
G01X7247452Y6401145D02*
G01X7247452Y6354663D01*
G01X7250500Y6345519D01*
G01X7256596Y6339169D01*
G01X7265994Y6336121D01*
G01X7272090Y6336121D01*
G01X7281488Y6339169D01*
G01X7287584Y6345519D01*
G01X7290632Y6354663D01*
G01X7290632Y6401145D01*
G01X7320858Y6401145D02*
G01X7320858Y6336121D01*
G01X7320858Y6401145D02*
G01X7348544Y6401145D01*
G01X7357942Y6398097D01*
G01X7360990Y6395049D01*
G01X7364038Y6388699D01*
G01X7364038Y6379555D01*
G01X7360990Y6373459D01*
G01X7357942Y6370157D01*
G01X7348544Y6367109D01*
G01X7320858Y6367109D01*
G01X7424998Y6401145D02*
G01X7394264Y6357965D01*
G01X7440492Y6357965D01*
G01X7424998Y6401145D02*
G01X7424998Y6336121D01*
G01X17748828Y8014045D02*
G01X17748828Y7949021D01*
G01X17748828Y8014045D02*
G01X17776768Y8014045D01*
G01X17785912Y8010997D01*
G01X17788960Y8007949D01*
G01X17792262Y8001599D01*
G01X17792262Y7995503D01*
G01X17788960Y7989407D01*
G01X17785912Y7986359D01*
G01X17776768Y7983057D01*
G01X17748828Y7983057D02*
G01X17776768Y7983057D01*
G01X17785912Y7980009D01*
G01X17788960Y7976961D01*
G01X17792262Y7970865D01*
G01X17792262Y7961467D01*
G01X17788960Y7955371D01*
G01X17785912Y7952069D01*
G01X17776768Y7949021D01*
G01X17748828Y7949021D01*
G01X17844078Y8014045D02*
G01X17844078Y7949021D01*
G01X17822488Y8014045D02*
G01X17865668Y8014045D01*
G01X17895894Y8014045D02*
G01X17895894Y7949021D01*
G01X17895894Y8014045D02*
G01X17939074Y7949021D01*
G01X17939074Y8014045D02*
G01X17939074Y7949021D01*
G01X17969300Y7927431D02*
G01X18024926Y7927431D01*
G01X18055152Y8014045D02*
G01X18055152Y7967563D01*
G01X18058200Y7958419D01*
G01X18064296Y7952069D01*
G01X18073694Y7949021D01*
G01X18079790Y7949021D01*
G01X18089188Y7952069D01*
G01X18095284Y7958419D01*
G01X18098332Y7967563D01*
G01X18098332Y8014045D01*
G01X18128558Y8014045D02*
G01X18128558Y7949021D01*
G01X18128558Y8014045D02*
G01X18156244Y8014045D01*
G01X18165642Y8010997D01*
G01X18168690Y8007949D01*
G01X18171738Y8001599D01*
G01X18171738Y7992455D01*
G01X18168690Y7986359D01*
G01X18165642Y7983057D01*
G01X18156244Y7980009D01*
G01X18128558Y7980009D01*
G01X18239048Y8014045D02*
G01X18208060Y8014045D01*
G01X18205012Y7986359D01*
G01X18208060Y7989407D01*
G01X18217204Y7992455D01*
G01X18226602Y7992455D01*
G01X18236000Y7989407D01*
G01X18242096Y7983057D01*
G01X18245144Y7973913D01*
G01X18245144Y7967563D01*
G01X18242096Y7958419D01*
G01X18236000Y7952069D01*
G01X18226602Y7949021D01*
G01X18217204Y7949021D01*
G01X18208060Y7952069D01*
G01X18205012Y7955371D01*
G01X18201964Y7961467D01*
G01X18929928Y9576145D02*
G01X18929928Y9511121D01*
G01X18929928Y9576145D02*
G01X18957868Y9576145D01*
G01X18967012Y9573097D01*
G01X18970060Y9570049D01*
G01X18973362Y9563699D01*
G01X18973362Y9557603D01*
G01X18970060Y9551507D01*
G01X18967012Y9548459D01*
G01X18957868Y9545157D01*
G01X18929928Y9545157D02*
G01X18957868Y9545157D01*
G01X18967012Y9542109D01*
G01X18970060Y9539061D01*
G01X18973362Y9532965D01*
G01X18973362Y9523567D01*
G01X18970060Y9517471D01*
G01X18967012Y9514169D01*
G01X18957868Y9511121D01*
G01X18929928Y9511121D01*
G01X19025178Y9576145D02*
G01X19025178Y9511121D01*
G01X19003588Y9576145D02*
G01X19046768Y9576145D01*
G01X19076994Y9576145D02*
G01X19076994Y9511121D01*
G01X19076994Y9576145D02*
G01X19120174Y9511121D01*
G01X19120174Y9576145D02*
G01X19120174Y9511121D01*
G01X19150400Y9489531D02*
G01X19206026Y9489531D01*
G01X19236252Y9576145D02*
G01X19236252Y9529663D01*
G01X19239300Y9520519D01*
G01X19245396Y9514169D01*
G01X19254794Y9511121D01*
G01X19260890Y9511121D01*
G01X19270288Y9514169D01*
G01X19276384Y9520519D01*
G01X19279432Y9529663D01*
G01X19279432Y9576145D01*
G01X19309658Y9576145D02*
G01X19309658Y9511121D01*
G01X19309658Y9576145D02*
G01X19337344Y9576145D01*
G01X19346742Y9573097D01*
G01X19349790Y9570049D01*
G01X19352838Y9563699D01*
G01X19352838Y9554555D01*
G01X19349790Y9548459D01*
G01X19346742Y9545157D01*
G01X19337344Y9542109D01*
G01X19309658Y9542109D01*
G01X19420148Y9567001D02*
G01X19417100Y9573097D01*
G01X19407702Y9576145D01*
G01X19401606Y9576145D01*
G01X19392208Y9573097D01*
G01X19386112Y9563699D01*
G01X19383064Y9548459D01*
G01X19383064Y9532965D01*
G01X19386112Y9520519D01*
G01X19392208Y9514169D01*
G01X19401606Y9511121D01*
G01X19404654Y9511121D01*
G01X19413798Y9514169D01*
G01X19420148Y9520519D01*
G01X19423196Y9529663D01*
G01X19423196Y9532965D01*
G01X19420148Y9542109D01*
G01X19413798Y9548459D01*
G01X19404654Y9551507D01*
G01X19401606Y9551507D01*
G01X19392208Y9548459D01*
G01X19386112Y9542109D01*
G01X19383064Y9532965D01*
G01X18942628Y6566245D02*
G01X18942628Y6501221D01*
G01X18942628Y6566245D02*
G01X18970568Y6566245D01*
G01X18979712Y6563197D01*
G01X18982760Y6560149D01*
G01X18986062Y6553799D01*
G01X18986062Y6547703D01*
G01X18982760Y6541607D01*
G01X18979712Y6538559D01*
G01X18970568Y6535257D01*
G01X18942628Y6535257D02*
G01X18970568Y6535257D01*
G01X18979712Y6532209D01*
G01X18982760Y6529161D01*
G01X18986062Y6523065D01*
G01X18986062Y6513667D01*
G01X18982760Y6507571D01*
G01X18979712Y6504269D01*
G01X18970568Y6501221D01*
G01X18942628Y6501221D01*
G01X19037878Y6566245D02*
G01X19037878Y6501221D01*
G01X19016288Y6566245D02*
G01X19059468Y6566245D01*
G01X19089694Y6566245D02*
G01X19089694Y6501221D01*
G01X19089694Y6566245D02*
G01X19132874Y6501221D01*
G01X19132874Y6566245D02*
G01X19132874Y6501221D01*
G01X19163100Y6479631D02*
G01X19218726Y6479631D01*
G01X19248952Y6566245D02*
G01X19248952Y6519763D01*
G01X19252000Y6510619D01*
G01X19258096Y6504269D01*
G01X19267494Y6501221D01*
G01X19273590Y6501221D01*
G01X19282988Y6504269D01*
G01X19289084Y6510619D01*
G01X19292132Y6519763D01*
G01X19292132Y6566245D01*
G01X19322358Y6566245D02*
G01X19322358Y6501221D01*
G01X19322358Y6566245D02*
G01X19350044Y6566245D01*
G01X19359442Y6563197D01*
G01X19362490Y6560149D01*
G01X19365538Y6553799D01*
G01X19365538Y6544655D01*
G01X19362490Y6538559D01*
G01X19359442Y6535257D01*
G01X19350044Y6532209D01*
G01X19322358Y6532209D01*
G01X19438944Y6566245D02*
G01X19407956Y6501221D01*
G01X19395764Y6566245D02*
G01X19438944Y6566245D01*
G01X20060228Y8039445D02*
G01X20060228Y7974421D01*
G01X20060228Y8039445D02*
G01X20088168Y8039445D01*
G01X20097312Y8036397D01*
G01X20100360Y8033349D01*
G01X20103662Y8026999D01*
G01X20103662Y8020903D01*
G01X20100360Y8014807D01*
G01X20097312Y8011759D01*
G01X20088168Y8008457D01*
G01X20060228Y8008457D02*
G01X20088168Y8008457D01*
G01X20097312Y8005409D01*
G01X20100360Y8002361D01*
G01X20103662Y7996265D01*
G01X20103662Y7986867D01*
G01X20100360Y7980771D01*
G01X20097312Y7977469D01*
G01X20088168Y7974421D01*
G01X20060228Y7974421D01*
G01X20155478Y8039445D02*
G01X20155478Y7974421D01*
G01X20133888Y8039445D02*
G01X20177068Y8039445D01*
G01X20207294Y8039445D02*
G01X20207294Y7974421D01*
G01X20207294Y8039445D02*
G01X20250474Y7974421D01*
G01X20250474Y8039445D02*
G01X20250474Y7974421D01*
G01X20280700Y7952831D02*
G01X20336326Y7952831D01*
G01X20366552Y8039445D02*
G01X20366552Y7992963D01*
G01X20369600Y7983819D01*
G01X20375696Y7977469D01*
G01X20385094Y7974421D01*
G01X20391190Y7974421D01*
G01X20400588Y7977469D01*
G01X20406684Y7983819D01*
G01X20409732Y7992963D01*
G01X20409732Y8039445D01*
G01X20439958Y8039445D02*
G01X20439958Y7974421D01*
G01X20439958Y8039445D02*
G01X20467644Y8039445D01*
G01X20477042Y8036397D01*
G01X20480090Y8033349D01*
G01X20483138Y8026999D01*
G01X20483138Y8017855D01*
G01X20480090Y8011759D01*
G01X20477042Y8008457D01*
G01X20467644Y8005409D01*
G01X20439958Y8005409D01*
G01X20528604Y8039445D02*
G01X20519460Y8036397D01*
G01X20516412Y8030301D01*
G01X20516412Y8023951D01*
G01X20519460Y8017855D01*
G01X20525556Y8014807D01*
G01X20538002Y8011759D01*
G01X20547400Y8008457D01*
G01X20553496Y8002361D01*
G01X20556544Y7996265D01*
G01X20556544Y7986867D01*
G01X20553496Y7980771D01*
G01X20550448Y7977469D01*
G01X20541050Y7974421D01*
G01X20528604Y7974421D01*
G01X20519460Y7977469D01*
G01X20516412Y7980771D01*
G01X20513364Y7986867D01*
G01X20513364Y7996265D01*
G01X20516412Y8002361D01*
G01X20522508Y8008457D01*
G01X20531906Y8011759D01*
G01X20544098Y8014807D01*
G01X20550448Y8017855D01*
G01X20553496Y8023951D01*
G01X20553496Y8030301D01*
G01X20550448Y8036397D01*
G01X20541050Y8039445D01*
G01X20528604Y8039445D01*
G01X8467420Y5845734D02*
G01X8467420Y5780710D01*
G01X8467420Y5845734D02*
G01X8495360Y5845734D01*
G01X8504504Y5842686D01*
G01X8507552Y5839638D01*
G01X8510854Y5833288D01*
G01X8510854Y5827192D01*
G01X8507552Y5821096D01*
G01X8504504Y5818048D01*
G01X8495360Y5814746D01*
G01X8467420Y5814746D01*
G01X8489010Y5814746D02*
G01X8510854Y5780710D01*
G01X8541080Y5833288D02*
G01X8547176Y5836590D01*
G01X8556320Y5845734D01*
G01X8556320Y5780710D01*
G01X5787720Y5921934D02*
G01X5787720Y5856910D01*
G01X5787720Y5921934D02*
G01X5815660Y5921934D01*
G01X5824804Y5918886D01*
G01X5827852Y5915838D01*
G01X5831154Y5909488D01*
G01X5831154Y5903392D01*
G01X5827852Y5897296D01*
G01X5824804Y5894248D01*
G01X5815660Y5890946D01*
G01X5787720Y5890946D01*
G01X5809310Y5890946D02*
G01X5831154Y5856910D01*
G01X5864428Y5906440D02*
G01X5864428Y5909488D01*
G01X5867476Y5915838D01*
G01X5870524Y5918886D01*
G01X5876620Y5921934D01*
G01X5889066Y5921934D01*
G01X5895416Y5918886D01*
G01X5898464Y5915838D01*
G01X5901512Y5909488D01*
G01X5901512Y5903392D01*
G01X5898464Y5897296D01*
G01X5892114Y5887898D01*
G01X5861380Y5856910D01*
G01X5904560Y5856910D01*
G01X8454720Y5452034D02*
G01X8454720Y5387010D01*
G01X8454720Y5452034D02*
G01X8482660Y5452034D01*
G01X8491804Y5448986D01*
G01X8494852Y5445938D01*
G01X8498154Y5439588D01*
G01X8498154Y5433492D01*
G01X8494852Y5427396D01*
G01X8491804Y5424348D01*
G01X8482660Y5421046D01*
G01X8454720Y5421046D01*
G01X8476310Y5421046D02*
G01X8498154Y5387010D01*
G01X8534476Y5452034D02*
G01X8568512Y5452034D01*
G01X8549970Y5427396D01*
G01X8559114Y5427396D01*
G01X8565464Y5424348D01*
G01X8568512Y5421046D01*
G01X8571560Y5411902D01*
G01X8571560Y5405552D01*
G01X8568512Y5396408D01*
G01X8562416Y5390058D01*
G01X8553018Y5387010D01*
G01X8543620Y5387010D01*
G01X8534476Y5390058D01*
G01X8531428Y5393360D01*
G01X8528380Y5399456D01*
G01X8518220Y6175934D02*
G01X8518220Y6110910D01*
G01X8518220Y6175934D02*
G01X8546160Y6175934D01*
G01X8555304Y6172886D01*
G01X8558352Y6169838D01*
G01X8561654Y6163488D01*
G01X8561654Y6157392D01*
G01X8558352Y6151296D01*
G01X8555304Y6148248D01*
G01X8546160Y6144946D01*
G01X8518220Y6144946D01*
G01X8539810Y6144946D02*
G01X8561654Y6110910D01*
G01X8622614Y6175934D02*
G01X8591880Y6132754D01*
G01X8638108Y6132754D01*
G01X8622614Y6175934D02*
G01X8622614Y6110910D01*
G01X17713020Y5667934D02*
G01X17713020Y5602910D01*
G01X17713020Y5667934D02*
G01X17740960Y5667934D01*
G01X17750104Y5664886D01*
G01X17753152Y5661838D01*
G01X17756454Y5655488D01*
G01X17756454Y5649392D01*
G01X17753152Y5643296D01*
G01X17750104Y5640248D01*
G01X17740960Y5636946D01*
G01X17713020Y5636946D01*
G01X17734610Y5636946D02*
G01X17756454Y5602910D01*
G01X17823764Y5667934D02*
G01X17792776Y5667934D01*
G01X17789728Y5640248D01*
G01X17792776Y5643296D01*
G01X17801920Y5646344D01*
G01X17811318Y5646344D01*
G01X17820716Y5643296D01*
G01X17826812Y5636946D01*
G01X17829860Y5627802D01*
G01X17829860Y5621452D01*
G01X17826812Y5612308D01*
G01X17820716Y5605958D01*
G01X17811318Y5602910D01*
G01X17801920Y5602910D01*
G01X17792776Y5605958D01*
G01X17789728Y5609260D01*
G01X17786680Y5615356D01*
G01X17725720Y6074334D02*
G01X17725720Y6009310D01*
G01X17725720Y6074334D02*
G01X17753660Y6074334D01*
G01X17762804Y6071286D01*
G01X17765852Y6068238D01*
G01X17769154Y6061888D01*
G01X17769154Y6055792D01*
G01X17765852Y6049696D01*
G01X17762804Y6046648D01*
G01X17753660Y6043346D01*
G01X17725720Y6043346D01*
G01X17747310Y6043346D02*
G01X17769154Y6009310D01*
G01X17836464Y6065190D02*
G01X17833416Y6071286D01*
G01X17824018Y6074334D01*
G01X17817922Y6074334D01*
G01X17808524Y6071286D01*
G01X17802428Y6061888D01*
G01X17799380Y6046648D01*
G01X17799380Y6031154D01*
G01X17802428Y6018708D01*
G01X17808524Y6012358D01*
G01X17817922Y6009310D01*
G01X17820970Y6009310D01*
G01X17830114Y6012358D01*
G01X17836464Y6018708D01*
G01X17839512Y6027852D01*
G01X17839512Y6031154D01*
G01X17836464Y6040298D01*
G01X17830114Y6046648D01*
G01X17820970Y6049696D01*
G01X17817922Y6049696D01*
G01X17808524Y6046648D01*
G01X17802428Y6040298D01*
G01X17799380Y6031154D01*
G01X17840020Y5236134D02*
G01X17840020Y5171110D01*
G01X17840020Y5236134D02*
G01X17867960Y5236134D01*
G01X17877104Y5233086D01*
G01X17880152Y5230038D01*
G01X17883454Y5223688D01*
G01X17883454Y5217592D01*
G01X17880152Y5211496D01*
G01X17877104Y5208448D01*
G01X17867960Y5205146D01*
G01X17840020Y5205146D01*
G01X17861610Y5205146D02*
G01X17883454Y5171110D01*
G01X17956860Y5236134D02*
G01X17925872Y5171110D01*
G01X17913680Y5236134D02*
G01X17956860Y5236134D01*
G01X20507020Y5960034D02*
G01X20507020Y5895010D01*
G01X20507020Y5960034D02*
G01X20534960Y5960034D01*
G01X20544104Y5956986D01*
G01X20547152Y5953938D01*
G01X20550454Y5947588D01*
G01X20550454Y5941492D01*
G01X20547152Y5935396D01*
G01X20544104Y5932348D01*
G01X20534960Y5929046D01*
G01X20507020Y5929046D01*
G01X20528610Y5929046D02*
G01X20550454Y5895010D01*
G01X20595920Y5960034D02*
G01X20586776Y5956986D01*
G01X20583728Y5950890D01*
G01X20583728Y5944540D01*
G01X20586776Y5938444D01*
G01X20592872Y5935396D01*
G01X20605318Y5932348D01*
G01X20614716Y5929046D01*
G01X20620812Y5922950D01*
G01X20623860Y5916854D01*
G01X20623860Y5907456D01*
G01X20620812Y5901360D01*
G01X20617764Y5898058D01*
G01X20608366Y5895010D01*
G01X20595920Y5895010D01*
G01X20586776Y5898058D01*
G01X20583728Y5901360D01*
G01X20580680Y5907456D01*
G01X20580680Y5916854D01*
G01X20583728Y5922950D01*
G01X20589824Y5929046D01*
G01X20599222Y5932348D01*
G01X20611414Y5935396D01*
G01X20617764Y5938444D01*
G01X20620812Y5944540D01*
G01X20620812Y5950890D01*
G01X20617764Y5956986D01*
G01X20608366Y5960034D01*
G01X20595920Y5960034D01*
G01X12936347Y9828479D02*
G01X12889865Y9828479D01*
G01X12880721Y9825431D01*
G01X12874371Y9819081D01*
G01X12871323Y9809937D01*
G01X12871323Y9803587D01*
G01X12874371Y9794443D01*
G01X12880721Y9788347D01*
G01X12889865Y9785045D01*
G01X12936347Y9785045D01*
G01X12923901Y9754819D02*
G01X12927203Y9748723D01*
G01X12936347Y9739579D01*
G01X12871323Y9739579D01*
G01X14701266Y5074920D02*
G01X14747748Y5074920D01*
G01X14756892Y5077968D01*
G01X14763242Y5084318D01*
G01X14766290Y5093462D01*
G01X14766290Y5099812D01*
G01X14763242Y5108956D01*
G01X14756892Y5115052D01*
G01X14747748Y5118354D01*
G01X14701266Y5118354D01*
G01X14716760Y5151628D02*
G01X14713712Y5151628D01*
G01X14707362Y5154676D01*
G01X14704314Y5157724D01*
G01X14701266Y5163820D01*
G01X14701266Y5176266D01*
G01X14704314Y5182616D01*
G01X14707362Y5185664D01*
G01X14713712Y5188712D01*
G01X14719808Y5188712D01*
G01X14725904Y5185664D01*
G01X14735302Y5179314D01*
G01X14766290Y5148580D01*
G01X14766290Y5191760D01*
G01X9773666Y4986020D02*
G01X9820148Y4986020D01*
G01X9829292Y4989068D01*
G01X9835642Y4995418D01*
G01X9838690Y5004562D01*
G01X9838690Y5010912D01*
G01X9835642Y5020056D01*
G01X9829292Y5026152D01*
G01X9820148Y5029454D01*
G01X9773666Y5029454D01*
G01X9773666Y5065776D02*
G01X9773666Y5099812D01*
G01X9798304Y5081270D01*
G01X9798304Y5090414D01*
G01X9801352Y5096764D01*
G01X9804654Y5099812D01*
G01X9813798Y5102860D01*
G01X9820148Y5102860D01*
G01X9829292Y5099812D01*
G01X9835642Y5093716D01*
G01X9838690Y5084318D01*
G01X9838690Y5074920D01*
G01X9835642Y5065776D01*
G01X9832340Y5062728D01*
G01X9826244Y5059680D01*
G04 Text End*

G04 PolygonModel Start*
G54D11*
G01X5961299Y7894409D02*
G01X7221296Y7894411D01*
G01X5961299Y6634417D02*
G01X7221296Y6634414D01*
G01X5961299Y7894409D02*
G01X5961299Y7666441D01*
G01X5961299Y7370384D02*
G01X5961299Y7158441D01*
G01X5961299Y6862384D02*
G01X5961299Y6634417D01*
G01X7221296Y7894411D02*
G01X7221296Y7666441D01*
G01X7221296Y7370384D02*
G01X7221296Y7158441D01*
G01X7221296Y6862384D02*
G01X7221296Y6634414D01*
G01X7002699Y9418409D02*
G01X8262696Y9418411D01*
G01X7002699Y8158417D02*
G01X8262696Y8158414D01*
G01X7002699Y9418409D02*
G01X7002699Y9190441D01*
G01X7002699Y8894384D02*
G01X7002699Y8682441D01*
G01X7002699Y8386384D02*
G01X7002699Y8158417D01*
G01X8262696Y9418411D02*
G01X8262696Y9190441D01*
G01X8262696Y8894384D02*
G01X8262696Y8682441D01*
G01X8262696Y8386384D02*
G01X8262696Y8158414D01*
G01X8234599Y7780109D02*
G01X9494596Y7780111D01*
G01X8234599Y6520117D02*
G01X9494596Y6520114D01*
G01X8234599Y7780109D02*
G01X8234599Y7552141D01*
G01X8234599Y7256084D02*
G01X8234599Y7044141D01*
G01X8234599Y6748084D02*
G01X8234599Y6520117D01*
G01X9494596Y7780111D02*
G01X9494596Y7552141D01*
G01X9494596Y7256084D02*
G01X9494596Y7044141D01*
G01X9494596Y6748084D02*
G01X9494596Y6520114D01*
G01X7053499Y6281509D02*
G01X8313496Y6281511D01*
G01X7053499Y5021517D02*
G01X8313496Y5021514D01*
G01X7053499Y6281509D02*
G01X7053499Y6053541D01*
G01X7053499Y5757484D02*
G01X7053499Y5545541D01*
G01X7053499Y5249484D02*
G01X7053499Y5021517D01*
G01X8313496Y6281511D02*
G01X8313496Y6053541D01*
G01X8313496Y5757484D02*
G01X8313496Y5545541D01*
G01X8313496Y5249484D02*
G01X8313496Y5021514D01*
G01X17861199Y7894409D02*
G01X19121196Y7894411D01*
G01X17861199Y6634417D02*
G01X19121196Y6634414D01*
G01X17861199Y7894409D02*
G01X17861199Y7666441D01*
G01X17861199Y7370384D02*
G01X17861199Y7158441D01*
G01X17861199Y6862384D02*
G01X17861199Y6634417D01*
G01X19121196Y7894411D02*
G01X19121196Y7666441D01*
G01X19121196Y7370384D02*
G01X19121196Y7158441D01*
G01X19121196Y6862384D02*
G01X19121196Y6634414D01*
G01X19042299Y9456509D02*
G01X20302296Y9456511D01*
G01X19042299Y8196517D02*
G01X20302296Y8196514D01*
G01X19042299Y9456509D02*
G01X19042299Y9228541D01*
G01X19042299Y8932484D02*
G01X19042299Y8720541D01*
G01X19042299Y8424484D02*
G01X19042299Y8196517D01*
G01X20302296Y9456511D02*
G01X20302296Y9228541D01*
G01X20302296Y8932484D02*
G01X20302296Y8720541D01*
G01X20302296Y8424484D02*
G01X20302296Y8196514D01*
G01X19054999Y6446609D02*
G01X20314996Y6446611D01*
G01X19054999Y5186617D02*
G01X20314996Y5186614D01*
G01X19054999Y6446609D02*
G01X19054999Y6218641D01*
G01X19054999Y5922584D02*
G01X19054999Y5710641D01*
G01X19054999Y5414584D02*
G01X19054999Y5186617D01*
G01X20314996Y6446611D02*
G01X20314996Y6218641D01*
G01X20314996Y5922584D02*
G01X20314996Y5710641D01*
G01X20314996Y5414584D02*
G01X20314996Y5186614D01*
G01X20172599Y7919809D02*
G01X21432596Y7919811D01*
G01X20172599Y6659817D02*
G01X21432596Y6659814D01*
G01X20172599Y7919809D02*
G01X20172599Y7691841D01*
G01X20172599Y7395784D02*
G01X20172599Y7183841D01*
G01X20172599Y6887784D02*
G01X20172599Y6659817D01*
G01X21432596Y7919811D02*
G01X21432596Y7691841D01*
G01X21432596Y7395784D02*
G01X21432596Y7183841D01*
G01X21432596Y6887784D02*
G01X21432596Y6659814D01*
G01X8759800Y5726100D02*
G01X9259799Y5726100D01*
G01X9259799Y5726100D02*
G01X9259799Y5526100D01*
G01X9259799Y5526100D02*
G01X8759800Y5526100D01*
G01X8759800Y5526100D02*
G01X8759800Y5726100D01*
G01X8698767Y5626100D02*
G01X8759800Y5626100D01*
G01X9259799Y5626100D02*
G01X9323548Y5626100D01*
G01X6080100Y5802300D02*
G01X6580099Y5802300D01*
G01X6580099Y5802300D02*
G01X6580099Y5602300D01*
G01X6580099Y5602300D02*
G01X6080100Y5602300D01*
G01X6080100Y5602300D02*
G01X6080100Y5802300D01*
G01X6019067Y5702300D02*
G01X6080100Y5702300D01*
G01X6580099Y5702300D02*
G01X6643848Y5702300D01*
G01X8747100Y5332400D02*
G01X9247099Y5332400D01*
G01X9247099Y5332400D02*
G01X9247099Y5132400D01*
G01X9247099Y5132400D02*
G01X8747100Y5132400D01*
G01X8747100Y5132400D02*
G01X8747100Y5332400D01*
G01X8686067Y5232400D02*
G01X8747100Y5232400D01*
G01X9247099Y5232400D02*
G01X9310848Y5232400D01*
G01X8810600Y6056300D02*
G01X9310599Y6056300D01*
G01X9310599Y6056300D02*
G01X9310599Y5856300D01*
G01X9310599Y5856300D02*
G01X8810600Y5856300D01*
G01X8810600Y5856300D02*
G01X8810600Y6056300D01*
G01X8749567Y5956300D02*
G01X8810600Y5956300D01*
G01X9310599Y5956300D02*
G01X9374348Y5956300D01*
G01X18005400Y5548300D02*
G01X18505399Y5548300D01*
G01X18505399Y5548300D02*
G01X18505399Y5348300D01*
G01X18505399Y5348300D02*
G01X18005400Y5348300D01*
G01X18005400Y5348300D02*
G01X18005400Y5548300D01*
G01X17944367Y5448300D02*
G01X18005400Y5448300D01*
G01X18505399Y5448300D02*
G01X18569148Y5448300D01*
G01X18018100Y5954700D02*
G01X18518099Y5954700D01*
G01X18518099Y5954700D02*
G01X18518099Y5754700D01*
G01X18518099Y5754700D02*
G01X18018100Y5754700D01*
G01X18018100Y5754700D02*
G01X18018100Y5954700D01*
G01X17957067Y5854700D02*
G01X18018100Y5854700D01*
G01X18518099Y5854700D02*
G01X18581848Y5854700D01*
G01X18132400Y5116500D02*
G01X18632399Y5116500D01*
G01X18632399Y5116500D02*
G01X18632399Y4916500D01*
G01X18632399Y4916500D02*
G01X18132400Y4916500D01*
G01X18132400Y4916500D02*
G01X18132400Y5116500D01*
G01X18071367Y5016500D02*
G01X18132400Y5016500D01*
G01X18632399Y5016500D02*
G01X18696148Y5016500D01*
G01X20799400Y5840400D02*
G01X21299399Y5840400D01*
G01X21299399Y5840400D02*
G01X21299399Y5640400D01*
G01X21299399Y5640400D02*
G01X20799400Y5640400D01*
G01X20799400Y5640400D02*
G01X20799400Y5840400D01*
G01X20738367Y5740400D02*
G01X20799400Y5740400D01*
G01X21299399Y5740400D02*
G01X21363148Y5740400D01*
G01X12854813Y6460693D02*
G01X12854813Y9810699D01*
G01X12854813Y9810699D02*
G01X14679803Y9810699D01*
G01X14679803Y9810699D02*
G01X14679803Y8085709D01*
G01X14679803Y8085709D02*
G01X14679803Y7960690D01*
G01X14679803Y7960690D02*
G01X14679803Y6985711D01*
G01X14679803Y6985711D02*
G01X14679803Y6860692D01*
G01X14679803Y6860692D02*
G01X14679803Y6635699D01*
G01X14679803Y6635699D02*
G01X14679803Y6460693D01*
G01X14679803Y6460693D02*
G01X12854813Y6460693D01*
G01X13504799Y9810699D02*
G01X13504799Y9510700D01*
G01X13504799Y9510700D02*
G01X13529793Y9485706D01*
G01X13529793Y9485706D02*
G01X14004798Y9485706D01*
G01X14004798Y9485706D02*
G01X14029792Y9510700D01*
G01X14029792Y9510700D02*
G01X14029792Y9810699D01*
G54D12*
G01X13604799Y9760687D02*
G01X13604799Y9635693D01*
G01X13604799Y9635693D02*
G01X13654811Y9635693D01*
G01X13654811Y9635693D02*
G01X13654811Y9760687D01*
G01X13654811Y9760687D02*
G01X13604799Y9760687D01*
G01X13929792Y9760687D02*
G01X13929792Y9635693D01*
G01X13929792Y9635693D02*
G01X13879805Y9635693D01*
G01X13879805Y9635693D02*
G01X13879805Y9760687D01*
G01X13879805Y9760687D02*
G01X13929792Y9760687D01*
G01X13529793Y9485706D02*
G01X13529793Y9510700D01*
G01X13529793Y9510700D02*
G01X13554812Y9510700D01*
G01X13554812Y9510700D02*
G01X13554812Y9485706D01*
G01X14004798Y9485706D02*
G01X14004798Y9510700D01*
G01X14004798Y9510700D02*
G01X13979804Y9510700D01*
G01X13979804Y9510700D02*
G01X13979804Y9485706D01*
G01X14029792Y9760687D02*
G01X14079804Y9810699D01*
G01X13504799Y9760687D02*
G01X13454812Y9810699D01*
G01X13579805Y9485706D02*
G01X13579805Y9460687D01*
G01X13579805Y9460687D02*
G01X13954811Y9460687D01*
G01X13954811Y9460687D02*
G01X13954811Y9485706D01*
G01X13766800Y8394700D02*
G01X13258800Y7886700D01*
G01X13258800Y7886700D02*
G01X13766800Y7378700D01*
G01X13766800Y7378700D02*
G01X14274800Y7886700D01*
G01X14274800Y7886700D02*
G01X13766800Y8394700D01*
G01X13258800Y8394700D02*
G01X13512800Y8394700D01*
G01X13512800Y8394700D02*
G01X13512800Y8902700D01*
G01X13512800Y8902700D02*
G01X13258800Y8902700D01*
G01X13258800Y8902700D02*
G01X13258800Y8394700D01*
G01X14020800Y8902700D02*
G01X14020800Y8394700D01*
G01X14020800Y8394700D02*
G01X14274800Y8394700D01*
G01X14274800Y8394700D02*
G01X14274800Y8902700D01*
G01X14274800Y8902700D02*
G01X14020800Y8902700D01*

G04 Rect Start*
G54D11*
G01X17520900Y5080000D02*
G01X14820900Y5080000D01*
G01X14820900Y8480000D01*
G01X17520900Y8480000D01*
G01X17520900Y5080000D01*
G01X12593300Y4991100D02*
G01X9893300Y4991100D01*
G01X9893300Y8391100D01*
G01X12593300Y8391100D01*
G01X12593300Y4991100D01*
G04 Rect End*

G04 Circle Start*
G01X6141288Y7264565D02*
G03X7040905Y7264565I449809J0D01*
G03X6141288Y7264565I-449809J0D01*
G01X6184900Y7264413D02*
G03X6997700Y7264413I406400J0D01*
G03X6184900Y7264413I-406400J0D01*
G01X7182688Y8788565D02*
G03X8082305Y8788565I449809J0D01*
G03X7182688Y8788565I-449809J0D01*
G01X7226300Y8788413D02*
G03X8039100Y8788413I406400J0D01*
G03X7226300Y8788413I-406400J0D01*
G01X8414588Y7150265D02*
G03X9314205Y7150265I449809J0D01*
G03X8414588Y7150265I-449809J0D01*
G01X8458200Y7150113D02*
G03X9271000Y7150113I406400J0D01*
G03X8458200Y7150113I-406400J0D01*
G01X7233488Y5651665D02*
G03X8133105Y5651665I449809J0D01*
G03X7233488Y5651665I-449809J0D01*
G01X7277100Y5651513D02*
G03X8089900Y5651513I406400J0D01*
G03X7277100Y5651513I-406400J0D01*
G01X18041188Y7264565D02*
G03X18940805Y7264565I449809J0D01*
G03X18041188Y7264565I-449809J0D01*
G01X18084800Y7264413D02*
G03X18897600Y7264413I406400J0D01*
G03X18084800Y7264413I-406400J0D01*
G01X19222288Y8826665D02*
G03X20121905Y8826665I449809J0D01*
G03X19222288Y8826665I-449809J0D01*
G01X19265900Y8826513D02*
G03X20078700Y8826513I406400J0D01*
G03X19265900Y8826513I-406400J0D01*
G01X19234988Y5816765D02*
G03X20134605Y5816765I449809J0D01*
G03X19234988Y5816765I-449809J0D01*
G01X19278600Y5816613D02*
G03X20091400Y5816613I406400J0D01*
G03X19278600Y5816613I-406400J0D01*
G01X20352588Y7289965D02*
G03X21252205Y7289965I449809J0D01*
G03X20352588Y7289965I-449809J0D01*
G01X20396200Y7289813D02*
G03X21209000Y7289813I406400J0D01*
G03X20396200Y7289813I-406400J0D01*
G01X15273503Y6780000D02*
G03X17068297Y6780000I897397J0D01*
G03X15273503Y6780000I-897397J0D01*
G01X15596585Y6780000D02*
G03X16745215Y6780000I574315J0D01*
G03X15596585Y6780000I-574315J0D01*
G01X10345903Y6691100D02*
G03X12140697Y6691100I897397J0D01*
G03X10345903Y6691100I-897397J0D01*
G01X10668985Y6691100D02*
G03X11817615Y6691100I574315J0D01*
G03X10668985Y6691100I-574315J0D01*
G04 Circle End*

M02*

