G04 Layer: TopLayer*
G04 EasyEDA Pro v2.2.46.11, 2026-04-11 17:16:17*
G04 Gerber Generator version 0.3*
G04 Scale: 100 percent, Rotated: No, Reflected: No*
G04 Dimensions in millimeters*
G04 Leading zeros omitted, absolute positions, 4 integers and 5 decimals*
G04 Generated by one-click*
%FSLAX45Y45*%
%MOMM*%
%ADD10C,2.49999*%
%ADD11C,2.0*%
%ADD12C,1.524*%
%ADD13C,7.0*%
%ADD14C,0.61*%
%ADD15C,0.2544*%
%ADD16C,0.254*%
G75*


G04 Image Start*
G36*
G01X11033418Y8679074D02*
G01X11005309Y8677400D01*
G01X10982821Y8677798D01*
G01X10960333Y8678197D01*
G01X10948035Y8679351D01*
G01X10935738Y8680505D01*
G01X10922737Y8682283D01*
G01X10909736Y8684060D01*
G01X10903763Y8685151D01*
G01X10897790Y8686242D01*
G01X10887688Y8688397D01*
G01X10877586Y8690552D01*
G01X10866254Y8693385D01*
G01X10854922Y8696217D01*
G01X10844381Y8699371D01*
G01X10833840Y8702525D01*
G01X10824654Y8705724D01*
G01X10815469Y8708923D01*
G01X10805680Y8712817D01*
G01X10795892Y8716712D01*
G01X10785000Y8721522D01*
G01X10774107Y8726332D01*
G01X10763566Y8731685D01*
G01X10753025Y8737039D01*
G01X10745295Y8741337D01*
G01X10737565Y8745636D01*
G01X10724915Y8753519D01*
G01X10712266Y8761401D01*
G01X10704184Y8767137D01*
G01X10696103Y8772874D01*
G01X10688021Y8778972D01*
G01X10679940Y8785071D01*
G01X10672561Y8791103D01*
G01X10665182Y8797136D01*
G01X10658155Y8803607D01*
G01X10651128Y8810078D01*
G01X10643217Y8817515D01*
G01X10635306Y8824953D01*
G01X10623801Y8837519D01*
G01X10612296Y8850084D01*
G01X10606912Y8856494D01*
G01X10601527Y8862904D01*
G01X10596022Y8870065D01*
G01X10590518Y8877227D01*
G01X10583596Y8886869D01*
G01X10576674Y8896512D01*
G01X10561672Y8920169D01*
G01X10555229Y8931554D01*
G01X10548786Y8942939D01*
G01X10541526Y8957939D01*
G01X10534267Y8972938D01*
G01X10529020Y8985438D01*
G01X10523772Y8997937D01*
G01X10519879Y9008652D01*
G01X10515986Y9019365D01*
G01X10512810Y9029722D01*
G01X10509635Y9040079D01*
G01X10507486Y9047936D01*
G01X10505338Y9055793D01*
G01X10502197Y9069792D01*
G01X10499056Y9083792D01*
G01X10494118Y9114363D01*
G01X10492136Y9132219D01*
G01X10568541Y9132219D01*
G01X10569280Y9119363D01*
G01X10570020Y9106506D01*
G01X10571068Y9099006D01*
G01X10572116Y9091506D01*
G01X10573915Y9084006D01*
G01X10575715Y9076507D01*
G01X10578436Y9070568D01*
G01X10581157Y9064628D01*
G01X10584769Y9060014D01*
G01X10588382Y9055400D01*
G01X10592699Y9052291D01*
G01X10597017Y9049181D01*
G01X10599942Y9047683D01*
G01X10602867Y9046185D01*
G01X10607654Y9044354D01*
G01X10612441Y9042522D01*
G01X10620892Y9040806D01*
G01X10629343Y9039090D01*
G01X10648317Y9036913D01*
G01X10666588Y9036172D01*
G01X10684859Y9035431D01*
G01X10684859Y9035431D01*
G01X10744241Y9034716D01*
G01X10803622Y9034001D01*
G01X10843327Y9034001D01*
G01X10883032Y9034001D01*
G01X10893924Y9034738D01*
G01X10904817Y9035474D01*
G01X10923088Y9038228D01*
G01X10929413Y9040050D01*
G01X10935738Y9041872D01*
G01X10942414Y9045245D01*
G01X10949090Y9048617D01*
G01X10959154Y9058810D01*
G01X10962391Y9065573D01*
G01X10965628Y9072336D01*
G01X10967048Y9077548D01*
G01X10968469Y9082759D01*
G01X10969841Y9090917D01*
G01X10971214Y9099074D01*
G01X10971733Y9108649D01*
G01X11030073Y9108649D01*
G01X11031672Y9088433D01*
G01X11033353Y9081700D01*
G01X11035033Y9074967D01*
G01X11037309Y9070380D01*
G01X11039585Y9065793D01*
G01X11042618Y9061784D01*
G01X11045650Y9057775D01*
G01X11045650Y9057775D01*
G01X11055346Y9048407D01*
G01X11065042Y9039039D01*
G01X11395241Y9039365D01*
G01X11398457Y9052222D01*
G01X11399152Y9057707D01*
G01X11399846Y9063192D01*
G01X11398514Y9075078D01*
G01X11396352Y9081853D01*
G01X11394189Y9088629D01*
G01X11392013Y9092567D01*
G01X11389837Y9096506D01*
G01X11386361Y9101337D01*
G01X11382885Y9106167D01*
G01X11379124Y9109575D01*
G01X11375362Y9112982D01*
G01X11364137Y9119769D01*
G01X11360138Y9121168D01*
G01X11356137Y9122566D01*
G01X11350084Y9123609D01*
G01X11344030Y9124651D01*
G01X11337354Y9125375D01*
G01X11330678Y9126100D01*
G01X11302568Y9127600D01*
G01X11217422Y9129374D01*
G01X11132275Y9131148D01*
G01X11130748Y9131148D01*
G01X11130717Y9160254D01*
G01X11130685Y9189360D01*
G01X11129466Y9220074D01*
G01X11128615Y9224002D01*
G01X11127764Y9227931D01*
G01X11126485Y9230500D01*
G01X11125207Y9233070D01*
G01X11121811Y9235331D01*
G01X11116471Y9236452D01*
G01X11111131Y9237573D01*
G01X11100735Y9237496D01*
G01X11090340Y9237419D01*
G01X11075334Y9235571D01*
G01X11071670Y9234773D01*
G01X11068006Y9233974D01*
G01X11063358Y9231492D01*
G01X11058711Y9229010D01*
G01X11046632Y9219130D01*
G01X11043292Y9214613D01*
G01X11039951Y9210095D01*
G01X11038356Y9206871D01*
G01X11036761Y9203646D01*
G01X11035644Y9199704D01*
G01X11034528Y9195761D01*
G01X11033458Y9186847D01*
G01X11032388Y9177932D01*
G01X11031673Y9164004D01*
G01X11030958Y9150076D01*
G01X11030516Y9129362D01*
G01X11030073Y9108649D01*
G01X10971733Y9108649D01*
G01X10972894Y9130077D01*
G01X10972040Y9200432D01*
G01X10971185Y9270787D01*
G01X10970746Y9315236D01*
G01X11030256Y9315236D01*
G01X11030256Y9307600D01*
G01X11031431Y9304550D01*
G01X11032605Y9301500D01*
G01X11036663Y9295407D01*
G01X11038323Y9294302D01*
G01X11039983Y9293196D01*
G01X11046130Y9292185D01*
G01X11052276Y9291173D01*
G01X11071308Y9290354D01*
G01X11071308Y9290354D01*
G01X11090340Y9289535D01*
G01X11127586Y9290003D01*
G01X11164831Y9290471D01*
G01X11243187Y9291871D01*
G01X11321542Y9293271D01*
G01X11324002Y9293381D01*
G01X11326461Y9293491D01*
G01X11262512Y9294725D01*
G01X11198563Y9295960D01*
G01X11129518Y9297630D01*
G01X11060474Y9299301D01*
G01X11060474Y9300254D01*
G01X11152357Y9300800D01*
G01X11244241Y9301347D01*
G01X11273053Y9300888D01*
G01X11301865Y9300430D01*
G01X11315569Y9299687D01*
G01X11329272Y9298945D01*
G01X11335408Y9297959D01*
G01X11341544Y9296974D01*
G01X11345330Y9295153D01*
G01X11349116Y9293333D01*
G01X11351856Y9292888D01*
G01X11354595Y9292442D01*
G01X11362634Y9295314D01*
G01X11367036Y9298018D01*
G01X11371437Y9300723D01*
G01X11378961Y9307919D01*
G01X11380364Y9310714D01*
G01X11381767Y9313508D01*
G01X11381278Y9318146D01*
G01X11380790Y9322784D01*
G01X11383924Y9322347D01*
G01X11387057Y9321911D01*
G01X11389788Y9324303D01*
G01X11392519Y9326695D01*
G01X11394892Y9330710D01*
G01X11397266Y9334726D01*
G01X11400600Y9344064D01*
G01X11400600Y9351142D01*
G01X11398213Y9351142D01*
G01X11393537Y9347953D01*
G01X11388862Y9344764D01*
G01X11385666Y9343895D01*
G01X11382470Y9343027D01*
G01X11380643Y9344244D01*
G01X11378816Y9345461D01*
G01X11378816Y9349779D01*
G01X11380993Y9350996D01*
G01X11383170Y9352213D01*
G01X11384946Y9353585D01*
G01X11386722Y9354958D01*
G01X11388024Y9357871D01*
G01X11389326Y9360784D01*
G01X11389341Y9361964D01*
G01X11389357Y9363144D01*
G01X11387073Y9363955D01*
G01X11384789Y9364765D01*
G01X11376005Y9365811D01*
G01X11367220Y9366857D01*
G01X11350003Y9367911D01*
G01X11332786Y9368965D01*
G01X11308541Y9369693D01*
G01X11284297Y9370422D01*
G01X11227726Y9370274D01*
G01X11171156Y9370126D01*
G01X11163777Y9369950D01*
G01X11156398Y9369774D01*
G01X11135316Y9369001D01*
G01X11114234Y9368227D01*
G01X11086827Y9366112D01*
G01X11079987Y9365076D01*
G01X11073147Y9364040D01*
G01X11070293Y9362559D01*
G01X11067438Y9361080D01*
G01X11064622Y9358494D01*
G01X11061806Y9355908D01*
G01X11061091Y9354550D01*
G01X11060377Y9353193D01*
G01X11061188Y9352199D01*
G01X11062001Y9351204D01*
G01X11061547Y9350459D01*
G01X11061094Y9349713D01*
G01X11053401Y9349713D01*
G01X11050923Y9348661D01*
G01X11048445Y9347608D01*
G01X11046600Y9346133D01*
G01X11044755Y9344658D01*
G01X11043077Y9342148D01*
G01X11041399Y9339638D01*
G01X11038689Y9331633D01*
G01X11038689Y9328369D01*
G01X11039407Y9327918D01*
G01X11040126Y9327467D01*
G01X11047173Y9329846D01*
G01X11048275Y9328916D01*
G01X11049378Y9327986D01*
G01X11048953Y9323671D01*
G01X11048529Y9319357D01*
G01X11048089Y9314260D01*
G01X11047650Y9309162D01*
G01X11049524Y9305688D01*
G01X11051397Y9302215D01*
G01X11054179Y9300204D01*
G01X11056960Y9298193D01*
G01X11056960Y9296858D01*
G01X11052920Y9296873D01*
G01X11048879Y9296889D01*
G01X11043199Y9299511D01*
G01X11041295Y9301811D01*
G01X11039391Y9304110D01*
G01X11039079Y9305662D01*
G01X11038767Y9307214D01*
G01X11038496Y9310792D01*
G01X11038225Y9314370D01*
G01X11037221Y9316507D01*
G01X11036216Y9318643D01*
G01X11033229Y9319078D01*
G01X11031743Y9317157D01*
G01X11030256Y9315236D01*
G01X10970746Y9315236D01*
G01X10970739Y9315968D01*
G01X10970293Y9361149D01*
G01X10967773Y9361819D01*
G01X10965253Y9362489D01*
G01X10957171Y9364676D01*
G01X10949090Y9366863D01*
G01X10943468Y9367300D01*
G01X10937846Y9367736D01*
G01X10931170Y9366916D01*
G01X10924494Y9366096D01*
G01X10911277Y9362465D01*
G01X10899134Y9357144D01*
G01X10894015Y9353653D01*
G01X10888896Y9350162D01*
G01X10879959Y9340352D01*
G01X10878539Y9337354D01*
G01X10877119Y9334356D01*
G01X10876032Y9330089D01*
G01X10874945Y9325821D01*
G01X10873914Y9315803D01*
G01X10872882Y9305786D01*
G01X10872180Y9281144D01*
G01X10871478Y9256502D01*
G01X10870749Y9202217D01*
G01X10870021Y9147933D01*
G01X10869600Y9137509D01*
G01X10869180Y9127085D01*
G01X10843077Y9126616D01*
G01X10816974Y9126147D01*
G01X10766728Y9125455D01*
G01X10716482Y9124762D01*
G01X10675659Y9124009D01*
G01X10674437Y9183113D01*
G01X10673216Y9242216D01*
G01X10671849Y9286501D01*
G01X10671135Y9296858D01*
G01X10670420Y9307214D01*
G01X10669353Y9315428D01*
G01X10668285Y9323643D01*
G01X10666550Y9330343D01*
G01X10664815Y9337043D01*
G01X10662600Y9341267D01*
G01X10660386Y9345491D01*
G01X10657613Y9348693D01*
G01X10654839Y9351895D01*
G01X10650509Y9355036D01*
G01X10646179Y9358176D01*
G01X10642498Y9359651D01*
G01X10638816Y9361126D01*
G01X10623018Y9365391D01*
G01X10603341Y9368871D01*
G01X10597017Y9369253D01*
G01X10590692Y9369635D01*
G01X10587590Y9368977D01*
G01X10584488Y9368318D01*
G01X10579174Y9364745D01*
G01X10577401Y9361670D01*
G01X10575628Y9358595D01*
G01X10574576Y9355563D01*
G01X10573524Y9352532D01*
G01X10571452Y9342213D01*
G01X10569937Y9327928D01*
G01X10569259Y9311857D01*
G01X10568583Y9295786D01*
G01X10568562Y9214003D01*
G01X10568541Y9132219D01*
G01X10492136Y9132219D01*
G01X10491977Y9133648D01*
G01X10491139Y9144362D01*
G01X10490300Y9155076D01*
G01X10490250Y9180075D01*
G01X10490200Y9205074D01*
G01X10491097Y9215431D01*
G01X10491994Y9225788D01*
G01X10494144Y9245788D01*
G01X10498957Y9275072D01*
G01X10500344Y9281501D01*
G01X10501732Y9287929D01*
G01X10503825Y9296858D01*
G01X10505918Y9305786D01*
G01X10509161Y9317214D01*
G01X10512405Y9328642D01*
G01X10518141Y9345785D01*
G01X10521135Y9353999D01*
G01X10524128Y9362213D01*
G01X10529441Y9374827D01*
G01X10534754Y9387442D01*
G01X10541192Y9400541D01*
G01X10547630Y9413640D01*
G01X10553277Y9423945D01*
G01X10558925Y9434251D01*
G01X10572227Y9455782D01*
G01X10579666Y9466495D01*
G01X10587104Y9477210D01*
G01X10602538Y9497209D01*
G01X10609264Y9505038D01*
G01X10615991Y9512867D01*
G01X10626023Y9523609D01*
G01X10636055Y9534351D01*
G01X10644997Y9542819D01*
G01X10653939Y9551288D01*
G01X10664480Y9560382D01*
G01X10675021Y9569475D01*
G01X10685913Y9577655D01*
G01X10696806Y9585835D01*
G01X10715077Y9598488D01*
G01X10725969Y9605282D01*
G01X10736862Y9612077D01*
G01X10749863Y9619168D01*
G01X10762863Y9626258D01*
G01X10776215Y9632552D01*
G01X10789567Y9638847D01*
G01X10800081Y9643265D01*
G01X10810594Y9647683D01*
G01X10822920Y9652153D01*
G01X10835246Y9656622D01*
G01X10847895Y9660627D01*
G01X10860544Y9664632D01*
G01X10877530Y9668918D01*
G01X10894516Y9673204D01*
G01X10902126Y9674259D01*
G01X10909736Y9675314D01*
G01X10928007Y9676866D01*
G01X10931170Y9677133D01*
G01X10934332Y9677400D01*
G01X10986335Y9677165D01*
G01X11038338Y9676930D01*
G01X11049230Y9676196D01*
G01X11060123Y9675462D01*
G01X11068907Y9674681D01*
G01X11077691Y9673900D01*
G01X11088584Y9672207D01*
G01X11099476Y9670514D01*
G01X11111774Y9667307D01*
G01X11124072Y9664100D01*
G01X11139181Y9658967D01*
G01X11154290Y9653833D01*
G01X11163777Y9650260D01*
G01X11173264Y9646687D01*
G01X11202687Y9633900D01*
G01X11215382Y9627574D01*
G01X11228078Y9621248D01*
G01X11247754Y9610262D01*
G01X11255485Y9605581D01*
G01X11263215Y9600900D01*
G01X11277269Y9591290D01*
G01X11291324Y9581679D01*
G01X11299054Y9575772D01*
G01X11306785Y9569864D01*
G01X11316422Y9561691D01*
G01X11326059Y9553518D01*
G01X11337153Y9543109D01*
G01X11348246Y9532700D01*
G01X11356035Y9524240D01*
G01X11363824Y9515780D01*
G01X11369738Y9508994D01*
G01X11375653Y9502209D01*
G01X11381693Y9494709D01*
G01X11387733Y9487209D01*
G01X11394269Y9478281D01*
G01X11400804Y9469353D01*
G01X11406295Y9461025D01*
G01X11411787Y9452697D01*
G01X11418032Y9442454D01*
G01X11424277Y9432211D01*
G01X11429965Y9421752D01*
G01X11435652Y9411292D01*
G01X11444362Y9393641D01*
G01X11448548Y9384355D01*
G01X11452735Y9375070D01*
G01X11458571Y9360070D01*
G01X11464407Y9345070D01*
G01X11468290Y9333971D01*
G01X11472173Y9322872D01*
G01X11479253Y9299357D01*
G01X11481379Y9290429D01*
G01X11483504Y9281501D01*
G01X11484909Y9273102D01*
G01X11486313Y9264704D01*
G01X11487354Y9253817D01*
G01X11488394Y9242930D01*
G01X11489269Y9229717D01*
G01X11490143Y9216503D01*
G01X11490200Y9143647D01*
G01X11489279Y9132219D01*
G01X11488358Y9120791D01*
G01X11486625Y9106863D01*
G01X11484893Y9092935D01*
G01X11483461Y9084364D01*
G01X11482029Y9075792D01*
G01X11479944Y9065793D01*
G01X11477859Y9055793D01*
G01X11474742Y9043650D01*
G01X11471624Y9031508D01*
G01X11467135Y9017937D01*
G01X11462646Y9004366D01*
G01X11458616Y8994009D01*
G01X11454586Y8983652D01*
G01X11445221Y8964367D01*
G01X11435856Y8945082D01*
G01X11429259Y8934011D01*
G01X11422663Y8922940D01*
G01X11415599Y8912226D01*
G01X11408536Y8901512D01*
G01X11402051Y8892678D01*
G01X11395565Y8883845D01*
G01X11387726Y8874107D01*
G01X11379888Y8864370D01*
G01X11371446Y8854730D01*
G01X11363004Y8845090D01*
G01X11337899Y8819048D01*
G01X11316623Y8799123D01*
G01X11307839Y8791800D01*
G01X11299054Y8784477D01*
G01X11289216Y8776995D01*
G01X11279378Y8769513D01*
G01X11255485Y8753483D01*
G01X11243889Y8746567D01*
G01X11232294Y8739652D01*
G01X11215780Y8731255D01*
G01X11199265Y8722858D01*
G01X11188724Y8718337D01*
G01X11178183Y8713816D01*
G01X11167353Y8709604D01*
G01X11156523Y8705393D01*
G01X11132126Y8697581D01*
G01X11118612Y8694026D01*
G01X11105098Y8690471D01*
G01X11095126Y8688324D01*
G01X11085154Y8686177D01*
G01X11064339Y8682603D01*
G01X11048879Y8680839D01*
G01X11033418Y8679074D01*
G37*
G04 Image End*

G04 Text Start*
G36*
G01X14816609Y9284177D02*
G01X14812745Y9285200D01*
G01X14812745Y9287927D01*
G01X14814109Y9291109D01*
G01X14815473Y9294745D01*
G01X14819109Y9304745D01*
G01X14820473Y9308836D01*
G01X14827291Y9327018D01*
G01X14830018Y9335200D01*
G01X14838200Y9357018D01*
G01X14840927Y9365200D01*
G01X14843995Y9373382D01*
G01X14872291Y9373382D01*
G01X14872291Y9370655D01*
G01X14910018Y9370200D01*
G01X14937859Y9370427D01*
G01X14946836Y9371109D01*
G01X14945927Y9374291D01*
G01X14944564Y9377927D01*
G01X14941836Y9386109D01*
G01X14939109Y9393382D01*
G01X14936382Y9401564D01*
G01X14933654Y9408836D01*
G01X14930927Y9417018D01*
G01X14926836Y9427927D01*
G01X14924109Y9436109D01*
G01X14922745Y9439745D01*
G01X14921382Y9442927D01*
G01X14920018Y9447018D01*
G01X14918200Y9452018D01*
G01X14914564Y9462927D01*
G01X14912745Y9467473D01*
G01X14911382Y9471563D01*
G01X14909564Y9474291D01*
G01X14908427Y9473950D01*
G01X14907745Y9472018D01*
G01X14906382Y9467927D01*
G01X14902291Y9457018D01*
G01X14900927Y9452927D01*
G01X14898200Y9445654D01*
G01X14895473Y9437473D01*
G01X14890018Y9422927D01*
G01X14887291Y9414745D01*
G01X14884564Y9407473D01*
G01X14882745Y9402927D01*
G01X14881382Y9398836D01*
G01X14878655Y9391564D01*
G01X14877745Y9388382D01*
G01X14873655Y9377473D01*
G01X14872291Y9373382D01*
G01X14872291Y9373382D01*
G01X14843995Y9373382D01*
G01X14847746Y9383382D01*
G01X14850473Y9391564D01*
G01X14851836Y9395200D01*
G01X14853655Y9399745D01*
G01X14855473Y9404745D01*
G01X14856836Y9408836D01*
G01X14863655Y9427018D01*
G01X14865018Y9431109D01*
G01X14867745Y9438382D01*
G01X14869109Y9442473D01*
G01X14874564Y9457018D01*
G01X14875927Y9461109D01*
G01X14878655Y9468382D01*
G01X14880018Y9472473D01*
G01X14884109Y9483382D01*
G01X14886836Y9491563D01*
G01X14888200Y9495200D01*
G01X14889564Y9498382D01*
G01X14891382Y9501564D01*
G01X14896723Y9502586D01*
G01X14910018Y9502927D01*
G01X14928654Y9502018D01*
G01X14930927Y9499745D01*
G01X14932291Y9496109D01*
G01X14935018Y9487927D01*
G01X14940473Y9473382D01*
G01X14941836Y9469291D01*
G01X14944564Y9462018D01*
G01X14945927Y9457927D01*
G01X14951382Y9443382D01*
G01X14952745Y9439291D01*
G01X14955473Y9432018D01*
G01X14957291Y9427018D01*
G01X14959109Y9422473D01*
G01X14961836Y9414291D01*
G01X14968655Y9396109D01*
G01X14971382Y9387927D01*
G01X14976836Y9373382D01*
G01X14978200Y9369291D01*
G01X14980927Y9362018D01*
G01X14984564Y9352018D01*
G01X14985927Y9347927D01*
G01X14987291Y9344745D01*
G01X14988655Y9341109D01*
G01X14990018Y9337018D01*
G01X14995473Y9322473D01*
G01X14996836Y9318382D01*
G01X14999564Y9311109D01*
G01X15000927Y9307018D01*
G01X15005018Y9296109D01*
G01X15007745Y9287927D01*
G01X15007745Y9284745D01*
G01X14996382Y9283836D01*
G01X14981382Y9284291D01*
G01X14978200Y9285200D01*
G01X14976836Y9287018D01*
G01X14975473Y9290655D01*
G01X14972746Y9298836D01*
G01X14970018Y9306109D01*
G01X14964564Y9322473D01*
G01X14961836Y9329745D01*
G01X14957745Y9342018D01*
G01X14957291Y9344745D01*
G01X14910018Y9344745D01*
G01X14862291Y9343836D01*
G01X14860927Y9341563D01*
G01X14855473Y9325200D01*
G01X14852746Y9317927D01*
G01X14850018Y9309745D01*
G01X14845927Y9298836D01*
G01X14844564Y9294291D01*
G01X14842746Y9289291D01*
G01X14840473Y9285200D01*
G01X14836268Y9284177D01*
G01X14826382Y9283836D01*
G01X14816609Y9284177D01*
G37*
G36*
G01X15028200Y9366564D02*
G01X15028200Y9392927D01*
G01X15119109Y9392927D01*
G01X15119109Y9366564D01*
G01X15028200Y9366564D01*
G37*
G36*
G01X18735926Y9280200D02*
G01X18729562Y9280655D01*
G01X18725926Y9281109D01*
G01X18720472Y9281564D01*
G01X18714108Y9282473D01*
G01X18708199Y9283836D01*
G01X18700017Y9286564D01*
G01X18696381Y9287927D01*
G01X18693199Y9289291D01*
G01X18689563Y9291109D01*
G01X18683199Y9294745D01*
G01X18680017Y9297018D01*
G01X18674562Y9301564D01*
G01X18669108Y9307018D01*
G01X18665471Y9311564D01*
G01X18662744Y9315654D01*
G01X18660471Y9319291D01*
G01X18658653Y9322927D01*
G01X18657290Y9326109D01*
G01X18655926Y9329745D01*
G01X18653199Y9337927D01*
G01X18652290Y9341563D01*
G01X18651381Y9347927D01*
G01X18650926Y9353382D01*
G01X18650471Y9361564D01*
G01X18650471Y9367018D01*
G01X18651381Y9380655D01*
G01X18652593Y9387927D01*
G01X18679108Y9387927D01*
G01X18679562Y9385200D01*
G01X18725926Y9384746D01*
G01X18771835Y9384746D01*
G01X18771835Y9387473D01*
G01X18771381Y9392473D01*
G01X18769562Y9401564D01*
G01X18768199Y9405200D01*
G01X18766381Y9408836D01*
G01X18764562Y9412927D01*
G01X18761835Y9417018D01*
G01X18757744Y9421109D01*
G01X18753199Y9424291D01*
G01X18748199Y9426564D01*
G01X18744108Y9427927D01*
G01X18736835Y9428836D01*
G01X18729562Y9429291D01*
G01X18722290Y9428836D01*
G01X18718653Y9428382D01*
G01X18713199Y9427473D01*
G01X18708653Y9426109D01*
G01X18705017Y9424745D01*
G01X18700926Y9422473D01*
G01X18697744Y9420655D01*
G01X18695472Y9418836D01*
G01X18690926Y9414291D01*
G01X18689108Y9412018D01*
G01X18686835Y9408836D01*
G01X18684562Y9405200D01*
G01X18682744Y9401109D01*
G01X18679562Y9391564D01*
G01X18679108Y9387927D01*
G01X18679108Y9387927D01*
G01X18652593Y9387927D01*
G01X18653199Y9391564D01*
G01X18654108Y9395200D01*
G01X18656835Y9403382D01*
G01X18658199Y9407018D01*
G01X18662290Y9415200D01*
G01X18664562Y9418836D01*
G01X18670017Y9426109D01*
G01X18672290Y9428382D01*
G01X18674562Y9431109D01*
G01X18677290Y9433836D01*
G01X18680017Y9436109D01*
G01X18683199Y9438836D01*
G01X18692290Y9444291D01*
G01X18697290Y9446564D01*
G01X18701835Y9448382D01*
G01X18705472Y9449745D01*
G01X18708653Y9450654D01*
G01X18715017Y9451564D01*
G01X18727290Y9452927D01*
G01X18734108Y9452473D01*
G01X18742290Y9451564D01*
G01X18748653Y9450654D01*
G01X18755926Y9448836D01*
G01X18759562Y9447473D01*
G01X18762744Y9446109D01*
G01X18766835Y9444291D01*
G01X18770926Y9441564D01*
G01X18774562Y9439291D01*
G01X18777290Y9437018D01*
G01X18782744Y9431564D01*
G01X18785471Y9427927D01*
G01X18787290Y9425655D01*
G01X18789108Y9422473D01*
G01X18790926Y9418836D01*
G01X18793653Y9412473D01*
G01X18795471Y9407927D01*
G01X18796835Y9403382D01*
G01X18797744Y9397018D01*
G01X18798653Y9389746D01*
G01X18800017Y9374745D01*
G01X18799562Y9367018D01*
G01X18799108Y9362927D01*
G01X18678199Y9362927D01*
G01X18678653Y9360200D01*
G01X18679562Y9353382D01*
G01X18680472Y9347927D01*
G01X18681381Y9343836D01*
G01X18682744Y9338382D01*
G01X18684562Y9334291D01*
G01X18686381Y9330654D01*
G01X18688653Y9326564D01*
G01X18690926Y9323382D01*
G01X18698653Y9315654D01*
G01X18702744Y9312927D01*
G01X18705926Y9311109D01*
G01X18709563Y9309291D01*
G01X18715017Y9307473D01*
G01X18719563Y9306109D01*
G01X18726835Y9305200D01*
G01X18734562Y9304745D01*
G01X18745017Y9305200D01*
G01X18751381Y9306109D01*
G01X18755017Y9307018D01*
G01X18759562Y9307927D01*
G01X18764108Y9309291D01*
G01X18771381Y9312018D01*
G01X18777744Y9314745D01*
G01X18781381Y9316564D01*
G01X18789562Y9321109D01*
G01X18792744Y9323382D01*
G01X18793767Y9324291D01*
G01X18795017Y9324291D01*
G01X18796040Y9320768D01*
G01X18796380Y9311109D01*
G01X18795926Y9296109D01*
G01X18795131Y9294291D01*
G01X18793653Y9293382D01*
G01X18790017Y9292018D01*
G01X18785926Y9290200D01*
G01X18780926Y9288382D01*
G01X18776835Y9287018D01*
G01X18772744Y9286109D01*
G01X18768199Y9284745D01*
G01X18764562Y9283382D01*
G01X18761381Y9282473D01*
G01X18755017Y9281564D01*
G01X18743199Y9280655D01*
G01X18735926Y9280200D01*
G37*
G36*
G01X18854562Y9283836D02*
G01X18841381Y9284291D01*
G01X18840926Y9364291D01*
G01X18841381Y9446109D01*
G01X18841835Y9448382D01*
G01X18852744Y9448382D01*
G01X18865926Y9447927D01*
G01X18868199Y9447473D01*
G01X18868199Y9425655D01*
G01X18870017Y9426109D01*
G01X18874108Y9428382D01*
G01X18877744Y9431109D01*
G01X18880926Y9433382D01*
G01X18884562Y9435654D01*
G01X18888653Y9437927D01*
G01X18892290Y9440200D01*
G01X18895926Y9442018D01*
G01X18900017Y9443836D01*
G01X18904108Y9445200D01*
G01X18909562Y9446564D01*
G01X18914108Y9447927D01*
G01X18923199Y9448382D01*
G01X18933199Y9447927D01*
G01X18936835Y9447018D01*
G01X18940471Y9446564D01*
G01X18942744Y9446564D01*
G01X18942744Y9417473D01*
G01X18940017Y9417927D01*
G01X18935926Y9418836D01*
G01X18926835Y9419745D01*
G01X18920017Y9420200D01*
G01X18910471Y9419745D01*
G01X18905017Y9418836D01*
G01X18900926Y9417927D01*
G01X18895471Y9416564D01*
G01X18891381Y9414745D01*
G01X18887744Y9412927D01*
G01X18878199Y9407473D01*
G01X18871835Y9402927D01*
G01X18869562Y9401109D01*
G01X18868540Y9386450D01*
G01X18868199Y9344291D01*
G01X18867744Y9286109D01*
G01X18867290Y9283836D01*
G01X18854562Y9283836D01*
G37*
G36*
G01X15184109Y9283836D02*
G01X15170927Y9284291D01*
G01X15170018Y9354745D01*
G01X15170018Y9424745D01*
G01X15151836Y9424745D01*
G01X15151836Y9434291D01*
G01X15152291Y9446109D01*
G01X15152745Y9448382D01*
G01X15170018Y9448382D01*
G01X15170018Y9452473D01*
G01X15170473Y9460654D01*
G01X15171382Y9467018D01*
G01X15172291Y9470654D01*
G01X15172745Y9473836D01*
G01X15173654Y9477927D01*
G01X15175473Y9482473D01*
G01X15177291Y9486563D01*
G01X15179563Y9490654D01*
G01X15181836Y9493836D01*
G01X15183654Y9496563D01*
G01X15186382Y9499291D01*
G01X15189109Y9501564D01*
G01X15191382Y9503836D01*
G01X15193654Y9505654D01*
G01X15196836Y9507473D01*
G01X15200927Y9509291D01*
G01X15204563Y9510654D01*
G01X15207745Y9511564D01*
G01X15216836Y9513382D01*
G01X15229109Y9513836D01*
G01X15242291Y9513382D01*
G01X15245927Y9512473D01*
G01X15249564Y9512018D01*
G01X15254564Y9511109D01*
G01X15257291Y9510200D01*
G01X15257291Y9498836D01*
G01X15256382Y9486563D01*
G01X15254109Y9486109D01*
G01X15250473Y9486563D01*
G01X15246382Y9487473D01*
G01X15242745Y9488382D01*
G01X15239564Y9488836D01*
G01X15231382Y9489291D01*
G01X15223200Y9488836D01*
G01X15220018Y9488382D01*
G01X15216382Y9487473D01*
G01X15212291Y9486109D01*
G01X15209109Y9484745D01*
G01X15206382Y9482927D01*
G01X15204109Y9480654D01*
G01X15202291Y9478382D01*
G01X15200473Y9475200D01*
G01X15199109Y9471109D01*
G01X15198200Y9467473D01*
G01X15197745Y9464291D01*
G01X15197291Y9455654D01*
G01X15197291Y9448382D01*
G01X15246382Y9448382D01*
G01X15246382Y9424745D01*
G01X15198200Y9424745D01*
G01X15198200Y9355654D01*
G01X15197291Y9285200D01*
G01X15193541Y9284177D01*
G01X15184109Y9283836D01*
G37*
G36*
G01X15348200Y9280200D02*
G01X15341382Y9280655D01*
G01X15337745Y9281109D01*
G01X15333200Y9281564D01*
G01X15323654Y9282927D01*
G01X15320018Y9283836D01*
G01X15311836Y9286564D01*
G01X15307291Y9288382D01*
G01X15303654Y9290200D01*
G01X15300473Y9292018D01*
G01X15294109Y9295200D01*
G01X15291836Y9297018D01*
G01X15289564Y9299291D01*
G01X15285018Y9302927D01*
G01X15281836Y9306109D01*
G01X15279109Y9309745D01*
G01X15277291Y9312018D01*
G01X15275473Y9314745D01*
G01X15273654Y9317927D01*
G01X15270018Y9325200D01*
G01X15268655Y9328382D01*
G01X15267291Y9332018D01*
G01X15265927Y9336563D01*
G01X15263200Y9348836D01*
G01X15262745Y9364291D01*
G01X15263200Y9379746D01*
G01X15265018Y9387927D01*
G01X15291382Y9387927D01*
G01X15291382Y9385200D01*
G01X15338200Y9384746D01*
G01X15372859Y9384973D01*
G01X15384109Y9385655D01*
G01X15383654Y9389291D01*
G01X15383200Y9393382D01*
G01X15382291Y9398382D01*
G01X15380927Y9404291D01*
G01X15379109Y9408836D01*
G01X15376382Y9413382D01*
G01X15374109Y9417018D01*
G01X15372291Y9419291D01*
G01X15367745Y9422927D01*
G01X15365018Y9424745D01*
G01X15361382Y9426109D01*
G01X15357291Y9427473D01*
G01X15353200Y9428382D01*
G01X15349563Y9428836D01*
G01X15342291Y9429291D01*
G01X15335018Y9428836D01*
G01X15325473Y9427473D01*
G01X15321836Y9426564D01*
G01X15318200Y9425200D01*
G01X15315018Y9423836D01*
G01X15312291Y9422018D01*
G01X15307745Y9418382D01*
G01X15302291Y9412927D01*
G01X15299564Y9409745D01*
G01X15297291Y9406109D01*
G01X15295473Y9402473D01*
G01X15293654Y9398382D01*
G01X15292291Y9393382D01*
G01X15291382Y9387927D01*
G01X15291382Y9387927D01*
G01X15265018Y9387927D01*
G01X15265927Y9392473D01*
G01X15267291Y9398382D01*
G01X15269109Y9403382D01*
G01X15272745Y9411564D01*
G01X15274564Y9415200D01*
G01X15280018Y9423382D01*
G01X15283654Y9427927D01*
G01X15291382Y9435654D01*
G01X15295018Y9438382D01*
G01X15298654Y9440654D01*
G01X15301836Y9442927D01*
G01X15305018Y9444745D01*
G01X15309109Y9446564D01*
G01X15313200Y9447927D01*
G01X15316836Y9449291D01*
G01X15321836Y9450654D01*
G01X15326836Y9451564D01*
G01X15335018Y9452473D01*
G01X15340472Y9452927D01*
G01X15345927Y9452473D01*
G01X15350018Y9452018D01*
G01X15355018Y9451564D01*
G01X15360472Y9450654D01*
G01X15365018Y9449745D01*
G01X15369109Y9448382D01*
G01X15374109Y9446564D01*
G01X15378200Y9444745D01*
G01X15381836Y9442473D01*
G01X15385018Y9440654D01*
G01X15387291Y9438836D01*
G01X15394109Y9432018D01*
G01X15398654Y9426564D01*
G01X15400927Y9423382D01*
G01X15404109Y9417018D01*
G01X15405473Y9413836D01*
G01X15407291Y9408836D01*
G01X15408654Y9404291D01*
G01X15410473Y9396109D01*
G01X15411382Y9381564D01*
G01X15411836Y9373836D01*
G01X15411382Y9365200D01*
G01X15410927Y9362927D01*
G01X15290927Y9362927D01*
G01X15290927Y9360200D01*
G01X15291382Y9356109D01*
G01X15292291Y9348836D01*
G01X15293200Y9344291D01*
G01X15294564Y9339291D01*
G01X15296382Y9335200D01*
G01X15298200Y9331564D01*
G01X15299564Y9328382D01*
G01X15301382Y9325654D01*
G01X15306836Y9319291D01*
G01X15309109Y9317473D01*
G01X15312291Y9314745D01*
G01X15316836Y9312018D01*
G01X15321382Y9309745D01*
G01X15326836Y9307473D01*
G01X15331382Y9306109D01*
G01X15338654Y9305200D01*
G01X15346836Y9304745D01*
G01X15356836Y9305200D01*
G01X15363200Y9306109D01*
G01X15367745Y9307018D01*
G01X15371836Y9307927D01*
G01X15376382Y9309291D01*
G01X15383654Y9312018D01*
G01X15388200Y9313836D01*
G01X15392745Y9316109D01*
G01X15396836Y9318382D01*
G01X15403200Y9321564D01*
G01X15405473Y9323382D01*
G01X15406495Y9324064D01*
G01X15407745Y9323382D01*
G01X15408768Y9319405D01*
G01X15409109Y9310200D01*
G01X15408200Y9296109D01*
G01X15406836Y9294177D01*
G01X15404564Y9292927D01*
G01X15400018Y9291109D01*
G01X15392745Y9288382D01*
G01X15388654Y9287018D01*
G01X15383654Y9285655D01*
G01X15374109Y9282473D01*
G01X15366836Y9281564D01*
G01X15355927Y9280655D01*
G01X15348200Y9280200D01*
G37*
G36*
G01X15450927Y9283836D02*
G01X15435927Y9284291D01*
G01X15436382Y9286109D01*
G01X15441836Y9293382D01*
G01X15445473Y9297927D01*
G01X15448200Y9301564D01*
G01X15455473Y9310654D01*
G01X15458200Y9314291D01*
G01X15460018Y9316564D01*
G01X15462745Y9319745D01*
G01X15465472Y9323382D01*
G01X15470927Y9330200D01*
G01X15472291Y9332473D01*
G01X15474109Y9334745D01*
G01X15476836Y9337927D01*
G01X15479109Y9341109D01*
G01X15481836Y9344291D01*
G01X15484563Y9347927D01*
G01X15491836Y9357018D01*
G01X15494563Y9360654D01*
G01X15496836Y9364291D01*
G01X15496836Y9367018D01*
G01X15494563Y9370655D01*
G01X15491836Y9374291D01*
G01X15488200Y9378836D01*
G01X15482745Y9386109D01*
G01X15479109Y9390655D01*
G01X15468200Y9405200D01*
G01X15460927Y9414291D01*
G01X15455473Y9421564D01*
G01X15451836Y9426109D01*
G01X15446382Y9433382D01*
G01X15442745Y9437927D01*
G01X15437291Y9445200D01*
G01X15436836Y9447473D01*
G01X15452745Y9448382D01*
G01X15469563Y9447473D01*
G01X15471836Y9445654D01*
G01X15475472Y9441109D01*
G01X15480018Y9434745D01*
G01X15481836Y9432473D01*
G01X15488654Y9422927D01*
G01X15491836Y9418836D01*
G01X15494563Y9415200D01*
G01X15496836Y9412018D01*
G01X15500018Y9407927D01*
G01X15510927Y9393382D01*
G01X15513200Y9389746D01*
G01X15515472Y9387927D01*
G01X15517063Y9387927D01*
G01X15518200Y9388836D01*
G01X15531836Y9407018D01*
G01X15535473Y9411564D01*
G01X15538200Y9415200D01*
G01X15542745Y9421564D01*
G01X15559109Y9443382D01*
G01X15561836Y9446564D01*
G01X15566722Y9447927D01*
G01X15577745Y9448382D01*
G01X15593200Y9447473D01*
G01X15593882Y9446564D01*
G01X15593200Y9445654D01*
G01X15590927Y9443382D01*
G01X15574563Y9422927D01*
G01X15571836Y9419745D01*
G01X15569109Y9416109D01*
G01X15567291Y9413836D01*
G01X15565927Y9411564D01*
G01X15564109Y9409291D01*
G01X15561836Y9407018D01*
G01X15560018Y9404745D01*
G01X15558654Y9402473D01*
G01X15556836Y9400200D01*
G01X15554564Y9397927D01*
G01X15552745Y9395655D01*
G01X15551382Y9393382D01*
G01X15549564Y9391109D01*
G01X15545018Y9385655D01*
G01X15534109Y9372018D01*
G01X15531836Y9369291D01*
G01X15531836Y9366109D01*
G01X15533654Y9363382D01*
G01X15537291Y9358836D01*
G01X15545473Y9347927D01*
G01X15549109Y9343382D01*
G01X15551836Y9339745D01*
G01X15553654Y9337473D01*
G01X15556382Y9334291D01*
G01X15558654Y9330654D01*
G01X15564109Y9323836D01*
G01X15566836Y9320654D01*
G01X15569109Y9317473D01*
G01X15570927Y9315200D01*
G01X15576382Y9307927D01*
G01X15578200Y9305654D01*
G01X15579563Y9303382D01*
G01X15581382Y9301109D01*
G01X15583654Y9298836D01*
G01X15585473Y9296564D01*
G01X15586836Y9294291D01*
G01X15588654Y9292018D01*
G01X15593200Y9286564D01*
G01X15593995Y9285655D01*
G01X15593654Y9284745D01*
G01X15578654Y9283836D01*
G01X15562291Y9284291D01*
G01X15559109Y9285655D01*
G01X15556836Y9288382D01*
G01X15554564Y9291564D01*
G01X15550927Y9296109D01*
G01X15546382Y9302473D01*
G01X15532745Y9320654D01*
G01X15529563Y9325200D01*
G01X15527291Y9328382D01*
G01X15525927Y9330654D01*
G01X15524109Y9332927D01*
G01X15521382Y9336109D01*
G01X15519109Y9339291D01*
G01X15517291Y9342018D01*
G01X15515018Y9344745D01*
G01X15512291Y9344745D01*
G01X15509109Y9341563D01*
G01X15506381Y9337927D01*
G01X15501836Y9331564D01*
G01X15496382Y9324291D01*
G01X15491836Y9317927D01*
G01X15486382Y9310654D01*
G01X15484563Y9308382D01*
G01X15483200Y9306109D01*
G01X15481382Y9303836D01*
G01X15478654Y9300655D01*
G01X15471836Y9291109D01*
G01X15470018Y9288836D01*
G01X15467291Y9285655D01*
G01X15462291Y9284291D01*
G01X15450927Y9283836D01*
G37*
G36*
G01X15752745Y9283836D02*
G01X15739109Y9284291D01*
G01X15738200Y9392927D01*
G01X15738377Y9435200D01*
G01X15767291Y9435200D01*
G01X15767745Y9392473D01*
G01X15772631Y9391450D01*
G01X15772631Y9391450D01*
G01X15786381Y9391109D01*
G01X15807745Y9391564D01*
G01X15814109Y9392473D01*
G01X15818654Y9393382D01*
G01X15822291Y9394291D01*
G01X15825927Y9395655D01*
G01X15829563Y9397473D01*
G01X15832745Y9399291D01*
G01X15835473Y9401109D01*
G01X15838200Y9403382D01*
G01X15840018Y9405655D01*
G01X15842745Y9408836D01*
G01X15845473Y9413382D01*
G01X15847291Y9417018D01*
G01X15848654Y9421109D01*
G01X15849563Y9425200D01*
G01X15850018Y9435654D01*
G01X15849109Y9447927D01*
G01X15847291Y9452927D01*
G01X15845473Y9457018D01*
G01X15843654Y9460200D01*
G01X15841836Y9462473D01*
G01X15836382Y9467927D01*
G01X15833654Y9469745D01*
G01X15830927Y9471109D01*
G01X15827745Y9472473D01*
G01X15819563Y9475200D01*
G01X15815927Y9476109D01*
G01X15771381Y9477018D01*
G01X15768654Y9477018D01*
G01X15767631Y9466336D01*
G01X15767291Y9435200D01*
G01X15738377Y9435200D01*
G01X15738541Y9474291D01*
G01X15739563Y9502018D01*
G01X15772291Y9502927D01*
G01X15805018Y9502473D01*
G01X15815018Y9501564D01*
G01X15818200Y9501109D01*
G01X15822291Y9500654D01*
G01X15825927Y9499745D01*
G01X15834109Y9497927D01*
G01X15837291Y9497018D01*
G01X15840927Y9495654D01*
G01X15849109Y9492018D01*
G01X15853200Y9489745D01*
G01X15857745Y9486563D01*
G01X15861382Y9483836D01*
G01X15868200Y9477018D01*
G01X15870018Y9474745D01*
G01X15873654Y9469291D01*
G01X15875018Y9466563D01*
G01X15876382Y9463382D01*
G01X15879109Y9455200D01*
G01X15880018Y9451109D01*
G01X15880472Y9447018D01*
G01X15880927Y9438382D01*
G01X15880472Y9429745D01*
G01X15879563Y9422473D01*
G01X15878654Y9418382D01*
G01X15877291Y9413836D01*
G01X15875927Y9410200D01*
G01X15874563Y9407018D01*
G01X15872745Y9403382D01*
G01X15870472Y9399291D01*
G01X15868200Y9395655D01*
G01X15865927Y9392927D01*
G01X15855927Y9382927D01*
G01X15851382Y9379746D01*
G01X15847745Y9377473D01*
G01X15841382Y9373836D01*
G01X15835018Y9371109D01*
G01X15831382Y9369745D01*
G01X15827745Y9368836D01*
G01X15821382Y9367018D01*
G01X15818200Y9366564D01*
G01X15813200Y9366109D01*
G01X15808654Y9365200D01*
G01X15790018Y9364745D01*
G01X15771381Y9365200D01*
G01X15768654Y9365200D01*
G01X15767631Y9355086D01*
G01X15767291Y9325654D01*
G01X15766381Y9285200D01*
G01X15762518Y9284177D01*
G01X15752745Y9283836D01*
G37*
G36*
G01X15975927Y9279745D02*
G01X15972291Y9279745D01*
G01X15969563Y9280200D01*
G01X15963200Y9280655D01*
G01X15956836Y9281564D01*
G01X15953200Y9282473D01*
G01X15949109Y9283382D01*
G01X15945018Y9284745D01*
G01X15940927Y9286564D01*
G01X15935927Y9288836D01*
G01X15931836Y9291564D01*
G01X15928200Y9293836D01*
G01X15925472Y9296109D01*
G01X15916381Y9305200D01*
G01X15914563Y9307473D01*
G01X15912291Y9310654D01*
G01X15909563Y9315200D01*
G01X15905472Y9323382D01*
G01X15904109Y9326564D01*
G01X15902745Y9331109D01*
G01X15901381Y9335200D01*
G01X15900927Y9338382D01*
G01X15899109Y9345654D01*
G01X15898654Y9348836D01*
G01X15898200Y9363836D01*
G01X15898293Y9367473D01*
G01X15926381Y9367473D01*
G01X15926836Y9359745D01*
G01X15927745Y9349745D01*
G01X15928654Y9344291D01*
G01X15930018Y9338382D01*
G01X15931381Y9334291D01*
G01X15932745Y9330654D01*
G01X15934563Y9327018D01*
G01X15936836Y9322927D01*
G01X15939109Y9319291D01*
G01X15941381Y9316564D01*
G01X15943654Y9314291D01*
G01X15946836Y9311564D01*
G01X15951381Y9308836D01*
G01X15956381Y9306564D01*
G01X15960472Y9305200D01*
G01X15964563Y9304745D01*
G01X15964563Y9304745D01*
G01X15967745Y9304291D01*
G01X15972745Y9303836D01*
G01X15978654Y9304291D01*
G01X15984109Y9305200D01*
G01X15990472Y9306564D01*
G01X15994563Y9308382D01*
G01X15997291Y9310200D01*
G01X16000018Y9311564D01*
G01X16002745Y9313382D01*
G01X16007291Y9317927D01*
G01X16012745Y9326109D01*
G01X16014109Y9329291D01*
G01X16015472Y9332927D01*
G01X16017291Y9337927D01*
G01X16018654Y9342473D01*
G01X16019563Y9348836D01*
G01X16020018Y9355200D01*
G01X16020472Y9362473D01*
G01X16020472Y9366109D01*
G01X16020018Y9372473D01*
G01X16019563Y9380655D01*
G01X16018654Y9387018D01*
G01X16017291Y9393382D01*
G01X16015472Y9398382D01*
G01X16014109Y9402473D01*
G01X16012291Y9407018D01*
G01X16010018Y9410200D01*
G01X16008200Y9412927D01*
G01X16005927Y9415655D01*
G01X16003654Y9417927D01*
G01X16000472Y9420655D01*
G01X15997291Y9422927D01*
G01X15994563Y9424291D01*
G01X15991382Y9425655D01*
G01X15987291Y9427018D01*
G01X15983200Y9427927D01*
G01X15975927Y9428382D01*
G01X15965927Y9427927D01*
G01X15959109Y9426564D01*
G01X15954109Y9424745D01*
G01X15949563Y9422473D01*
G01X15946381Y9420200D01*
G01X15941836Y9416564D01*
G01X15940018Y9414745D01*
G01X15938200Y9412473D01*
G01X15935927Y9409291D01*
G01X15933654Y9405200D01*
G01X15931836Y9400200D01*
G01X15930018Y9395655D01*
G01X15928654Y9390200D01*
G01X15927745Y9385200D01*
G01X15926836Y9375200D01*
G01X15926381Y9367473D01*
G01X15898293Y9367473D01*
G01X15898654Y9381564D01*
G01X15899563Y9387018D01*
G01X15900472Y9391109D01*
G01X15901836Y9397018D01*
G01X15903200Y9401564D01*
G01X15904563Y9405655D01*
G01X15906381Y9409745D01*
G01X15910018Y9417018D01*
G01X15912291Y9420655D01*
G01X15915018Y9424745D01*
G01X15917290Y9427927D01*
G01X15925927Y9436564D01*
G01X15930472Y9440200D01*
G01X15933200Y9442018D01*
G01X15939563Y9445654D01*
G01X15942745Y9447018D01*
G01X15946381Y9448382D01*
G01X15951381Y9449745D01*
G01X15955927Y9451109D01*
G01X15960018Y9452018D01*
G01X15964109Y9452473D01*
G01X15972291Y9452927D01*
G01X15980472Y9452473D01*
G01X15988654Y9451564D01*
G01X16002291Y9447473D01*
G01X16006836Y9445654D01*
G01X16013200Y9442018D01*
G01X16015927Y9440654D01*
G01X16018200Y9438836D01*
G01X16024563Y9433382D01*
G01X16030018Y9427927D01*
G01X16036381Y9418836D01*
G01X16039109Y9414291D01*
G01X16040927Y9409745D01*
G01X16042745Y9406109D01*
G01X16044109Y9402473D01*
G01X16047745Y9387927D01*
G01X16048654Y9381564D01*
G01X16049109Y9367473D01*
G01X16048654Y9353382D01*
G01X16048200Y9349745D01*
G01X16047290Y9344291D01*
G01X16045018Y9335200D01*
G01X16044109Y9331109D01*
G01X16042745Y9327018D01*
G01X16040927Y9323382D01*
G01X16039109Y9319291D01*
G01X16037745Y9315654D01*
G01X16035927Y9312927D01*
G01X16031381Y9306564D01*
G01X16026836Y9301109D01*
G01X16022291Y9296564D01*
G01X16017745Y9292927D01*
G01X16014563Y9290655D01*
G01X16010927Y9288382D01*
G01X16002745Y9284745D01*
G01X15997745Y9282927D01*
G01X15993200Y9281564D01*
G01X15986836Y9280655D01*
G01X15982291Y9280200D01*
G01X15975927Y9279745D01*
G37*
G36*
G01X16133200Y9283836D02*
G01X16120927Y9284291D01*
G01X16119563Y9287018D01*
G01X16118200Y9291109D01*
G01X16116836Y9296109D01*
G01X16115472Y9301564D01*
G01X16114109Y9305200D01*
G01X16113654Y9308382D01*
G01X16112745Y9312018D01*
G01X16111382Y9316564D01*
G01X16110018Y9322018D01*
G01X16108654Y9326109D01*
G01X16108200Y9329291D01*
G01X16107291Y9332927D01*
G01X16104563Y9342927D01*
G01X16103200Y9347473D01*
G01X16102291Y9351564D01*
G01X16100927Y9356109D01*
G01X16099563Y9361564D01*
G01X16096836Y9371564D01*
G01X16095927Y9375200D01*
G01X16095018Y9379291D01*
G01X16093654Y9384746D01*
G01X16092290Y9388836D01*
G01X16091381Y9392927D01*
G01X16090018Y9397473D01*
G01X16087290Y9408382D01*
G01X16084563Y9418382D01*
G01X16080018Y9436564D01*
G01X16078654Y9440654D01*
G01X16077745Y9444291D01*
G01X16078199Y9447018D01*
G01X16081609Y9448041D01*
G01X16090018Y9448382D01*
G01X16103200Y9447927D01*
G01X16105927Y9446109D01*
G01X16107291Y9442927D01*
G01X16108654Y9437927D01*
G01X16109563Y9433382D01*
G01X16110472Y9430200D01*
G01X16111382Y9426109D01*
G01X16113200Y9418836D01*
G01X16114109Y9414291D01*
G01X16116836Y9403382D01*
G01X16117291Y9400200D01*
G01X16118200Y9397018D01*
G01X16119563Y9392473D01*
G01X16120472Y9387927D01*
G01X16122291Y9380655D01*
G01X16122745Y9377473D01*
G01X16123654Y9374291D01*
G01X16125018Y9368836D01*
G01X16129109Y9351109D01*
G01X16130472Y9345654D01*
G01X16131836Y9339745D01*
G01X16133200Y9334291D01*
G01X16134563Y9327927D01*
G01X16135472Y9325654D01*
G01X16136381Y9325200D01*
G01X16138200Y9328382D01*
G01X16139563Y9332473D01*
G01X16140472Y9336109D01*
G01X16147291Y9356564D01*
G01X16149109Y9361564D01*
G01X16150472Y9366109D01*
G01X16151381Y9369745D01*
G01X16155472Y9382018D01*
G01X16156836Y9385655D01*
G01X16158200Y9390200D01*
G01X16164109Y9407927D01*
G01X16165018Y9411109D01*
G01X16166381Y9415655D01*
G01X16169563Y9425200D01*
G01X16170472Y9428836D01*
G01X16171836Y9432927D01*
G01X16173654Y9437927D01*
G01X16175472Y9443382D01*
G01X16177290Y9447018D01*
G01X16180018Y9448041D01*
G01X16186381Y9448382D01*
G01X16196836Y9447927D01*
G01X16200018Y9446109D01*
G01X16201381Y9442473D01*
G01X16239563Y9327927D01*
G01X16240927Y9325200D01*
G01X16241722Y9325427D01*
G01X16242290Y9327018D01*
G01X16243654Y9332018D01*
G01X16245018Y9336109D01*
G01X16245927Y9341563D01*
G01X16247291Y9347473D01*
G01X16249109Y9356564D01*
G01X16250472Y9361109D01*
G01X16251381Y9366109D01*
G01X16253200Y9373382D01*
G01X16254109Y9377927D01*
G01X16255018Y9381564D01*
G01X16256836Y9389746D01*
G01X16257291Y9392927D01*
G01X16258200Y9396564D01*
G01X16259563Y9401564D01*
G01X16260472Y9406109D01*
G01X16261381Y9409745D01*
G01X16262291Y9414291D01*
G01X16263200Y9417927D01*
G01X16264109Y9422473D01*
G01X16265472Y9428836D01*
G01X16266836Y9433382D01*
G01X16267291Y9436564D01*
G01X16268200Y9441564D01*
G01X16270018Y9446564D01*
G01X16273881Y9447927D01*
G01X16283654Y9448382D01*
G01X16293313Y9447927D01*
G01X16296836Y9446564D01*
G01X16296381Y9443382D01*
G01X16295018Y9438836D01*
G01X16293654Y9432927D01*
G01X16292291Y9428836D01*
G01X16291836Y9425655D01*
G01X16290927Y9422473D01*
G01X16289563Y9417927D01*
G01X16288200Y9412018D01*
G01X16286836Y9407927D01*
G01X16286381Y9404745D01*
G01X16285472Y9401564D01*
G01X16284109Y9397018D01*
G01X16282745Y9391109D01*
G01X16281381Y9387018D01*
G01X16280927Y9383836D01*
G01X16280018Y9380655D01*
G01X16278654Y9376109D01*
G01X16277291Y9370200D01*
G01X16275927Y9366109D01*
G01X16275472Y9362927D01*
G01X16274563Y9359745D01*
G01X16273200Y9355200D01*
G01X16271836Y9349291D01*
G01X16270472Y9345200D01*
G01X16270018Y9342018D01*
G01X16269109Y9338836D01*
G01X16267745Y9334291D01*
G01X16266381Y9328382D01*
G01X16265018Y9324291D01*
G01X16264563Y9321109D01*
G01X16263654Y9317473D01*
G01X16260927Y9307473D01*
G01X16259563Y9302927D01*
G01X16258654Y9298836D01*
G01X16257291Y9294291D01*
G01X16255927Y9288836D01*
G01X16254563Y9285200D01*
G01X16251154Y9284177D01*
G01X16242745Y9283836D01*
G01X16230472Y9284745D01*
G01X16228199Y9287473D01*
G01X16192745Y9393836D01*
G01X16190927Y9398836D01*
G01X16189109Y9404291D01*
G01X16187290Y9407018D01*
G01X16186495Y9406904D01*
G01X16185927Y9405655D01*
G01X16184563Y9402018D01*
G01X16179109Y9385655D01*
G01X16177745Y9381109D01*
G01X16172290Y9364745D01*
G01X16170927Y9360200D01*
G01X16147745Y9290655D01*
G01X16145927Y9286109D01*
G01X16144563Y9283836D01*
G01X16133200Y9283836D01*
G37*
G36*
G01X16410927Y9280200D02*
G01X16404109Y9280655D01*
G01X16401381Y9281109D01*
G01X16395927Y9281564D01*
G01X16389563Y9282473D01*
G01X16385018Y9283382D01*
G01X16370018Y9288382D01*
G01X16366381Y9290200D01*
G01X16363199Y9292018D01*
G01X16359109Y9294291D01*
G01X16355472Y9296564D01*
G01X16347290Y9303382D01*
G01X16345472Y9305654D01*
G01X16342745Y9308836D01*
G01X16339563Y9313382D01*
G01X16336836Y9317473D01*
G01X16334563Y9321564D01*
G01X16330927Y9329745D01*
G01X16329109Y9335200D01*
G01X16327745Y9341563D01*
G01X16326836Y9346109D01*
G01X16325927Y9353382D01*
G01X16325472Y9363836D01*
G01X16325927Y9374291D01*
G01X16326836Y9382473D01*
G01X16327927Y9387927D01*
G01X16354109Y9387927D01*
G01X16354109Y9385200D01*
G01X16399563Y9384746D01*
G01X16445927Y9385200D01*
G01X16446836Y9386336D01*
G01X16446836Y9388836D01*
G01X16445927Y9395200D01*
G01X16444563Y9401564D01*
G01X16442745Y9407018D01*
G01X16440472Y9411564D01*
G01X16438200Y9414745D01*
G01X16436836Y9417018D01*
G01X16434109Y9420200D01*
G01X16430472Y9422927D01*
G01X16427745Y9424745D01*
G01X16424109Y9426109D01*
G01X16420018Y9427473D01*
G01X16415927Y9428382D01*
G01X16412291Y9428836D01*
G01X16406381Y9429291D01*
G01X16397745Y9428836D01*
G01X16391381Y9427927D01*
G01X16386836Y9427018D01*
G01X16382290Y9425655D01*
G01X16378654Y9423836D01*
G01X16375472Y9422018D01*
G01X16372745Y9420200D01*
G01X16369563Y9417473D01*
G01X16364108Y9412018D01*
G01X16361836Y9408836D01*
G01X16358199Y9401564D01*
G01X16356381Y9397473D01*
G01X16355018Y9392927D01*
G01X16354109Y9387927D01*
G01X16354109Y9387927D01*
G01X16327927Y9387927D01*
G01X16329563Y9396109D01*
G01X16330927Y9400655D01*
G01X16332745Y9404745D01*
G01X16334563Y9409745D01*
G01X16336836Y9414291D01*
G01X16339563Y9418382D01*
G01X16341836Y9422018D01*
G01X16344109Y9424745D01*
G01X16347745Y9429291D01*
G01X16353199Y9434745D01*
G01X16356836Y9437473D01*
G01X16360018Y9439745D01*
G01X16363654Y9442018D01*
G01X16366381Y9443836D01*
G01X16369108Y9445200D01*
G01X16372290Y9446564D01*
G01X16379563Y9449291D01*
G01X16384563Y9450654D01*
G01X16389563Y9451564D01*
G01X16398654Y9452473D01*
G01X16402745Y9452927D01*
G01X16409563Y9452473D01*
G01X16417745Y9451564D01*
G01X16424109Y9450654D01*
G01X16427745Y9449745D01*
G01X16430927Y9448836D01*
G01X16434563Y9447473D01*
G01X16439109Y9445654D01*
G01X16444109Y9442927D01*
G01X16447745Y9440654D01*
G01X16450018Y9438836D01*
G01X16460018Y9428836D01*
G01X16462745Y9424745D01*
G01X16465018Y9421109D01*
G01X16466836Y9417473D01*
G01X16469563Y9410200D01*
G01X16470927Y9406109D01*
G01X16472290Y9402473D01*
G01X16473199Y9396109D01*
G01X16474109Y9383382D01*
G01X16474563Y9374745D01*
G01X16474109Y9365200D01*
G01X16473654Y9362927D01*
G01X16414109Y9362927D01*
G01X16369336Y9362586D01*
G01X16354109Y9361564D01*
G01X16354109Y9357018D01*
G01X16355018Y9349745D01*
G01X16356381Y9342927D01*
G01X16358199Y9337927D01*
G01X16360018Y9333382D01*
G01X16363199Y9327018D01*
G01X16365018Y9324745D01*
G01X16369563Y9319291D01*
G01X16374109Y9315654D01*
G01X16377290Y9313382D01*
G01X16381381Y9311109D01*
G01X16385018Y9309291D01*
G01X16389563Y9307473D01*
G01X16394109Y9306109D01*
G01X16401381Y9305200D01*
G01X16409563Y9304745D01*
G01X16419563Y9305200D01*
G01X16425927Y9306109D01*
G01X16435018Y9307927D01*
G01X16439563Y9309291D01*
G01X16443654Y9311109D01*
G01X16448654Y9312927D01*
G01X16453200Y9314745D01*
G01X16459563Y9318382D01*
G01X16465927Y9321564D01*
G01X16469222Y9324177D01*
G01X16470472Y9323836D01*
G01X16471495Y9319859D01*
G01X16471836Y9309745D01*
G01X16470927Y9295200D01*
G01X16467290Y9292927D01*
G01X16458199Y9289291D01*
G01X16452745Y9287473D01*
G01X16440927Y9283836D01*
G01X16436836Y9282473D01*
G01X16429563Y9281564D01*
G01X16418654Y9280655D01*
G01X16410927Y9280200D01*
G37*
G36*
G01X16530018Y9283836D02*
G01X16516381Y9284291D01*
G01X16515472Y9365200D01*
G01X16516381Y9447018D01*
G01X16519563Y9448041D01*
G01X16527290Y9448382D01*
G01X16540472Y9447927D01*
G01X16543654Y9447473D01*
G01X16543654Y9425655D01*
G01X16545472Y9426109D01*
G01X16548200Y9427473D01*
G01X16550472Y9428836D01*
G01X16552745Y9430654D01*
G01X16555927Y9433382D01*
G01X16559563Y9435654D01*
G01X16562745Y9437473D01*
G01X16566381Y9439745D01*
G01X16570018Y9441564D01*
G01X16573200Y9442927D01*
G01X16576836Y9444291D01*
G01X16580927Y9445654D01*
G01X16588199Y9447473D01*
G01X16597745Y9448382D01*
G01X16608654Y9447927D01*
G01X16615018Y9446564D01*
G01X16618199Y9445654D01*
G01X16618199Y9433836D01*
G01X16617745Y9419745D01*
G01X16616836Y9418154D01*
G01X16615018Y9417927D01*
G01X16611381Y9418836D01*
G01X16602290Y9419745D01*
G01X16594563Y9420200D01*
G01X16585018Y9419745D01*
G01X16575927Y9417927D01*
G01X16570927Y9416564D01*
G01X16567290Y9415200D01*
G01X16563200Y9413382D01*
G01X16559563Y9411109D01*
G01X16556381Y9409291D01*
G01X16552745Y9407018D01*
G01X16549563Y9404745D01*
G01X16545018Y9401109D01*
G01X16543995Y9386450D01*
G01X16543654Y9344291D01*
G01X16543200Y9286109D01*
G01X16542745Y9283836D01*
G01X16530018Y9283836D01*
G37*
G36*
G01X16714563Y9280200D02*
G01X16700472Y9280655D01*
G01X16697745Y9281109D01*
G01X16691381Y9281564D01*
G01X16685927Y9282473D01*
G01X16682290Y9282927D01*
G01X16678199Y9283836D01*
G01X16668199Y9286564D01*
G01X16663654Y9287927D01*
G01X16658654Y9289291D01*
G01X16653654Y9291109D01*
G01X16649108Y9292927D01*
G01X16645018Y9294745D01*
G01X16641381Y9296109D01*
G01X16638199Y9297018D01*
G01X16636836Y9301450D01*
G01X16636381Y9313836D01*
G01X16636836Y9332473D01*
G01X16637290Y9334745D01*
G01X16639108Y9333382D01*
G01X16642290Y9331109D01*
G01X16644563Y9329291D01*
G01X16647290Y9327473D01*
G01X16654563Y9322927D01*
G01X16658654Y9320654D01*
G01X16663199Y9318382D01*
G01X16667290Y9316564D01*
G01X16674563Y9313836D01*
G01X16679563Y9312018D01*
G01X16685472Y9310200D01*
G01X16690472Y9308836D01*
G01X16695018Y9307927D01*
G01X16698654Y9307018D01*
G01X16706836Y9306109D01*
G01X16717290Y9305654D01*
G01X16727745Y9306109D01*
G01X16735018Y9307018D01*
G01X16739109Y9307927D01*
G01X16745018Y9309291D01*
G01X16750472Y9311109D01*
G01X16754563Y9312927D01*
G01X16758654Y9315200D01*
G01X16761836Y9317473D01*
G01X16764108Y9319291D01*
G01X16766381Y9321564D01*
G01X16768199Y9323836D01*
G01X16770018Y9326564D01*
G01X16771836Y9330200D01*
G01X16773199Y9334745D01*
G01X16774108Y9338836D01*
G01X16774108Y9344291D01*
G01X16773199Y9349745D01*
G01X16772290Y9353836D01*
G01X16770927Y9358382D01*
G01X16769108Y9361109D01*
G01X16766381Y9364291D01*
G01X16762745Y9367473D01*
G01X16759108Y9369745D01*
G01X16755018Y9371564D01*
G01X16751381Y9372927D01*
G01X16746836Y9374291D01*
G01X16735927Y9377018D01*
G01X16730472Y9377927D01*
G01X16726836Y9378836D01*
G01X16719563Y9379746D01*
G01X16715018Y9380200D01*
G01X16709109Y9381109D01*
G01X16703200Y9382473D01*
G01X16698654Y9383382D01*
G01X16690472Y9385200D01*
G01X16686836Y9386109D01*
G01X16682745Y9387473D01*
G01X16679109Y9388836D01*
G01X16675927Y9390200D01*
G01X16671836Y9392018D01*
G01X16668199Y9393836D01*
G01X16665018Y9395655D01*
G01X16660472Y9397927D01*
G01X16657290Y9400655D01*
G01X16651836Y9405200D01*
G01X16650018Y9407473D01*
G01X16647290Y9410655D01*
G01X16645018Y9414291D01*
G01X16641836Y9420655D01*
G01X16640472Y9424291D01*
G01X16638654Y9430654D01*
G01X16637745Y9438836D01*
G01X16637290Y9443382D01*
G01X16637745Y9447927D01*
G01X16639563Y9457927D01*
G01X16640472Y9461109D01*
G01X16641836Y9464745D01*
G01X16643199Y9467927D01*
G01X16644563Y9470200D01*
G01X16645927Y9472927D01*
G01X16647745Y9475654D01*
G01X16651381Y9480200D01*
G01X16656836Y9485654D01*
G01X16660472Y9488382D01*
G01X16662745Y9490200D01*
G01X16665927Y9492473D01*
G01X16670472Y9495200D01*
G01X16674563Y9497473D01*
G01X16681836Y9500200D01*
G01X16694109Y9504291D01*
G01X16699563Y9505200D01*
G01X16704109Y9506109D01*
G01X16719109Y9506564D01*
G01X16736836Y9506109D01*
G01X16742290Y9505200D01*
G01X16751381Y9504291D01*
G01X16758654Y9502473D01*
G01X16761836Y9502018D01*
G01X16765472Y9501109D01*
G01X16770472Y9499745D01*
G01X16775018Y9498382D01*
G01X16778199Y9497473D01*
G01X16781836Y9496563D01*
G01X16786381Y9494745D01*
G01X16791381Y9492927D01*
G01X16795017Y9491109D01*
G01X16796040Y9487018D01*
G01X16796381Y9476563D01*
G01X16795927Y9459745D01*
G01X16795472Y9456564D01*
G01X16793654Y9457473D01*
G01X16782745Y9464745D01*
G01X16779563Y9466563D01*
G01X16775927Y9468382D01*
G01X16769563Y9471109D01*
G01X16762290Y9473836D01*
G01X16758199Y9475200D01*
G01X16749108Y9477927D01*
G01X16745018Y9478836D01*
G01X16741836Y9479291D01*
G01X16737745Y9479745D01*
G01X16734109Y9480654D01*
G01X16721836Y9481109D01*
G01X16707745Y9480200D01*
G01X16701381Y9478836D01*
G01X16696836Y9477927D01*
G01X16688654Y9475200D01*
G01X16685927Y9473836D01*
G01X16679563Y9469291D01*
G01X16676381Y9466563D01*
G01X16673654Y9463382D01*
G01X16671836Y9461109D01*
G01X16670472Y9457927D01*
G01X16669108Y9453836D01*
G01X16668199Y9447018D01*
G01X16668654Y9440654D01*
G01X16669563Y9436564D01*
G01X16670927Y9432473D01*
G01X16672290Y9429291D01*
G01X16674109Y9426564D01*
G01X16678654Y9422018D01*
G01X16680927Y9420200D01*
G01X16683654Y9418836D01*
G01X16686836Y9417473D01*
G01X16695018Y9414745D01*
G01X16699563Y9413382D01*
G01X16704109Y9412473D01*
G01X16712290Y9410655D01*
G01X16719563Y9409745D01*
G01X16724109Y9408836D01*
G01X16730472Y9407927D01*
G01X16749563Y9403836D01*
G01X16755018Y9402473D01*
G01X16760018Y9401109D01*
G01X16764108Y9399745D01*
G01X16767745Y9398382D01*
G01X16772290Y9396564D01*
G01X16775927Y9394745D01*
G01X16779108Y9392927D01*
G01X16782745Y9390655D01*
G01X16785927Y9388836D01*
G01X16788199Y9387018D01*
G01X16792745Y9382473D01*
G01X16794563Y9380200D01*
G01X16796836Y9377018D01*
G01X16799108Y9373382D01*
G01X16800472Y9370200D01*
G01X16801836Y9366564D01*
G01X16803199Y9362018D01*
G01X16804108Y9355200D01*
G01X16805017Y9349745D01*
G01X16805017Y9345200D01*
G01X16804108Y9340654D01*
G01X16803199Y9334291D01*
G01X16802290Y9330654D01*
G01X16800927Y9326564D01*
G01X16799108Y9322473D01*
G01X16796836Y9317927D01*
G01X16794563Y9314291D01*
G01X16792745Y9312018D01*
G01X16790927Y9309291D01*
G01X16788654Y9306564D01*
G01X16784108Y9302018D01*
G01X16776836Y9296564D01*
G01X16774563Y9294745D01*
G01X16771381Y9292927D01*
G01X16764108Y9289291D01*
G01X16760018Y9287473D01*
G01X16755472Y9285655D01*
G01X16751381Y9284291D01*
G01X16747745Y9283382D01*
G01X16743199Y9282473D01*
G01X16739563Y9281564D01*
G01X16729563Y9280655D01*
G01X16714563Y9280200D01*
G37*
G36*
G01X16853540Y9284177D02*
G01X16849563Y9285200D01*
G01X16848540Y9313609D01*
G01X16848199Y9396109D01*
G01X16848654Y9508836D01*
G01X16849109Y9512018D01*
G01X16861836Y9512018D01*
G01X16875927Y9511109D01*
G01X16876949Y9501450D01*
G01X16877290Y9474291D01*
G01X16876836Y9436109D01*
G01X16876836Y9432473D01*
G01X16877517Y9431677D01*
G01X16878654Y9432018D01*
G01X16882290Y9434291D01*
G01X16886381Y9437018D01*
G01X16889563Y9439291D01*
G01X16895927Y9442927D01*
G01X16903199Y9446564D01*
G01X16910472Y9449291D01*
G01X16916836Y9451109D01*
G01X16930927Y9452018D01*
G01X16946381Y9451109D01*
G01X16950472Y9449745D01*
G01X16953654Y9448836D01*
G01X16957745Y9447018D01*
G01X16962290Y9444291D01*
G01X16965472Y9442018D01*
G01X16968654Y9439291D01*
G01X16972290Y9435654D01*
G01X16974563Y9432927D01*
G01X16976836Y9429745D01*
G01X16979109Y9425655D01*
G01X16982745Y9416564D01*
G01X16984563Y9407473D01*
G01X16985472Y9399745D01*
G01X16985927Y9392473D01*
G01X16986381Y9338836D01*
G01X16985472Y9285200D01*
G01X16982290Y9284177D01*
G01X16974563Y9283836D01*
G01X16961381Y9284291D01*
G01X16958199Y9284745D01*
G01X16958199Y9335654D01*
G01X16957745Y9387927D01*
G01X16956836Y9397927D01*
G01X16955927Y9401564D01*
G01X16955017Y9406109D01*
G01X16953654Y9410655D01*
G01X16951381Y9414745D01*
G01X16949108Y9417927D01*
G01X16946381Y9420200D01*
G01X16943654Y9422018D01*
G01X16940017Y9423836D01*
G01X16934108Y9425200D01*
G01X16927745Y9426109D01*
G01X16922290Y9426109D01*
G01X16911381Y9424291D01*
G01X16907745Y9423382D01*
G01X16904108Y9422018D01*
G01X16899563Y9420200D01*
G01X16890472Y9415655D01*
G01X16886836Y9413382D01*
G01X16878654Y9407927D01*
G01X16877063Y9406564D01*
G01X16876836Y9405200D01*
G01X16877290Y9345654D01*
G01X16876949Y9301564D01*
G01X16875927Y9285655D01*
G01X16871949Y9284291D01*
G01X16862745Y9283836D01*
G01X16853540Y9284177D01*
G37*
G36*
G01X17112745Y9280200D02*
G01X17105927Y9280655D01*
G01X17102290Y9281109D01*
G01X17097745Y9281564D01*
G01X17088199Y9282927D01*
G01X17084563Y9283836D01*
G01X17076381Y9286564D01*
G01X17071836Y9288382D01*
G01X17068199Y9290200D01*
G01X17065017Y9292018D01*
G01X17058654Y9295200D01*
G01X17056381Y9297018D01*
G01X17054108Y9299291D01*
G01X17049563Y9302927D01*
G01X17047290Y9305200D01*
G01X17041836Y9312018D01*
G01X17040017Y9314745D01*
G01X17038199Y9317927D01*
G01X17034563Y9325200D01*
G01X17032745Y9329291D01*
G01X17030927Y9335200D01*
G01X17029563Y9340654D01*
G01X17028654Y9345200D01*
G01X17027745Y9348836D01*
G01X17027290Y9364291D01*
G01X17027745Y9379746D01*
G01X17029563Y9387927D01*
G01X17055927Y9387927D01*
G01X17055927Y9385200D01*
G01X17102745Y9384746D01*
G01X17137404Y9384973D01*
G01X17148654Y9385655D01*
G01X17148199Y9389291D01*
G01X17147745Y9393382D01*
G01X17146836Y9398382D01*
G01X17145472Y9404291D01*
G01X17143654Y9408836D01*
G01X17140927Y9413382D01*
G01X17138654Y9417018D01*
G01X17136836Y9419291D01*
G01X17132290Y9422927D01*
G01X17129563Y9424745D01*
G01X17125927Y9426109D01*
G01X17121836Y9427473D01*
G01X17117745Y9428382D01*
G01X17114108Y9428836D01*
G01X17106836Y9429291D01*
G01X17099563Y9428836D01*
G01X17090017Y9427473D01*
G01X17086381Y9426564D01*
G01X17082745Y9425200D01*
G01X17079563Y9423836D01*
G01X17076836Y9422018D01*
G01X17072290Y9418382D01*
G01X17066836Y9412927D01*
G01X17064108Y9409745D01*
G01X17061836Y9406109D01*
G01X17060017Y9402473D01*
G01X17058199Y9398382D01*
G01X17056836Y9393382D01*
G01X17055927Y9387927D01*
G01X17055927Y9387927D01*
G01X17029563Y9387927D01*
G01X17030472Y9392473D01*
G01X17031836Y9398382D01*
G01X17033654Y9403382D01*
G01X17037290Y9411564D01*
G01X17039108Y9415200D01*
G01X17044563Y9423382D01*
G01X17048199Y9427927D01*
G01X17055927Y9435654D01*
G01X17059563Y9438382D01*
G01X17063199Y9440654D01*
G01X17066381Y9442927D01*
G01X17069563Y9444745D01*
G01X17073654Y9446564D01*
G01X17077745Y9447927D01*
G01X17081381Y9449291D01*
G01X17086381Y9450654D01*
G01X17091381Y9451564D01*
G01X17099563Y9452473D01*
G01X17105017Y9452927D01*
G01X17110472Y9452473D01*
G01X17114563Y9452018D01*
G01X17119563Y9451564D01*
G01X17125018Y9450654D01*
G01X17129563Y9449745D01*
G01X17133654Y9448382D01*
G01X17138654Y9446564D01*
G01X17142745Y9444745D01*
G01X17146381Y9442473D01*
G01X17149563Y9440654D01*
G01X17151836Y9438836D01*
G01X17158654Y9432018D01*
G01X17163199Y9426564D01*
G01X17165472Y9423382D01*
G01X17168654Y9417018D01*
G01X17170017Y9413836D01*
G01X17171836Y9408836D01*
G01X17173199Y9404291D01*
G01X17175017Y9396109D01*
G01X17175927Y9381564D01*
G01X17176381Y9373836D01*
G01X17175927Y9365200D01*
G01X17175472Y9362927D01*
G01X17055472Y9362927D01*
G01X17055472Y9360200D01*
G01X17055927Y9356109D01*
G01X17056836Y9348836D01*
G01X17057745Y9344291D01*
G01X17059108Y9339291D01*
G01X17060927Y9335200D01*
G01X17062745Y9331564D01*
G01X17064108Y9328382D01*
G01X17065926Y9325654D01*
G01X17071381Y9319291D01*
G01X17073654Y9317473D01*
G01X17076836Y9314745D01*
G01X17081381Y9312018D01*
G01X17085926Y9309745D01*
G01X17091381Y9307473D01*
G01X17095927Y9306109D01*
G01X17103199Y9305200D01*
G01X17111381Y9304745D01*
G01X17121381Y9305200D01*
G01X17127745Y9306109D01*
G01X17132290Y9307018D01*
G01X17136381Y9307927D01*
G01X17140927Y9309291D01*
G01X17148199Y9312018D01*
G01X17152745Y9313836D01*
G01X17157290Y9316109D01*
G01X17161381Y9318382D01*
G01X17167745Y9321564D01*
G01X17170017Y9323382D01*
G01X17171040Y9324064D01*
G01X17172290Y9323382D01*
G01X17173313Y9319405D01*
G01X17173654Y9310200D01*
G01X17172745Y9296109D01*
G01X17171381Y9294177D01*
G01X17169108Y9292927D01*
G01X17164563Y9291109D01*
G01X17157290Y9288382D01*
G01X17153199Y9287018D01*
G01X17148199Y9285655D01*
G01X17138654Y9282473D01*
G01X17131381Y9281564D01*
G01X17120472Y9280655D01*
G01X17112745Y9280200D01*
G37*
G36*
G01X17218199Y9284745D02*
G01X17218199Y9512018D01*
G01X17245472Y9512018D01*
G01X17245472Y9284745D01*
G01X17218199Y9284745D01*
G37*
G36*
G01X17300017Y9284745D02*
G01X17300017Y9512018D01*
G01X17327290Y9512018D01*
G01X17327290Y9284745D01*
G01X17300017Y9284745D01*
G37*
G36*
G01X17584563Y9280200D02*
G01X17572290Y9280655D01*
G01X17569108Y9281109D01*
G01X17565017Y9281564D01*
G01X17560472Y9282473D01*
G01X17555017Y9283382D01*
G01X17551381Y9284291D01*
G01X17547290Y9285200D01*
G01X17543199Y9286564D01*
G01X17535926Y9289291D01*
G01X17532745Y9290655D01*
G01X17530017Y9292018D01*
G01X17526835Y9293836D01*
G01X17523199Y9295655D01*
G01X17520472Y9297473D01*
G01X17517290Y9299745D01*
G01X17513199Y9302927D01*
G01X17509563Y9305654D01*
G01X17505017Y9310200D01*
G01X17499563Y9316564D01*
G01X17495926Y9322018D01*
G01X17493654Y9325200D01*
G01X17491381Y9329745D01*
G01X17489108Y9333836D01*
G01X17487745Y9337473D01*
G01X17486381Y9340200D01*
G01X17485017Y9343836D01*
G01X17483654Y9347927D01*
G01X17482290Y9351564D01*
G01X17481381Y9355200D01*
G01X17480472Y9359291D01*
G01X17479563Y9364291D01*
G01X17478654Y9370655D01*
G01X17477745Y9376109D01*
G01X17477290Y9391109D01*
G01X17477745Y9406109D01*
G01X17480017Y9422018D01*
G01X17480926Y9426564D01*
G01X17482290Y9431564D01*
G01X17483199Y9435200D01*
G01X17484108Y9438382D01*
G01X17486835Y9445654D01*
G01X17488199Y9448836D01*
G01X17492290Y9457018D01*
G01X17495017Y9461564D01*
G01X17497745Y9465654D01*
G01X17500017Y9468836D01*
G01X17503654Y9473382D01*
G01X17512745Y9482473D01*
G01X17515926Y9485200D01*
G01X17520472Y9488382D01*
G01X17524563Y9491109D01*
G01X17527745Y9492927D01*
G01X17530472Y9494291D01*
G01X17532745Y9495654D01*
G01X17539108Y9498382D01*
G01X17542745Y9499745D01*
G01X17550927Y9502473D01*
G01X17556381Y9503836D01*
G01X17563199Y9505200D01*
G01X17568654Y9506109D01*
G01X17581381Y9506564D01*
G01X17596836Y9506109D01*
G01X17602290Y9505200D01*
G01X17605472Y9504745D01*
G01X17610472Y9503836D01*
G01X17615926Y9502473D01*
G01X17620472Y9501564D01*
G01X17625472Y9500200D01*
G01X17629563Y9498836D01*
G01X17632745Y9497927D01*
G01X17640017Y9495200D01*
G01X17649563Y9491109D01*
G01X17653654Y9489291D01*
G01X17657744Y9487018D01*
G01X17658767Y9482245D01*
G01X17659108Y9470654D01*
G01X17658199Y9454291D01*
G01X17657063Y9453495D01*
G01X17655472Y9453836D01*
G01X17651381Y9456564D01*
G01X17647744Y9459291D01*
G01X17645472Y9461109D01*
G01X17642290Y9463382D01*
G01X17637745Y9466109D01*
G01X17634108Y9468382D01*
G01X17626835Y9472018D01*
G01X17620472Y9474745D01*
G01X17616835Y9476109D01*
G01X17612745Y9477473D01*
G01X17607745Y9478836D01*
G01X17602290Y9479745D01*
G01X17598654Y9480654D01*
G01X17585017Y9481109D01*
G01X17570472Y9480654D01*
G01X17566836Y9479745D01*
G01X17558654Y9477927D01*
G01X17554563Y9476563D01*
G01X17550472Y9474745D01*
G01X17547290Y9473382D01*
G01X17543654Y9471563D01*
G01X17540472Y9469291D01*
G01X17538199Y9467473D01*
G01X17535017Y9465200D01*
G01X17531836Y9462473D01*
G01X17527290Y9457927D01*
G01X17524563Y9454291D01*
G01X17520017Y9447473D01*
G01X17518199Y9444291D01*
G01X17516381Y9440200D01*
G01X17514563Y9435654D01*
G01X17511381Y9426109D01*
G01X17510926Y9422473D01*
G01X17509108Y9414291D01*
G01X17508654Y9410655D01*
G01X17508199Y9394291D01*
G01X17508654Y9377927D01*
G01X17509108Y9374291D01*
G01X17510017Y9368836D01*
G01X17513199Y9356109D01*
G01X17514563Y9352473D01*
G01X17517290Y9346109D01*
G01X17519108Y9342473D01*
G01X17521381Y9338382D01*
G01X17524108Y9334291D01*
G01X17527290Y9329745D01*
G01X17530017Y9326109D01*
G01X17533199Y9322927D01*
G01X17536836Y9320200D01*
G01X17539108Y9318382D01*
G01X17542290Y9316109D01*
G01X17545927Y9313836D01*
G01X17554108Y9310200D01*
G01X17558654Y9308836D01*
G01X17563654Y9307473D01*
G01X17567745Y9306564D01*
G01X17571381Y9306109D01*
G01X17580926Y9305654D01*
G01X17590472Y9306109D01*
G01X17599563Y9307018D01*
G01X17607745Y9308836D01*
G01X17610926Y9309291D01*
G01X17614563Y9310200D01*
G01X17618199Y9311564D01*
G01X17622290Y9312927D01*
G01X17626381Y9314745D01*
G01X17629563Y9316109D01*
G01X17633199Y9317927D01*
G01X17640472Y9322473D01*
G01X17644563Y9325200D01*
G01X17648199Y9327473D01*
G01X17650926Y9329745D01*
G01X17655472Y9333382D01*
G01X17656495Y9334064D01*
G01X17657744Y9333382D01*
G01X17658767Y9329177D01*
G01X17659108Y9319291D01*
G01X17658654Y9303382D01*
G01X17657744Y9300655D01*
G01X17655926Y9298836D01*
G01X17651381Y9296564D01*
G01X17646835Y9294745D01*
G01X17643199Y9292927D01*
G01X17640017Y9291564D01*
G01X17636381Y9290200D01*
G01X17631835Y9288382D01*
G01X17627745Y9287018D01*
G01X17618654Y9284745D01*
G01X17614108Y9283382D01*
G01X17610926Y9282927D01*
G01X17607290Y9282018D01*
G01X17602290Y9281109D01*
G01X17597745Y9280655D01*
G01X17584563Y9280200D01*
G37*
G36*
G01X17763199Y9279745D02*
G01X17759563Y9279745D01*
G01X17755926Y9280200D01*
G01X17751381Y9280655D01*
G01X17747290Y9281109D01*
G01X17741381Y9282018D01*
G01X17736835Y9283382D01*
G01X17733654Y9284291D01*
G01X17727290Y9287018D01*
G01X17723654Y9288836D01*
G01X17720017Y9291109D01*
G01X17715926Y9293836D01*
G01X17712290Y9296564D01*
G01X17705472Y9303382D01*
G01X17701836Y9307927D01*
G01X17699563Y9311564D01*
G01X17696836Y9315654D01*
G01X17694563Y9319745D01*
G01X17692745Y9324745D01*
G01X17690926Y9328836D01*
G01X17689563Y9332473D01*
G01X17688654Y9336109D01*
G01X17686836Y9346109D01*
G01X17685926Y9354291D01*
G01X17685472Y9363382D01*
G01X17685682Y9368836D01*
G01X17714108Y9368836D01*
G01X17714108Y9366109D01*
G01X17714563Y9360200D01*
G01X17715017Y9351564D01*
G01X17715926Y9346109D01*
G01X17716836Y9342018D01*
G01X17718199Y9336563D01*
G01X17720017Y9331109D01*
G01X17721836Y9327018D01*
G01X17724108Y9323382D01*
G01X17726381Y9320200D01*
G01X17728199Y9317927D01*
G01X17732745Y9313382D01*
G01X17735926Y9310654D01*
G01X17739563Y9308382D01*
G01X17743654Y9306564D01*
G01X17747745Y9305200D01*
G01X17751835Y9304745D01*
G01X17751835Y9304745D01*
G01X17755017Y9304291D01*
G01X17760017Y9303836D01*
G01X17766835Y9304291D01*
G01X17772290Y9305200D01*
G01X17777744Y9306564D01*
G01X17782290Y9308382D01*
G01X17785472Y9310200D01*
G01X17788199Y9312018D01*
G01X17790926Y9314291D01*
G01X17795472Y9318836D01*
G01X17797744Y9322018D01*
G01X17800017Y9326109D01*
G01X17801835Y9329745D01*
G01X17803654Y9333836D01*
G01X17805017Y9337927D01*
G01X17806835Y9347927D01*
G01X17807290Y9354291D01*
G01X17807744Y9362473D01*
G01X17807744Y9367018D01*
G01X17807290Y9373382D01*
G01X17806835Y9381564D01*
G01X17805926Y9387927D01*
G01X17805017Y9392473D01*
G01X17804108Y9396109D01*
G01X17802744Y9400200D01*
G01X17800926Y9404291D01*
G01X17798654Y9408836D01*
G01X17796381Y9412018D01*
G01X17794563Y9414291D01*
G01X17791835Y9417473D01*
G01X17788654Y9420200D01*
G01X17786381Y9422018D01*
G01X17783199Y9423836D01*
G01X17779108Y9425655D01*
G01X17775017Y9427018D01*
G01X17771381Y9427927D01*
G01X17762745Y9428382D01*
G01X17754108Y9427927D01*
G01X17750472Y9427473D01*
G01X17746381Y9426564D01*
G01X17741835Y9424745D01*
G01X17737745Y9422927D01*
G01X17734108Y9420655D01*
G01X17730926Y9417927D01*
G01X17726381Y9413382D01*
G01X17724108Y9410200D01*
G01X17721836Y9406564D01*
G01X17720017Y9402473D01*
G01X17718199Y9397018D01*
G01X17716836Y9392473D01*
G01X17715017Y9383382D01*
G01X17714108Y9368836D01*
G01X17685682Y9368836D01*
G01X17685926Y9375200D01*
G01X17686836Y9383382D01*
G01X17687745Y9388836D01*
G01X17688199Y9392018D01*
G01X17689108Y9396564D01*
G01X17690472Y9400655D01*
G01X17691381Y9403836D01*
G01X17692745Y9407018D01*
G01X17694563Y9411109D01*
G01X17696836Y9416109D01*
G01X17699108Y9419745D01*
G01X17700926Y9422927D01*
G01X17707745Y9431109D01*
G01X17712290Y9435654D01*
G01X17716836Y9439291D01*
G01X17720017Y9441564D01*
G01X17723199Y9443382D01*
G01X17725472Y9444745D01*
G01X17729108Y9446564D01*
G01X17733654Y9448382D01*
G01X17738654Y9449745D01*
G01X17743199Y9451109D01*
G01X17747290Y9452018D01*
G01X17751381Y9452473D01*
G01X17758654Y9452927D01*
G01X17768654Y9452473D01*
G01X17775926Y9451564D01*
G01X17780926Y9450200D01*
G01X17790017Y9447473D01*
G01X17794108Y9445654D01*
G01X17797744Y9443836D01*
G01X17800926Y9442018D01*
G01X17803654Y9440200D01*
G01X17810472Y9434745D01*
G01X17818199Y9427018D01*
G01X17820926Y9423382D01*
G01X17823199Y9420200D01*
G01X17825472Y9416109D01*
G01X17827745Y9411564D01*
G01X17830017Y9406564D01*
G01X17833199Y9397018D01*
G01X17835017Y9389746D01*
G01X17835926Y9382473D01*
G01X17836381Y9367927D01*
G01X17835926Y9353382D01*
G01X17835017Y9345200D01*
G01X17834563Y9342018D01*
G01X17833654Y9338382D01*
G01X17832290Y9334291D01*
G01X17830926Y9329291D01*
G01X17829108Y9324291D01*
G01X17823654Y9313382D01*
G01X17821835Y9310654D01*
G01X17816381Y9303382D01*
G01X17808654Y9295655D01*
G01X17805017Y9292927D01*
G01X17801835Y9290655D01*
G01X17798199Y9288382D01*
G01X17794563Y9286564D01*
G01X17790926Y9285200D01*
G01X17787744Y9283836D01*
G01X17784108Y9282473D01*
G01X17780472Y9281564D01*
G01X17774108Y9280655D01*
G01X17769563Y9280200D01*
G01X17763199Y9279745D01*
G37*
G36*
G01X17892745Y9283836D02*
G01X17879563Y9284291D01*
G01X17879108Y9366564D01*
G01X17879108Y9448382D01*
G01X17890926Y9448382D01*
G01X17905017Y9447927D01*
G01X17907290Y9447473D01*
G01X17907290Y9440654D01*
G01X17907744Y9432473D01*
G01X17908313Y9431677D01*
G01X17909108Y9432018D01*
G01X17911381Y9433836D01*
G01X17916835Y9437473D01*
G01X17924108Y9442018D01*
G01X17935926Y9447927D01*
G01X17939108Y9448836D01*
G01X17944108Y9450200D01*
G01X17953199Y9452473D01*
G01X17961381Y9452927D01*
G01X17970926Y9452018D01*
G01X17975926Y9450654D01*
G01X17979563Y9449745D01*
G01X17983654Y9448836D01*
G01X17987745Y9447473D01*
G01X17991381Y9445200D01*
G01X17995926Y9442018D01*
G01X17999563Y9439291D01*
G01X18003199Y9434745D01*
G01X18005472Y9432018D01*
G01X18007745Y9428382D01*
G01X18009563Y9425200D01*
G01X18010926Y9422018D01*
G01X18012290Y9417927D01*
G01X18013654Y9412927D01*
G01X18015017Y9408836D01*
G01X18015926Y9401564D01*
G01X18016381Y9343382D01*
G01X18015472Y9285200D01*
G01X18012290Y9284177D01*
G01X18004563Y9283836D01*
G01X17991381Y9284291D01*
G01X17988199Y9284745D01*
G01X17988199Y9337018D01*
G01X17987745Y9390655D01*
G01X17987290Y9394291D01*
G01X17986836Y9398836D01*
G01X17985926Y9403382D01*
G01X17984563Y9408382D01*
G01X17982745Y9412473D01*
G01X17980472Y9416109D01*
G01X17977745Y9419291D01*
G01X17974563Y9421564D01*
G01X17970017Y9423836D01*
G01X17965926Y9425200D01*
G01X17956835Y9426109D01*
G01X17954108Y9426109D01*
G01X17945017Y9425200D01*
G01X17940926Y9424291D01*
G01X17936835Y9422927D01*
G01X17933199Y9421564D01*
G01X17928654Y9419745D01*
G01X17925017Y9417473D01*
G01X17917744Y9413836D01*
G01X17914108Y9411564D01*
G01X17910926Y9409291D01*
G01X17908654Y9407927D01*
G01X17907631Y9392473D01*
G01X17907290Y9347018D01*
G01X17906381Y9285200D01*
G01X17902517Y9284177D01*
G01X17892745Y9283836D01*
G37*
G36*
G01X18122290Y9281109D02*
G01X18111381Y9281564D01*
G01X18107744Y9282473D01*
G01X18104108Y9282927D01*
G01X18100472Y9283836D01*
G01X18097290Y9285200D01*
G01X18093199Y9287018D01*
G01X18089563Y9288836D01*
G01X18087290Y9290655D01*
G01X18085017Y9292927D01*
G01X18082290Y9295200D01*
G01X18079108Y9298836D01*
G01X18076381Y9303382D01*
G01X18074563Y9307018D01*
G01X18073199Y9310654D01*
G01X18071835Y9314745D01*
G01X18070926Y9318836D01*
G01X18070472Y9322473D01*
G01X18069563Y9337927D01*
G01X18069108Y9378382D01*
G01X18069563Y9420655D01*
G01X18070017Y9423836D01*
G01X18064563Y9423836D01*
G01X18055017Y9424291D01*
G01X18050926Y9424745D01*
G01X18050926Y9434291D01*
G01X18051381Y9446109D01*
G01X18051835Y9448382D01*
G01X18060926Y9448382D01*
G01X18067631Y9448609D01*
G01X18069563Y9449291D01*
G01X18069108Y9470654D01*
G01X18070017Y9493382D01*
G01X18070926Y9495654D01*
G01X18081835Y9495654D01*
G01X18095017Y9495200D01*
G01X18097290Y9494745D01*
G01X18097290Y9448382D01*
G01X18124108Y9448382D01*
G01X18152744Y9447473D01*
G01X18154108Y9444405D01*
G01X18154563Y9437018D01*
G01X18154222Y9429405D01*
G01X18153199Y9425655D01*
G01X18146381Y9424291D01*
G01X18128654Y9423836D01*
G01X18101381Y9424291D01*
G01X18097290Y9424745D01*
G01X18097290Y9380655D01*
G01X18097744Y9333382D01*
G01X18098653Y9328836D01*
G01X18099563Y9323836D01*
G01X18101381Y9317927D01*
G01X18104563Y9313382D01*
G01X18107744Y9310200D01*
G01X18110017Y9308382D01*
G01X18113654Y9307018D01*
G01X18117745Y9306109D01*
G01X18126381Y9305654D01*
G01X18135926Y9306109D01*
G01X18140472Y9307018D01*
G01X18145472Y9308382D01*
G01X18149563Y9309745D01*
G01X18152744Y9309745D01*
G01X18154108Y9307018D01*
G01X18154563Y9299745D01*
G01X18154108Y9287927D01*
G01X18153313Y9286109D01*
G01X18151835Y9285200D01*
G01X18148199Y9283836D01*
G01X18143654Y9282927D01*
G01X18139563Y9282473D01*
G01X18132290Y9281564D01*
G01X18122290Y9281109D01*
G37*
G36*
G01X18200926Y9283836D02*
G01X18187744Y9284291D01*
G01X18187290Y9364291D01*
G01X18187744Y9446109D01*
G01X18188199Y9448382D01*
G01X18199108Y9448382D01*
G01X18212290Y9447927D01*
G01X18214563Y9447473D01*
G01X18214563Y9438836D01*
G01X18215017Y9427927D01*
G01X18215699Y9426336D01*
G01X18216835Y9426109D01*
G01X18219562Y9427473D01*
G01X18226835Y9432927D01*
G01X18230472Y9435200D01*
G01X18235017Y9437927D01*
G01X18238653Y9440200D01*
G01X18242290Y9442018D01*
G01X18246381Y9443836D01*
G01X18250472Y9445200D01*
G01X18255926Y9446564D01*
G01X18260472Y9447927D01*
G01X18271381Y9448382D01*
G01X18282744Y9447473D01*
G01X18286381Y9446564D01*
G01X18289108Y9445200D01*
G01X18290017Y9434745D01*
G01X18289563Y9421564D01*
G01X18289108Y9417473D01*
G01X18286381Y9417927D01*
G01X18282290Y9418836D01*
G01X18273199Y9419745D01*
G01X18265017Y9420200D01*
G01X18256835Y9419745D01*
G01X18253654Y9419291D01*
G01X18248653Y9418382D01*
G01X18242744Y9416564D01*
G01X18237744Y9414745D01*
G01X18233199Y9412473D01*
G01X18228653Y9409745D01*
G01X18221381Y9405200D01*
G01X18218199Y9402927D01*
G01X18215926Y9401109D01*
G01X18214904Y9386450D01*
G01X18214563Y9344291D01*
G01X18214108Y9286109D01*
G01X18213653Y9283836D01*
G01X18200926Y9283836D01*
G37*
G36*
G01X18381381Y9279745D02*
G01X18377744Y9279745D01*
G01X18374108Y9280200D01*
G01X18369562Y9280655D01*
G01X18366381Y9281109D01*
G01X18362290Y9281564D01*
G01X18358653Y9282473D01*
G01X18354562Y9283382D01*
G01X18350472Y9284745D01*
G01X18346835Y9286564D01*
G01X18342744Y9288382D01*
G01X18338653Y9290655D01*
G01X18334108Y9293836D01*
G01X18330472Y9296564D01*
G01X18323653Y9303382D01*
G01X18320017Y9307927D01*
G01X18317744Y9311564D01*
G01X18315472Y9314745D01*
G01X18313653Y9317927D01*
G01X18311835Y9321564D01*
G01X18307744Y9332473D01*
G01X18306835Y9336109D01*
G01X18305017Y9345200D01*
G01X18304108Y9354291D01*
G01X18303654Y9364291D01*
G01X18303863Y9369745D01*
G01X18332290Y9369745D01*
G01X18332290Y9366109D01*
G01X18332744Y9360200D01*
G01X18333199Y9351564D01*
G01X18334108Y9346109D01*
G01X18335017Y9342018D01*
G01X18336381Y9336563D01*
G01X18338199Y9331109D01*
G01X18340017Y9327018D01*
G01X18342290Y9323382D01*
G01X18344562Y9320200D01*
G01X18346381Y9317927D01*
G01X18350926Y9313382D01*
G01X18354108Y9310654D01*
G01X18357744Y9308382D01*
G01X18361835Y9306564D01*
G01X18365926Y9305200D01*
G01X18370017Y9304745D01*
G01X18370017Y9304745D01*
G01X18373199Y9304291D01*
G01X18378199Y9303836D01*
G01X18385017Y9304291D01*
G01X18390472Y9305200D01*
G01X18395926Y9306564D01*
G01X18400472Y9308382D01*
G01X18403654Y9310200D01*
G01X18406381Y9312018D01*
G01X18409108Y9314291D01*
G01X18413654Y9318836D01*
G01X18415926Y9322018D01*
G01X18418199Y9326109D01*
G01X18420017Y9329745D01*
G01X18421835Y9333836D01*
G01X18423199Y9337927D01*
G01X18425017Y9347927D01*
G01X18425472Y9354291D01*
G01X18425926Y9362473D01*
G01X18425926Y9367018D01*
G01X18425472Y9373382D01*
G01X18425017Y9381564D01*
G01X18424108Y9387927D01*
G01X18423199Y9392473D01*
G01X18422290Y9396109D01*
G01X18420926Y9400200D01*
G01X18419108Y9404291D01*
G01X18416835Y9408836D01*
G01X18414563Y9412018D01*
G01X18410926Y9416564D01*
G01X18409108Y9418382D01*
G01X18404563Y9422018D01*
G01X18401381Y9423836D01*
G01X18397290Y9425655D01*
G01X18393199Y9427018D01*
G01X18389563Y9427927D01*
G01X18380926Y9428382D01*
G01X18372290Y9427927D01*
G01X18368653Y9427473D01*
G01X18364562Y9426564D01*
G01X18360017Y9424745D01*
G01X18355926Y9422927D01*
G01X18352290Y9420655D01*
G01X18349108Y9417927D01*
G01X18344562Y9413382D01*
G01X18342290Y9410200D01*
G01X18340017Y9406564D01*
G01X18338199Y9402473D01*
G01X18336381Y9397018D01*
G01X18335017Y9392473D01*
G01X18333199Y9384291D01*
G01X18332744Y9377473D01*
G01X18332290Y9369745D01*
G01X18303863Y9369745D01*
G01X18304108Y9376109D01*
G01X18305017Y9383382D01*
G01X18305926Y9388836D01*
G01X18306381Y9392018D01*
G01X18307290Y9396564D01*
G01X18308654Y9400655D01*
G01X18309563Y9403836D01*
G01X18310926Y9407018D01*
G01X18312744Y9411109D01*
G01X18315017Y9416109D01*
G01X18317290Y9419745D01*
G01X18319108Y9422927D01*
G01X18325926Y9431109D01*
G01X18330472Y9435654D01*
G01X18335017Y9439291D01*
G01X18338199Y9441564D01*
G01X18341381Y9443382D01*
G01X18343653Y9444745D01*
G01X18347290Y9446564D01*
G01X18351835Y9448382D01*
G01X18356835Y9449745D01*
G01X18361381Y9451109D01*
G01X18365472Y9452018D01*
G01X18369562Y9452473D01*
G01X18376835Y9452927D01*
G01X18386835Y9452473D01*
G01X18394108Y9451564D01*
G01X18399108Y9450200D01*
G01X18408199Y9447473D01*
G01X18412290Y9445654D01*
G01X18415926Y9443836D01*
G01X18419108Y9442018D01*
G01X18421835Y9440200D01*
G01X18428654Y9434745D01*
G01X18436381Y9427018D01*
G01X18439108Y9423382D01*
G01X18441381Y9420200D01*
G01X18443653Y9416109D01*
G01X18446835Y9409745D01*
G01X18448199Y9406564D01*
G01X18450926Y9397473D01*
G01X18452290Y9393382D01*
G01X18453199Y9389746D01*
G01X18454108Y9382473D01*
G01X18454563Y9367927D01*
G01X18454108Y9353382D01*
G01X18453199Y9345200D01*
G01X18452744Y9342018D01*
G01X18451835Y9338382D01*
G01X18450472Y9334291D01*
G01X18449108Y9329291D01*
G01X18447290Y9324291D01*
G01X18441835Y9313382D01*
G01X18440017Y9310654D01*
G01X18434563Y9303382D01*
G01X18426835Y9295655D01*
G01X18423199Y9292927D01*
G01X18420017Y9290655D01*
G01X18416381Y9288382D01*
G01X18412744Y9286564D01*
G01X18409108Y9285200D01*
G01X18405926Y9283836D01*
G01X18402290Y9282473D01*
G01X18398653Y9281564D01*
G01X18392290Y9280655D01*
G01X18387744Y9280200D01*
G01X18381381Y9279745D01*
G37*
G36*
G01X18497290Y9284745D02*
G01X18497290Y9512018D01*
G01X18525472Y9512018D01*
G01X18525472Y9284745D01*
G01X18497290Y9284745D01*
G37*
G36*
G01X18580017Y9284745D02*
G01X18580017Y9512018D01*
G01X18607290Y9512018D01*
G01X18607290Y9284745D01*
G01X18580017Y9284745D01*
G37*
G04 Text End*

G04 Pad Start*
G54D10*
G01X7216292Y7014401D03*
G01X5966308Y7014401D03*
G01X7216292Y7514400D03*
G01X5966308Y7514400D03*
G01X8257692Y8538401D03*
G01X7007708Y8538401D03*
G01X8257692Y9038400D03*
G01X7007708Y9038400D03*
G01X9489592Y6900101D03*
G01X8239608Y6900101D03*
G01X9489592Y7400100D03*
G01X8239608Y7400100D03*
G01X8308492Y5401501D03*
G01X7058508Y5401501D03*
G01X8308492Y5901500D03*
G01X7058508Y5901500D03*
G01X19116192Y7014401D03*
G01X17866208Y7014401D03*
G01X19116192Y7514400D03*
G01X17866208Y7514400D03*
G01X20297292Y8576501D03*
G01X19047308Y8576501D03*
G01X20297292Y9076500D03*
G01X19047308Y9076500D03*
G01X20309992Y5566601D03*
G01X19060008Y5566601D03*
G01X20309992Y6066600D03*
G01X19060008Y6066600D03*
G01X21427592Y7039801D03*
G01X20177608Y7039801D03*
G01X21427592Y7539800D03*
G01X20177608Y7539800D03*
G54D11*
G01X8559800Y5626100D03*
G01X9459798Y5626100D03*
G01X5880100Y5702300D03*
G01X6780098Y5702300D03*
G01X8547100Y5232400D03*
G01X9447098Y5232400D03*
G01X8610600Y5956300D03*
G01X9510598Y5956300D03*
G01X17805400Y5448300D03*
G01X18705398Y5448300D03*
G01X17818100Y5854700D03*
G01X18718098Y5854700D03*
G01X17932400Y5016500D03*
G01X18832398Y5016500D03*
G01X20599400Y5740400D03*
G01X21499398Y5740400D03*
G54D12*
G01X14528800Y9410700D03*
G01X13004800Y9410700D03*
G01X13004800Y9156700D03*
G01X13004800Y8902700D03*
G01X13004800Y8648700D03*
G01X13004800Y8394700D03*
G01X13004800Y8140700D03*
G01X13004800Y7886700D03*
G01X13004800Y7632700D03*
G01X13004800Y7378700D03*
G01X13004800Y7124700D03*
G01X13004800Y6870700D03*
G01X13004800Y6616700D03*
G01X14528800Y6616700D03*
G01X14528800Y6870700D03*
G01X14528800Y7124700D03*
G01X14528800Y7378700D03*
G01X14528800Y7632700D03*
G01X14528800Y7886700D03*
G01X14528800Y8140700D03*
G01X14528800Y8394700D03*
G01X14528800Y8648700D03*
G01X14528800Y8902700D03*
G01X14528800Y9156700D03*
G54D11*
G01X15608300Y5334000D03*
G01X15862300Y5334000D03*
G01X16116300Y5334000D03*
G01X16370300Y5334000D03*
G01X16624300Y5334000D03*
G01X10680700Y5245100D03*
G01X10934700Y5245100D03*
G01X11188700Y5245100D03*
G01X11442700Y5245100D03*
G01X11696700Y5245100D03*
G54D13*
G01X6311900Y9182100D03*
G01X20942300Y9220200D03*
G01X13788292Y5334000D03*
G04 Pad End*

G04 Via Start*
G54D14*
G01X8892692Y7497001D03*
G01X9972192Y6315901D03*
G01X18938392Y5152200D03*
G01X14653108Y7331901D03*
G01X8788400Y8324507D03*
G01X8486292Y6295200D03*
G01X11188700Y5446992D03*
G01X16103600Y5575300D03*
G01X16027400Y5727700D03*
G04 Via End*

G04 Track Start*
G54D16*
G01X8892692Y7497001D02*
G01X9489592Y6900101D01*
G01X7216292Y7014401D02*
G01X7216292Y6493701D01*
G01X8308492Y5401501D01*
G01X9489592Y6900101D02*
G01X9972192Y6417501D01*
G01X9972192Y6315901D01*
G01X9972192Y6417501D02*
G01X10519601Y6417501D01*
G01X13004800Y8902700D01*
G01X18938392Y5152200D02*
G01X18785992Y5152200D01*
G01X18658992Y5025200D01*
G01X17941100Y5025200D01*
G01X17932400Y5016500D01*
G01X19047308Y8576501D02*
G01X15897708Y8576501D01*
G01X14653108Y7331901D01*
G01X19060008Y5566601D02*
G01X18679008Y5185601D01*
G01X15554808Y5185601D01*
G01X14640408Y6100001D01*
G01X14640408Y6658801D01*
G01X14538808Y6760401D01*
G01X13115100Y6760401D01*
G01X13004800Y6870700D01*
G01X20177608Y7039801D02*
G01X20025208Y7192201D01*
G01X19060008Y7192201D01*
G01X18664112Y6796305D01*
G01X14774302Y6796305D01*
G01X14579600Y6991007D01*
G01X12972707Y6991007D01*
G01X12896507Y6914807D01*
G01X12896507Y6724993D01*
G01X13004800Y6616700D01*
G01X17866208Y7014401D02*
G01X17612208Y7268401D01*
G01X14488008Y7268401D01*
G01X14411808Y7344601D01*
G01X14411808Y7420801D01*
G01X14488008Y7497001D01*
G01X14564208Y7497001D01*
G01X14640408Y7573201D01*
G01X14640408Y7674801D01*
G01X14564208Y7751001D01*
G01X14488008Y7751001D01*
G01X14115707Y7378700D01*
G01X13004800Y7378700D01*
G01X19116192Y7014401D02*
G01X19116192Y6862001D01*
G01X20309992Y5668201D01*
G01X20309992Y5592001D02*
G01X20640192Y5592001D01*
G01X21427592Y6379401D01*
G01X21427592Y7039801D01*
G01X21427592Y7039801D02*
G01X20297292Y8170101D01*
G01X20297292Y8576501D01*
G01X8788400Y8324507D02*
G01X8788400Y5854700D01*
G01X8559800Y5626100D01*
G01X8308492Y5901500D02*
G01X8308492Y5672900D01*
G01X8547100Y5434292D01*
G01X8547100Y5232400D01*
G01X7216292Y7514400D02*
G01X7267092Y7514400D01*
G01X8486292Y6295200D01*
G01X7058508Y5401501D02*
G01X7363308Y5096701D01*
G01X9960801Y5096701D01*
G01X13004800Y8140700D01*
G01X11188700Y5446992D02*
G01X11188700Y5245100D01*
G01X11188700Y5446992D02*
G01X11188700Y5726392D01*
G01X12966700Y7504392D01*
G01X14146492Y7504392D01*
G01X14528800Y7886700D01*
G01X19116192Y7514400D02*
G01X19928992Y7514400D01*
G01X20599400Y6843992D01*
G01X20599400Y5740400D01*
G01X14528800Y7632700D02*
G01X14147800Y7251700D01*
G01X12979400Y7251700D01*
G01X11442700Y5715000D01*
G01X11442700Y5245100D01*
G01X14528800Y6616700D02*
G01X13157200Y5245100D01*
G01X11696700Y5245100D01*
G01X16103600Y5575300D02*
G01X16103600Y5346700D01*
G01X16116300Y5334000D01*
G01X16027400Y5727700D02*
G01X16052800Y5727700D01*
G01X16357600Y5422900D01*
G01X16357600Y5346700D01*
G01X16370300Y5334000D01*
G01X14528800Y6870700D02*
G01X15595600Y5803900D01*
G01X16154400Y5803900D01*
G01X16624300Y5334000D01*
G01X20309992Y5668201D02*
G01X20309992Y5592001D01*
G01X20309992Y5566601D01*
G04 Track End*

M02*

