# Object Export From Tinkercad Server 2015

mtllib obj.mtl

o obj_0
v -84.5 		25.001 		20
v 79.5 		19.136 		3.943
v -71.01 		17.367 		3.998
v 83.898 		-26.133 		3.709
v 79.5 		19.136 		0
v 78.208 		18.82 		0.038
v -70.946 		17.952 		3.998
v 83.777 		-26.01 		3.759
v -84.5 		25.001 		0
v 83.754 		-26.117 		3.754
v -84.5 		-24.001 		20
v -84.5 		-24.001 		0.291
v 84.118 		-25.454 		3.762
v -84.5 		-24.001 		0
v -84.5 		-24.001 		3.709
v -84.5 		-24.851 		3.709
v -84.5 		-24.851 		0.291
v 84.47 		24.001 		0
v 84.5 		24.001 		0
v 82.537 		26.947 		0
v 83.227 		26.376 		0
v 83.777 		25.76 		0
v 84.176 		25.11 		0
v 84.419 		24.436 		0
v -71.01 		18.536 		3.998
v 7.003 		28.751 		17.003
v 73.76 		28.956 		0
v 76.24 		28.956 		0
v 78.635 		28.601 		0
v 79.75 		28.298 		0
v 80.783 		27.916 		0
v 81.718 		27.463 		0
v -72.284 		20.443 		3.998
v 74.448 		20.769 		0
v 73.797 		21.204 		0
v -71.348 		19.453 		3.998
v -71.825 		20.075 		3.998
v 7.003 		25.251 		17.003
v 77.459 		18.68 		0
v 75.475 		18.518 		0
v 74.963 		20.182 		0
v 75.411 		19.101 		0
v 75.246 		19.666 		0
v -71.174 		19.101 		3.998
v 7.003 		28.751 		11.998
v 7.003 		25.251 		11.998
v 84.348 		-25.5 		3.709
v 84.305 		-25.001 		3.755
v 84.465 		-25.001 		3.709
v 72.163 		28.751 		0
v 73.249 		21.417 		0
v 72.472 		21.52 		0
v 72.08 		21.494 		0
v 71.421 		21.311 		0
v 70.644 		20.899 		0
v 69.872 		17.016 		0
v -71.348 		16.45 		3.998
v 70.09 		16.689 		0
v -74.5 		-29.001 		20
v 70.349 		16.394 		0
v -74.5 		-28.983 		20
v 82.969 		-26.839 		3.709
v 83.227 		-26.625 		3.727
v 69.495 		18.125 		0
v 69.572 		17.74 		0
v -78.635 		-28.601 		20
v 83.159 		-26.735 		3.709
v 2.856 		-18.108 		3.998
v 71.147 		15.83 		0
v 71.695 		15.617 		0
v 2.0294 		-17.5873 		3.998
v 72.137 		15.536 		0
v 2.0292 		-17.5871 		3.998
v 70.644 		16.135 		0
v 2.029 		-17.587 		3.998
v -71.048 		18.729 		0
v -71.174 		19.101 		0
v -71.825 		20.075 		0
v -71.348 		19.453 		0
v 1.465 		-17.422 		3.998
v 0.88 		-17.359 		3.998
v 82.537 		-27.197 		0
v 0.2953 		-17.422 		3.998
v 83.159 		-26.735 		0.291
v 83.898 		-26.133 		0.291
v 82.969 		-26.839 		0.291
v 0.2949 		-17.422 		3.998
v -70.959 		18.148 		0
v 3.883 		-20.3612 		3.998
v -81.003 		-25.505 		20
v -80.783 		-27.916 		20
v -79.75 		-28.298 		20
v -81.718 		-27.463 		20
v 3.883 		-20.361 		3.998
v 83.227 		-26.626 		0
v 3.819 		-19.7763 		3.998
v 84.5 		-25.001 		0
v 84.348 		-25.5 		0.291
v 79.5 		19.136 		0.057
v 84.305 		-25.001 		0
v 83.478 		-26.345 		0.247
v 83.777 		-26.01 		0
v 3.819 		-19.7759 		3.998
v 84.176 		-25.36 		0
v 77.459 		18.68 		3.971
v 77.459 		18.68 		3.998
v 3.5671 		-19.0363 		3.998
v 3.567 		-19.036 		3.998
v 3.262 		-18.533 		3.998
v 74.963 		20.182 		3.998
v 79.5 		-19.386 		0
v 75.475 		18.518 		3.989
v 75.475 		18.518 		3.998
v 75.411 		19.101 		3.998
v 75 		-29.251 		0
v 73.76 		-29.206 		0
v 75.246 		19.666 		3.998
v 0.103 		-17.461 		0
v 6.839 		24.551 		0.004
v 83.754 		-26.117 		0.246
v 2.029 		-17.587 		0
v 1.465 		-17.422 		0
v -84.47 		-24.001 		20
v 2.381 		-17.761 		0
v -70.972 		17.56 		0
v 83.777 		-26.01 		0.241
v 3.883 		-20.361 		0
v -84.419 		-24.436 		20
v -72.284 		20.443 		0
v 3.78 		-19.584 		0
v -84.176 		-25.11 		20
v 3.567 		-19.036 		0
v -83.777 		-25.76 		20
v 3.262 		-18.533 		0
v 2.856 		-18.108 		0
v -83.227 		-26.376 		20
v -82.537 		-26.947 		20
v 84.465 		-25.001 		0.291
v 0.88 		-17.359 		0
v 77.459 		-29.072 		0
v 81.718 		-27.713 		0
v 80.783 		-28.166 		0
v 79.75 		-28.548 		0
v -71.174 		16.803 		0
v 72.163 		-29.001 		0
v 84.151 		-25.401 		0.239
v 3.857 		-20.753 		0
v 3.6541 		-21.5096 		3.998
v 75.411 		17.932 		3.989
v 75.159 		17.192 		3.99
v 3.654 		-21.51 		3.998
v 3.654 		-21.51 		0
v 74.854 		16.689 		3.992
v 1.465 		-23.299 		0
v 0.88 		-23.364 		0
v 0.88 		-23.364 		3.998
v 2.029 		-23.135 		0
v 2.3805 		-22.9612 		3.998
v 2.3808 		-22.9611 		3.998
v 1.465 		-23.299 		3.998
v 84.305 		-25.001 		0.245
v 2.381 		-22.961 		0
v 2.381 		-22.961 		3.998
v 2.856 		-22.613 		0
v 2.856 		-22.613 		3.998
v 3.262 		-22.189 		0
v 3.262 		-22.189 		3.998
v 0.2947 		-23.2989 		3.998
v 0.295 		-23.299 		0
v 0.295 		-23.299 		3.998
v 60.498 		13.3143 		0
v 0 		-25.176 		3.998
v -6.003 		28.751 		17.003
v -66.064 		-25.501 		3.998
v -66.064 		-25.501 		3.996
v -6.003 		25.251 		17.003
v -65.8787 		-25.1697 		3.998
v -6.003 		28.751 		11.998
v -6.003 		25.251 		11.998
v -71.348 		16.45 		0
v -79.5 		-19.136 		3.943
v -79.5 		-19.136 		3.998
v 79.5 		-19.386 		3.998
v 79.5 		-19.386 		3.943
v 77.459 		18.68 		0.029
v -75 		29.251 		0
v -79.5 		-19.136 		0
v 75.159 		17.192 		0.01
v -76.24 		29.206 		0
v 75.372 		17.74 		0.011
v -79.75 		28.548 		0
v -80.783 		28.166 		0
v 74.854 		16.689 		0.008
v -81.718 		27.713 		0
v 79.5 		-19.386 		0.057
v 74.595 		16.394 		0.007
v 73.728 		-25.505 		3.998
v 81.003 		-25.505 		3.998
v -79.5 		-19.136 		0.057
v 79.503 		-25.004 		3.998
v 75.475 		18.518 		0.011
v 71.674 		-19.116 		3.998
v -78.047 		28.962 		0
v -79.503 		25 		3.998
v -79.503 		25.004 		3.998
v -81.003 		25 		3.998
v 65.867 		-25.4299 		3.998
v 65.867 		-25.43 		3.998
v 65.911 		-25.501 		3.996
v 65.911 		-25.501 		3.998
v 65.7672 		25 		3.998
v 65.7677 		25 		3.998
v 65.786 		25.004 		3.998
v 65.7889 		25 		3.998
v -75.097 		20.726 		3.998
v -73.948 		20.954 		3.998
v -75.097 		20.726 		0
v -74.725 		20.852 		0
v -73.948 		20.954 		0
v 65.867 		-25.43 		3.996
v 65.753 		-25.146 		3.998
v -76.805 		18.858 		3.998
v -0.621 		-17.761 		0
v -75.613 		20.443 		3.998
v -76.071 		20.075 		3.998
v -1.096 		-18.108 		0
v -0.621 		-17.761 		3.998
v -1.096 		-18.108 		3.998
v -74.5 		-29.001 		0
v -79.503 		-25.004 		3.998
v -81.906 		-27.345 		3.731
v -79.75 		-28.298 		0
v -80.783 		-27.916 		0
v -75 		-29.001 		0
v -76.24 		-28.956 		0
v -81.718 		-27.463 		0
v -77.459 		-28.822 		0
v -74.5 		-28.983 		0
v -81.003 		-25.505 		3.998
v 61.1348 		24.0157 		3.998
v -1.502 		-18.533 		0
v -1.894 		-19.212 		0
v -2.097 		-19.969 		0
v -2.123 		-20.361 		0
v -84.47 		-24.001 		0
v -84.419 		-24.436 		0
v -84.47 		-24.001 		0.282
v -1.502 		-18.533 		3.998
v -1.894 		-19.212 		3.998
v -1.8941 		-19.2124 		3.998
v -84.47 		-24.001 		3.718
v -2.123 		-20.3608 		3.998
v -2.123 		-20.361 		3.998
v -0.6206 		-17.7609 		3.998
v -2.059 		-20.945 		0
v -2.059 		-20.945 		3.998
v -1.8071 		-21.6856 		3.998
v -1.807 		-21.6859 		3.998
v -1.894 		-21.51 		0
v -84.348 		-25.5 		3.709
v -1.5022 		-22.1887 		3.998
v -1.502 		-22.189 		3.998
v -1.502 		-22.189 		0
v -1.096 		-22.613 		0
v -84.358 		-24.605 		3.751
v -0.621 		-22.961 		0
v -0.4453 		-23.0478 		3.998
v -0.4451 		-23.048 		3.998
v -1.096 		-22.613 		3.998
v -84.132 		-25.182 		3.768
v -0.269 		-23.135 		0
v -0.4449 		-23.048 		3.998
v -83.898 		-26.133 		3.709
v -83.839 		-25.656 		3.778
v -24.576 		-5.734 		0
v -83.485 		-26.087 		3.782
v -83.041 		-26.53 		3.773
v 65.911 		25.251 		3.983
v 70.349 		20.64 		0
v -76.33 		19.779 		3.998
v -76.636 		19.277 		3.998
v 72.472 		21.52 		3.998
v 73.249 		21.417 		3.998
v 71.695 		21.417 		3.998
v 70.971 		21.118 		3.998
v 70.644 		20.899 		3.998
v 70.349 		20.64 		3.998
v -83.159 		-26.735 		3.709
v -83.024 		-26.712 		3.754
v -76.805 		18.858 		3.978
v -76.849 		18.729 		3.977
v -82.15 		-27.29 		3.709
v -76.722 		16.803 		3.979
v -76.887 		17.367 		3.977
v -31.234 		-25.176 		3.998
v -82.479 		-26.984 		3.758
v 69.698 		19.666 		0
v 69.981 		20.182 		0
v 62.3023 		-25.1697 		3.998
v -70.997 		28.751 		0
v -72.541 		29.072 		0
v -72.799 		20.726 		0
v 62.2877 		-25.146 		3.998
v -73.363 		20.89 		0
v -76.938 		18.148 		3.977
v 69.981 		20.182 		3.998
v 69.698 		19.666 		3.998
v 69.698 		17.368 		3.998
v -75.613 		20.443 		0
v -76.071 		20.075 		0
v -76.33 		19.779 		0
v -76.636 		19.277 		0
v -76.805 		18.858 		0
v -84.348 		-25.5 		0.291
v -79.5 		19.386 		0
v -84.176 		-25.11 		0
v -84.305 		25.001 		0
v -84.176 		25.36 		0
v -83.777 		26.01 		0
v -83.227 		26.626 		0
v -82.537 		27.197 		0
v -72.158 		15.545 		0
v -84.358 		-24.605 		0.249
v 70.09 		16.689 		3.998
v -83.898 		-26.133 		0.291
v -84.199 		-25.046 		0.236
v -76.805 		18.858 		0.022
v -83.227 		-26.376 		0
v -76.849 		18.729 		0.023
v -83.765 		-25.773 		0.223
v -77.62 		18.96 		0.03
v -83.485 		-26.087 		0.218
v 69.572 		19.294 		0
v 69.483 		18.713 		0
v 34.7535 		-25.176 		3.998
v -83.159 		-26.735 		0.291
v -82.537 		-26.947 		0
v -76.938 		18.148 		0.024
v -83.024 		-26.712 		0.246
v -82.891 		-26.654 		0.227
v -76.887 		17.367 		0.023
v -82.15 		-27.29 		0.291
v -81.932 		-27.328 		0.266
v -76.722 		16.803 		0.021
v 69.572 		19.294 		3.998
v 69.483 		18.713 		3.998
v 69.495 		18.125 		3.998
v -61.12 		24.0157 		3.998
v -79.5 		19.386 		3.998
v -78.128 		19.055 		3.963
v -78.635 		19.151 		3.998
v 74.046 		15.965 		3.996
v -79.5 		19.386 		0.057
v 74.046 		15.965 		0.004
v 74.448 		16.264 		3.994
v -79.5 		19.386 		3.943
v 73.033 		15.573 		3.998
v 84.5 		24.001 		20
v 73.249 		15.617 		0.002
v 72.472 		15.515 		3.998
v 84.5 		-25.001 		20
v 71.147 		15.83 		3.998
v 71.695 		15.617 		3.998
v -62.3533 		-25.1697 		3.998
v -60.498 		-25.004 		3.998
v -70.997 		28.751 		20
v -72.541 		29.072 		20
v -65.785 		25.251 		20
v -65.696 		25.004 		20
v -81.003 		25 		20
v -79.503 		25 		20
v -79.503 		25.004 		20
v -75 		29.251 		20
v -76.24 		29.206 		20
v -77.459 		29.072 		20
v -79.75 		28.548 		20
v -80.783 		28.166 		20
v -81.718 		27.713 		20
v -73.556 		14.975 		3.997
v -84.305 		25.001 		20
v -82.537 		27.197 		20
v -83.227 		26.626 		20
v -83.777 		26.01 		20
v -84.176 		25.36 		20
v -72.799 		15.178 		0.001
v -73.556 		14.975 		0.003
v 84.47 		24.001 		20
v 84.419 		24.436 		20
v 84.176 		25.11 		20
v 83.777 		25.76 		20
v 83.227 		26.376 		20
v 82.537 		26.947 		20
v 81.003 		-8.192 		20
v -72.447 		15.351 		3.998
v 81.718 		27.463 		20
v 80.783 		27.916 		20
v 79.75 		28.298 		20
v 77.459 		28.822 		20
v 75 		29.001 		20
v 73.76 		28.956 		20
v 79.503 		25.004 		20
v -72.121 		15.57 		3.998
v -71.566 		16.124 		3.998
v 79.503 		25 		20
v 81.003 		25 		20
v 72.163 		28.751 		20
v 65.911 		25.251 		20
v -74.187 		14.964 		3.996
v -74.187 		14.964 		0.005
v 65.786 		25.004 		20
v -74.725 		15.051 		3.993
v -75.45 		15.351 		3.989
v -75.905 		15.683 		3.986
v -76.33 		16.124 		3.983
v -65.678 		25 		3.998
v -65.696 		25.004 		3.998
v -65.785 		25.251 		3.983
v -65.6775 		25 		3.998
v -75.45 		15.351 		0.011
v -74.725 		15.051 		0.007
v -75.905 		15.683 		0.014
v -65.6997 		25 		3.998
v -72.799 		20.726 		3.998
v -73.363 		20.89 		3.998
v 82.537 		-27.197 		20
v 83.227 		-26.626 		20
v 83.777 		-26.01 		20
v 84.176 		-25.36 		20
v 84.305 		-25.001 		20
v 80.783 		-28.166 		20
v 81.718 		-27.713 		20
v 79.75 		-28.548 		20
v 77.459 		-29.072 		20
v 79.503 		25.004 		3.998
v 81.003 		-25.505 		20
v 79.503 		25 		3.998
v 81.003 		25 		3.998
v 72.163 		-29.001 		20
v 73.151 		-29.139 		20
v 74.595 		20.64 		3.998
v 74.3 		20.899 		3.998
v 73.797 		21.204 		3.998
v 79.5 		19.136 		3.998
# 443 vertices

g group_0_12568524

usemtl color_12568524
s 0

f 63 	8 	426
f 6 	188 	190
f 14 	12 	9
f 1 	9 	15
f 12 	17 	15
f 15 	9 	12
f 11 	1 	15
f 16 	15 	17
f 23 	24 	5
f 18 	5 	24
f 173 	366 	26
f 3 	57 	295
f 29 	35 	28
f 30 	34 	29
f 31 	41 	30
f 32 	41 	31
f 35 	29 	34
f 21 	41 	20
f 21 	22 	5
f 368 	176 	407
f 36 	422 	37
f 23 	5 	22
f 26 	38 	176
f 26 	176 	173
f 10 	13 	8
f 40 	42 	39
f 43 	21 	42
f 129 	78 	33
f 73 	71 	240
f 33 	37 	422
f 25 	348 	44
f 10 	4 	13
f 4 	47 	13
f 25 	44 	77
f 4 	98 	47
f 38 	26 	46
f 45 	46 	26
f 361 	48 	49
f 7 	348 	25
f 36 	44 	422
f 47 	48 	13
f 34 	30 	41
f 43 	41 	21
f 47 	49 	48
f 39 	42 	21
f 5 	39 	21
f 20 	41 	32
f 28 	51 	27
f 53 	50 	52
f 54 	50 	53
f 50 	27 	52
f 52 	27 	51
f 55 	50 	54
f 51 	28 	35
f 58 	171 	56
f 60 	171 	58
f 59 	438 	61
f 61 	90 	66
f 171 	65 	56
f 62 	67 	63
f 72 	111 	70
f 84 	85 	67
f 348 	418 	44
f 70 	111 	69
f 111 	171 	69
f 75 	121 	73
f 68 	109 	240
f 67 	62 	84
f 86 	84 	62
f 60 	74 	171
f 74 	69 	171
f 8 	63 	10
f 63 	67 	4
f 63 	4 	10
f 6 	193 	188
f 4 	67 	85
f 71 	68 	240
f 82 	95 	86
f 86 	62 	82
f 75 	240 	80
f 240 	348 	81
f 80 	240 	81
f 4 	85 	98
f 92 	90 	91
f 66 	90 	92
f 91 	90 	93
f 370 	123 	90
f 6 	196 	193
f 85 	120 	146
f 127 	89 	94
f 5 	18 	111
f 85 	146 	98
f 82 	111 	95
f 141 	111 	82
f 96 	127 	94
f 6 	190 	185
f 100 	111 	97
f 6 	5 	99
f 89 	335 	94
f 95 	102 	101
f 96 	94 	335
f 102 	111 	104
f 100 	104 	111
f 96 	335 	103
f 149 	2 	105
f 134 	108 	109
f 107 	103 	240
f 335 	240 	103
f 19 	97 	111
f 134 	109 	68
f 19 	111 	18
f 113 	114 	112
f 106 	436 	117
f 114 	106 	117
f 101 	120 	85
f 86 	95 	101
f 113 	112 	106
f 105 	106 	112
f 113 	106 	114
f 101 	84 	86
f 102 	126 	101
f 361 	49 	97
f 146 	102 	104
f 130 	127 	96
f 130 	96 	103
f 36 	78 	79
f 130 	103 	107
f 132 	130 	107
f 132 	107 	108
f 79 	77 	36
f 138 	161 	97
f 100 	97 	161
f 119 	76 	77
f 108 	134 	132
f 100 	146 	104
f 135 	134 	68
f 71 	135 	68
f 119 	77 	79
f 101 	126 	120
f 71 	73 	124
f 71 	124 	135
f 119 	88 	76
f 85 	84 	101
f 124 	73 	121
f 138 	97 	49
f 121 	75 	80
f 121 	80 	122
f 25 	77 	76
f 143 	140 	111
f 115 	111 	140
f 116 	111 	115
f 139 	122 	80
f 139 	80 	81
f 370 	380 	123
f 128 	90 	123
f 131 	90 	128
f 133 	90 	131
f 136 	90 	133
f 137 	90 	136
f 93 	90 	137
f 139 	81 	83
f 102 	95 	111
f 142 	143 	111
f 142 	111 	141
f 118 	139 	83
f 118 	83 	87
f 125 	57 	3
f 87 	254 	118
f 125 	144 	57
f 98 	138 	49
f 98 	49 	47
f 3 	88 	125
f 119 	139 	118
f 25 	88 	7
f 119 	122 	139
f 76 	88 	25
f 37 	78 	36
f 37 	33 	78
f 89 	147 	148
f 77 	44 	36
f 105 	112 	149
f 89 	127 	147
f 147 	152 	148
f 151 	148 	152
f 148 	335 	89
f 151 	335 	148
f 156 	160 	155
f 154 	155 	160
f 157 	154 	158
f 157 	158 	159
f 100 	161 	146
f 126 	102 	146
f 120 	126 	146
f 154 	160 	158
f 98 	161 	138
f 2 	150 	153
f 162 	157 	159
f 162 	159 	163
f 158 	172 	159
f 98 	146 	161
f 164 	162 	163
f 164 	163 	165
f 165 	163 	335
f 163 	159 	335
f 166 	164 	165
f 166 	165 	167
f 167 	151 	152
f 167 	152 	166
f 151 	167 	335
f 167 	165 	335
f 169 	168 	170
f 432 	143 	142
f 170 	168 	172
f 272 	172 	168
f 64 	65 	171
f 170 	156 	155
f 170 	155 	169
f 160 	172 	158
f 335 	159 	172
f 172 	160 	156
f 172 	156 	170
f 175 	209 	172
f 406 	366 	407
f 38 	407 	176
f 175 	177 	174
f 239 	174 	230
f 145 	111 	116
f 248 	348 	249
f 87 	83 	348
f 180 	57 	144
f 46 	45 	179
f 178 	179 	45
f 179 	178 	176
f 173 	176 	178
f 119 	121 	122
f 181 	182 	230
f 185 	201 	39
f 6 	39 	5
f 6 	185 	39
f 431 	142 	141
f 431 	141 	425
f 153 	150 	193
f 188 	193 	150
f 188 	150 	190
f 432 	433 	143
f 34 	41 	110
f 40 	201 	42
f 201 	114 	42
f 112 	114 	201
f 114 	117 	42
f 43 	42 	117
f 198 	200 	197
f 110 	41 	117
f 183 	200 	198
f 43 	117 	41
f 112 	201 	149
f 143 	433 	140
f 184 	202 	200
f 184 	200 	183
f 190 	150 	149
f 149 	201 	190
f 40 	39 	201
f 201 	185 	190
f 145 	439 	438
f 210 	208 	209
f 210 	197 	208
f 213 	278 	212
f 212 	214 	213
f 211 	214 	212
f 207 	197 	221
f 212 	278 	211
f 207 	208 	197
f 202 	221 	197
f 215 	217 	218
f 215 	218 	216
f 215 	224 	217
f 234 	61 	66
f 216 	218 	219
f 207 	221 	220
f 220 	208 	207
f 216 	422 	204
f 220 	209 	208
f 235 	234 	66
f 351 	204 	349
f 200 	202 	197
f 216 	219 	304
f 220 	221 	303
f 235 	66 	237
f 303 	299 	220
f 206 	349 	204
f 280 	225 	204
f 226 	223 	227
f 226 	227 	228
f 145 	171 	111
f 92 	91 	233
f 229 	59 	61
f 230 	182 	239
f 232 	92 	233
f 232 	66 	92
f 238 	61 	234
f 231 	343 	236
f 134 	171 	132
f 135 	171 	134
f 231 	236 	93
f 91 	93 	233
f 236 	233 	93
f 232 	237 	66
f 171 	145 	130
f 130 	132 	171
f 124 	171 	135
f 127 	145 	147
f 127 	130 	145
f 229 	61 	238
f 177 	230 	174
f 145 	164 	166
f 145 	166 	152
f 152 	147 	145
f 251 	128 	123
f 154 	145 	155
f 157 	145 	154
f 229 	155 	145
f 162 	145 	157
f 162 	164 	145
f 348 	240 	417
f 169 	155 	229
f 243 	275 	242
f 229 	275 	244
f 242 	275 	241
f 245 	246 	247
f 241 	226 	228
f 241 	228 	248
f 245 	247 	14
f 12 	14 	247
f 242 	241 	248
f 242 	248 	249
f 249 	250 	242
f 243 	242 	250
f 123 	11 	251
f 15 	251 	11
f 252 	253 	244
f 252 	244 	243
f 250 	252 	243
f 128 	251 	265
f 253 	252 	295
f 252 	250 	295
f 265 	131 	128
f 223 	254 	227
f 118 	254 	223
f 249 	348 	250
f 254 	87 	348
f 83 	81 	348
f 253 	256 	244
f 255 	244 	256
f 256 	257 	255
f 257 	258 	259
f 257 	259 	255
f 257 	256 	295
f 253 	295 	256
f 259 	258 	261
f 259 	261 	263
f 262 	263 	261
f 270 	16 	260
f 264 	263 	269
f 262 	269 	263
f 258 	257 	295
f 266 	264 	267
f 266 	267 	268
f 262 	261 	295
f 261 	258 	295
f 264 	269 	267
f 267 	269 	172
f 262 	295 	269
f 271 	266 	268
f 271 	268 	272
f 270 	131 	265
f 268 	267 	172
f 133 	131 	274
f 271 	272 	168
f 274 	276 	133
f 169 	271 	168
f 272 	268 	172
f 265 	16 	270
f 224 	215 	204
f 215 	216 	204
f 260 	314 	273
f 172 	269 	295
f 251 	15 	265
f 265 	15 	16
f 274 	131 	270
f 226 	241 	275
f 276 	136 	133
f 172 	295 	175
f 259 	229 	255
f 263 	229 	259
f 255 	229 	244
f 264 	229 	263
f 270 	260 	274
f 266 	229 	264
f 348 	3 	295
f 243 	244 	275
f 169 	229 	271
f 276 	260 	273
f 266 	271 	229
f 276 	274 	260
f 277 	136 	276
f 240 	211 	278
f 137 	136 	277
f 273 	288 	276
f 273 	325 	288
f 325 	336 	288
f 279 	55 	287
f 223 	226 	275
f 225 	224 	204
f 222 	281 	351
f 280 	204 	281
f 285 	284 	214
f 282 	283 	434
f 286 	285 	214
f 288 	289 	276
f 287 	286 	214
f 52 	51 	283
f 52 	283 	282
f 53 	52 	282
f 53 	282 	284
f 54 	53 	284
f 54 	284 	285
f 286 	54 	285
f 286 	55 	54
f 311 	225 	280
f 289 	277 	276
f 55 	286 	287
f 312 	311 	281
f 280 	281 	311
f 222 	290 	281
f 290 	327 	281
f 51 	35 	283
f 284 	282 	214
f 283 	442 	434
f 288 	292 	289
f 299 	335 	209
f 209 	220 	299
f 119 	279 	298
f 288 	336 	292
f 119 	55 	279
f 296 	137 	277
f 93 	137 	296
f 240 	345 	211
f 306 	287 	214
f 289 	296 	277
f 202 	324 	221
f 300 	304 	301
f 189 	186 	218
f 129 	302 	300
f 302 	304 	300
f 78 	129 	300
f 287 	306 	279
f 298 	279 	306
f 307 	297 	306
f 298 	306 	297
f 214 	345 	307
f 144 	125 	275
f 144 	275 	180
f 219 	218 	186
f 192 	191 	309
f 186 	301 	219
f 304 	219 	301
f 228 	348 	248
f 231 	289 	292
f 313 	315 	312
f 292 	342 	343
f 299 	303 	335
f 309 	310 	192
f 320 	321 	310
f 191 	203 	217
f 292 	343 	231
f 217 	309 	191
f 218 	217 	203
f 203 	189 	218
f 341 	338 	294
f 231 	296 	289
f 310 	311 	320
f 315 	320 	311
f 296 	231 	93
f 56 	65 	308
f 312 	315 	311
f 260 	16 	17
f 314 	260 	17
f 324 	58 	56
f 319 	315 	318
f 320 	315 	319
f 321 	194 	310
f 194 	192 	310
f 317 	318 	315
f 332 	316 	328
f 180 	275 	322
f 323 	247 	246
f 246 	316 	323
f 324 	56 	308
f 17 	12 	323
f 247 	323 	12
f 325 	273 	314
f 310 	309 	225
f 311 	310 	225
f 313 	312 	327
f 314 	17 	326
f 229 	238 	275
f 331 	327 	329
f 316 	332 	330
f 313 	327 	331
f 340 	332 	328
f 303 	324 	335
f 324 	362 	58
f 330 	332 	314
f 314 	332 	325
f 323 	316 	326
f 323 	326 	17
f 326 	316 	330
f 326 	330 	314
f 329 	338 	331
f 223 	275 	119
f 217 	224 	309
f 309 	224 	225
f 336 	325 	332
f 336 	332 	339
f 312 	281 	327
f 332 	340 	339
f 327 	290 	329
f 291 	329 	290
f 278 	407 	46
f 291 	305 	338
f 9 	317 	315
f 187 	245 	315
f 353 	331 	338
f 337 	340 	328
f 26 	406 	45
f 50 	45 	406
f 342 	292 	336
f 9 	315 	14
f 337 	236 	343
f 334 	64 	119
f 307 	345 	297
f 333 	297 	345
f 50 	55 	119
f 343 	340 	337
f 38 	46 	407
f 346 	334 	345
f 333 	345 	334
f 334 	346 	64
f 278 	417 	240
f 342 	339 	343
f 340 	343 	339
f 187 	235 	237
f 333 	334 	119
f 338 	341 	353
f 333 	119 	297
f 322 	275 	187
f 275 	238 	187
f 339 	342 	336
f 298 	297 	119
f 171 	119 	64
f 306 	214 	307
f 214 	211 	345
f 346 	345 	240
f 240 	335 	347
f 346 	240 	347
f 308 	347 	335
f 346 	347 	64
f 329 	291 	338
f 64 	347 	65
f 305 	294 	338
f 293 	344 	294
f 341 	294 	344
f 347 	308 	65
f 237 	232 	187
f 234 	235 	187
f 344 	353 	341
f 350 	351 	349
f 351 	350 	222
f 228 	227 	348
f 351 	281 	204
f 236 	337 	187
f 232 	233 	187
f 350 	293 	294
f 227 	254 	348
f 305 	350 	294
f 353 	315 	331
f 315 	313 	331
f 295 	250 	348
f 234 	187 	238
f 354 	359 	352
f 354 	352 	355
f 291 	350 	305
f 293 	350 	356
f 356 	350 	349
f 290 	222 	350
f 355 	153 	193
f 350 	291 	290
f 368 	407 	366
f 6 	354 	196
f 354 	355 	196
f 320 	319 	383
f 193 	196 	355
f 319 	318 	383
f 318 	317 	380
f 417 	179 	368
f 14 	315 	245
f 355 	2 	153
f 173 	178 	366
f 435 	197 	90
f 435 	90 	438
f 438 	59 	229
f 245 	187 	246
f 328 	316 	187
f 195 	6 	99
f 119 	78 	300
f 246 	187 	316
f 233 	236 	187
f 337 	328 	187
f 229 	145 	438
f 362 	324 	202
f 46 	179 	278
f 394 	181 	365
f 359 	72 	360
f 417 	278 	179
f 359 	360 	357
f 70 	69 	362
f 70 	362 	363
f 72 	70 	363
f 239 	197 	174
f 363 	360 	72
f 176 	368 	179
f 364 	365 	177
f 230 	177 	365
f 364 	295 	365
f 50 	300 	45
f 69 	74 	362
f 178 	45 	300
f 177 	175 	364
f 362 	60 	58
f 300 	50 	119
f 181 	230 	365
f 362 	74 	60
f 175 	295 	364
f 303 	221 	324
f 308 	335 	324
f 352 	359 	357
f 78 	119 	79
f 369 	368 	372
f 368 	366 	372
f 366 	367 	372
f 363 	362 	202
f 370 	371 	372
f 119 	125 	88
f 119 	118 	223
f 119 	275 	125
f 374 	375 	372
f 375 	376 	372
f 376 	377 	372
f 370 	372 	377
f 378 	370 	377
f 373 	374 	372
f 367 	373 	372
f 183 	437 	443
f 119 	124 	121
f 377 	194 	378
f 384 	380 	370
f 383 	384 	370
f 382 	383 	370
f 11 	123 	1
f 381 	382 	370
f 378 	381 	370
f 320 	382 	321
f 381 	321 	382
f 320 	383 	382
f 317 	9 	1
f 97 	19 	361
f 383 	318 	384
f 380 	317 	1
f 318 	380 	384
f 184 	183 	2
f 378 	194 	381
f 321 	381 	194
f 19 	358 	361
f 184 	2 	355
f 360 	363 	202
f 387 	393 	358
f 205 	369 	372
f 406 	26 	366
f 300 	301 	366
f 409 	379 	386
f 385 	386 	379
f 405 	393 	387
f 395 	405 	392
f 387 	388 	405
f 389 	405 	388
f 390 	405 	389
f 391 	405 	390
f 392 	405 	391
f 385 	379 	394
f 367 	301 	373
f 322 	385 	394
f 204 	205 	371
f 372 	371 	205
f 371 	370 	204
f 206 	204 	370
f 400 	401 	399
f 398 	399 	401
f 373 	189 	374
f 186 	189 	373
f 57 	180 	322
f 192 	377 	191
f 376 	191 	377
f 322 	394 	402
f 377 	192 	194
f 322 	402 	403
f 189 	203 	374
f 375 	374 	203
f 376 	375 	203
f 203 	191 	376
f 57 	322 	403
f 396 	401 	405
f 397 	401 	396
f 398 	401 	397
f 404 	405 	401
f 403 	402 	295
f 396 	405 	395
f 402 	394 	295
f 365 	295 	394
f 437 	405 	404
f 61 	438 	90
f 367 	366 	301
f 410 	401 	407
f 401 	406 	407
f 400 	406 	401
f 443 	2 	183
f 209 	175 	210
f 366 	178 	300
f 197 	210 	174
f 5 	111 	99
f 186 	373 	301
f 278 	213 	407
f 359 	111 	72
f 174 	210 	175
f 418 	417 	415
f 239 	90 	197
f 416 	415 	417
f 417 	418 	348
f 335 	172 	209
f 421 	344 	414
f 369 	416 	368
f 417 	368 	416
f 437 	198 	393
f 421 	414 	413
f 422 	415 	416
f 198 	437 	183
f 422 	418 	415
f 419 	421 	413
f 419 	413 	412
f 416 	205 	422
f 184 	360 	202
f 205 	204 	422
f 411 	420 	419
f 411 	419 	412
f 19 	18 	387
f 19 	387 	358
f 205 	416 	369
f 387 	18 	24
f 387 	24 	388
f 184 	352 	357
f 389 	388 	23
f 24 	23 	388
f 344 	293 	414
f 389 	23 	390
f 22 	390 	23
f 6 	111 	354
f 21 	391 	390
f 21 	390 	22
f 21 	20 	392
f 21 	392 	391
f 359 	354 	111
f 302 	33 	423
f 357 	360 	184
f 302 	423 	424
f 195 	99 	111
f 111 	6 	195
f 304 	424 	216
f 424 	422 	216
f 423 	422 	424
f 33 	422 	423
f 422 	44 	418
f 355 	352 	184
f 33 	302 	129
f 424 	304 	302
f 379 	409 	408
f 411 	408 	409
f 411 	409 	420
f 428 	429 	435
f 400 	27 	406
f 401 	434 	404
f 404 	436 	437
f 7 	3 	348
f 108 	107 	240
f 429 	361 	393
f 358 	393 	361
f 57 	403 	295
f 213 	434 	410
f 426 	427 	435
f 427 	428 	435
f 435 	429 	393
f 410 	407 	213
f 3 	7 	88
f 142 	431 	430
f 392 	20 	395
f 32 	395 	20
f 430 	432 	142
f 395 	32 	396
f 31 	396 	32
f 397 	396 	30
f 31 	30 	396
f 397 	30 	29
f 401 	410 	434
f 140 	433 	439
f 397 	29 	398
f 439 	115 	140
f 400 	399 	27
f 432 	430 	435
f 433 	432 	435
f 431 	435 	430
f 50 	406 	27
f 436 	404 	434
f 425 	426 	435
f 431 	425 	435
f 213 	214 	434
f 214 	282 	434
f 435 	393 	198
f 171 	124 	119
f 398 	28 	399
f 29 	28 	398
f 181 	379 	408
f 28 	27 	399
f 439 	433 	435
f 439 	435 	438
f 440 	436 	441
f 110 	436 	440
f 436 	434 	442
f 441 	436 	442
f 110 	117 	436
f 106 	443 	436
f 34 	110 	440
f 198 	197 	435
f 34 	440 	441
f 442 	34 	441
f 108 	240 	109
f 442 	35 	34
f 283 	35 	442
f 405 	437 	393
f 116 	439 	145
f 115 	439 	116
f 436 	443 	437
f 106 	105 	443
f 2 	443 	105
f 150 	2 	149
f 427 	8 	13
f 13 	428 	427
f 187 	421 	419
f 361 	429 	48
f 75 	73 	240
f 48 	429 	13
f 13 	429 	428
f 141 	82 	425
f 187 	344 	421
f 82 	62 	425
f 425 	63 	426
f 63 	425 	62
f 187 	199 	344
f 427 	426 	8
f 206 	182 	349
f 181 	408 	411
f 187 	420 	409
f 353 	344 	199
f 380 	1 	123
f 239 	206 	370
f 370 	90 	239
f 181 	349 	182
f 206 	239 	182
f 315 	353 	187
f 187 	385 	322
f 187 	386 	385
f 386 	187 	409
f 394 	379 	181
f 181 	411 	412
f 181 	412 	413
f 181 	356 	349
f 414 	293 	181
f 181 	413 	414
f 419 	420 	187
f 187 	353 	199
f 293 	356 	181
# 898 faces

 #end of obj_0

